<svg width="921" height="114" viewBox="0 0 921 114" fill="none" xmlns="http://www.w3.org/2000/svg">
<rect width="921" height="114" fill="white"/>
<rect x="16" y="21" width="112" height="72" rx="8" fill="#3F6486"/>
<rect x="171" y="21" width="112" height="72" rx="8" fill="#3F6486"/>
<rect x="326" y="21" width="112" height="72" rx="8" fill="#3F6486"/>
<rect x="481" y="21" width="112" height="72" rx="8" fill="#3F6486"/>
<rect x="791" y="21" width="112" height="72" rx="8" fill="#3F6486"/>
<rect x="636" y="21" width="112" height="72" rx="8" fill="#3F6486"/>
<path d="M40.5845 52H42.4885V48.584H44.6095L46.2685 52H48.4245L46.6045 48.262C47.1785 48.0007 47.6008 47.6063 47.8715 47.079C48.1468 46.547 48.2845 45.938 48.2845 45.252C48.2845 44.4027 48.0768 43.6793 47.6615 43.082C47.2462 42.4847 46.5858 42.116 45.6805 41.976C45.5498 41.9527 45.4005 41.9387 45.2325 41.934C45.0692 41.9247 44.9385 41.92 44.8405 41.92H40.5845V52ZM42.4885 46.806V43.698H44.7565C44.8545 43.698 44.9618 43.7027 45.0785 43.712C45.1952 43.7213 45.3025 43.74 45.4005 43.768C45.6572 43.838 45.8555 43.957 45.9955 44.125C46.1355 44.2883 46.2312 44.4727 46.2825 44.678C46.3385 44.8787 46.3665 45.07 46.3665 45.252C46.3665 45.434 46.3385 45.6277 46.2825 45.833C46.2312 46.0337 46.1355 46.218 45.9955 46.386C45.8555 46.5493 45.6572 46.666 45.4005 46.736C45.3025 46.764 45.1952 46.7827 45.0785 46.792C44.9618 46.8013 44.8545 46.806 44.7565 46.806H42.4885ZM53.4774 52.21C54.2054 52.21 54.8751 52.0187 55.4864 51.636C56.1024 51.2533 56.5527 50.7167 56.8374 50.026L54.9334 49.48C54.6441 50.1147 54.1214 50.432 53.3654 50.432C52.8474 50.432 52.4391 50.2873 52.1404 49.998C51.8464 49.7087 51.6644 49.2933 51.5944 48.752H56.9004C56.9797 47.8373 56.8864 47.0417 56.6204 46.365C56.3544 45.6883 55.9437 45.1633 55.3884 44.79C54.8331 44.4167 54.1587 44.23 53.3654 44.23C52.6187 44.23 51.9584 44.4003 51.3844 44.741C50.8104 45.077 50.3601 45.5507 50.0334 46.162C49.7067 46.7733 49.5434 47.492 49.5434 48.318C49.5434 49.074 49.7091 49.746 50.0404 50.334C50.3764 50.9173 50.8384 51.377 51.4264 51.713C52.0191 52.0443 52.7027 52.21 53.4774 52.21ZM53.4494 45.882C53.9067 45.882 54.2567 45.9963 54.4994 46.225C54.7467 46.4537 54.9054 46.8247 54.9754 47.338H51.6434C51.8441 46.3673 52.4461 45.882 53.4494 45.882ZM61.435 52.21C62.4243 52.21 63.199 51.9883 63.759 51.545C64.319 51.1017 64.599 50.4927 64.599 49.718C64.599 49.13 64.417 48.6657 64.053 48.325C63.6936 47.9843 63.0823 47.702 62.219 47.478C61.631 47.3287 61.1923 47.2073 60.903 47.114C60.6183 47.0207 60.4293 46.9297 60.336 46.841C60.2473 46.7523 60.203 46.6427 60.203 46.512C60.203 46.2927 60.308 46.1247 60.518 46.008C60.7326 45.8913 61.015 45.8447 61.365 45.868C62.107 45.924 62.513 46.2413 62.583 46.82L64.529 46.47C64.431 45.784 64.095 45.2403 63.521 44.839C62.947 44.433 62.2143 44.23 61.323 44.23C60.4083 44.23 59.678 44.4447 59.132 44.874C58.586 45.3033 58.313 45.882 58.313 46.61C58.313 47.1887 58.502 47.646 58.88 47.982C59.258 48.3133 59.909 48.598 60.833 48.836C61.379 48.9807 61.7803 49.0973 62.037 49.186C62.2983 49.2747 62.4663 49.3657 62.541 49.459C62.6156 49.5477 62.653 49.6667 62.653 49.816C62.653 50.054 62.5596 50.2407 62.373 50.376C62.1863 50.5067 61.9203 50.572 61.575 50.572C61.155 50.572 60.8073 50.4717 60.532 50.271C60.2613 50.0703 60.0863 49.7927 60.007 49.438L58.061 49.732C58.187 50.5207 58.5416 51.132 59.125 51.566C59.713 51.9953 60.483 52.21 61.435 52.21ZM69.6512 52.21C70.3792 52.21 71.0489 52.0187 71.6602 51.636C72.2762 51.2533 72.7266 50.7167 73.0112 50.026L71.1072 49.48C70.8179 50.1147 70.2952 50.432 69.5392 50.432C69.0212 50.432 68.6129 50.2873 68.3142 49.998C68.0202 49.7087 67.8382 49.2933 67.7682 48.752H73.0742C73.1536 47.8373 73.0602 47.0417 72.7942 46.365C72.5282 45.6883 72.1176 45.1633 71.5622 44.79C71.0069 44.4167 70.3326 44.23 69.5392 44.23C68.7926 44.23 68.1322 44.4003 67.5582 44.741C66.9842 45.077 66.5339 45.5507 66.2072 46.162C65.8806 46.7733 65.7172 47.492 65.7172 48.318C65.7172 49.074 65.8829 49.746 66.2142 50.334C66.5502 50.9173 67.0122 51.377 67.6002 51.713C68.1929 52.0443 68.8766 52.21 69.6512 52.21ZM69.6232 45.882C70.0806 45.882 70.4306 45.9963 70.6732 46.225C70.9206 46.4537 71.0792 46.8247 71.1492 47.338H67.8172C68.0179 46.3673 68.6199 45.882 69.6232 45.882ZM76.6181 52.21C77.2014 52.21 77.6914 52.1213 78.0881 51.944C78.4894 51.762 78.8581 51.4727 79.1941 51.076V52H80.8601V47.38C80.8601 47.0347 80.8461 46.722 80.8181 46.442C80.7901 46.162 80.7014 45.882 80.5521 45.602C80.2861 45.098 79.8941 44.7433 79.3761 44.538C78.8581 44.3327 78.2654 44.23 77.5981 44.23C76.6881 44.23 75.9694 44.426 75.4421 44.818C74.9148 45.21 74.5554 45.7187 74.3641 46.344L76.0861 46.89C76.2074 46.5447 76.4198 46.3043 76.7231 46.169C77.0264 46.0337 77.3181 45.966 77.5981 45.966C78.0461 45.966 78.3798 46.05 78.5991 46.218C78.8184 46.3813 78.9468 46.6403 78.9841 46.995C78.2748 47.0977 77.6494 47.198 77.1081 47.296C76.5668 47.3893 76.1141 47.5013 75.7501 47.632C75.1434 47.856 74.7164 48.1617 74.4691 48.549C74.2218 48.9317 74.0981 49.3867 74.0981 49.914C74.0981 50.334 74.1938 50.719 74.3851 51.069C74.5811 51.4143 74.8658 51.692 75.2391 51.902C75.6171 52.1073 76.0768 52.21 76.6181 52.21ZM77.0241 50.712C76.6974 50.712 76.4384 50.6397 76.2471 50.495C76.0558 50.3457 75.9601 50.1427 75.9601 49.886C75.9601 49.6947 76.0208 49.5313 76.1421 49.396C76.2634 49.256 76.4641 49.13 76.7441 49.018C76.9588 48.9387 77.2224 48.8663 77.5351 48.801C77.8524 48.731 78.3308 48.6423 78.9701 48.535C78.9654 48.717 78.9514 48.9177 78.9281 49.137C78.9048 49.3517 78.8534 49.5407 78.7741 49.704C78.7228 49.8113 78.6248 49.9443 78.4801 50.103C78.3401 50.2617 78.1488 50.404 77.9061 50.53C77.6681 50.6513 77.3741 50.712 77.0241 50.712ZM82.6802 52H84.5982V48.136C84.5982 47.2587 84.9435 46.6613 85.6342 46.344C85.8582 46.2367 86.1079 46.1737 86.3832 46.155C86.6632 46.1317 86.9082 46.1527 87.1182 46.218V44.44C86.7775 44.398 86.4369 44.4073 86.0962 44.468C85.7555 44.524 85.4475 44.636 85.1722 44.804C84.9949 44.9067 84.8385 45.0303 84.7032 45.175C84.5725 45.3197 84.4582 45.4807 84.3602 45.658V44.44H82.6802V52ZM91.645 52.21C92.5223 52.21 93.2597 51.993 93.857 51.559C94.4543 51.125 94.8603 50.5067 95.075 49.704L93.129 49.298C93.017 49.662 92.849 49.942 92.625 50.138C92.401 50.334 92.0743 50.432 91.645 50.432C91.071 50.432 90.637 50.229 90.343 49.823C90.0537 49.4123 89.909 48.878 89.909 48.22C89.909 47.59 90.0467 47.065 90.322 46.645C90.602 46.2203 91.043 46.008 91.645 46.008C91.995 46.008 92.3077 46.1177 92.583 46.337C92.863 46.5563 93.059 46.862 93.171 47.254L95.075 46.75C94.907 45.9707 94.5197 45.357 93.913 44.909C93.311 44.4563 92.5643 44.23 91.673 44.23C90.903 44.23 90.2357 44.4027 89.671 44.748C89.1063 45.0933 88.6677 45.567 88.355 46.169C88.047 46.771 87.893 47.4547 87.893 48.22C87.893 48.976 88.0423 49.655 88.341 50.257C88.6397 50.859 89.069 51.335 89.629 51.685C90.189 52.035 90.861 52.21 91.645 52.21ZM96.4611 52H98.3931V48.164C98.3931 47.6927 98.4445 47.3147 98.5471 47.03C98.6545 46.7453 98.7898 46.5307 98.9531 46.386C99.1165 46.2367 99.2915 46.1363 99.4781 46.085C99.6648 46.0337 99.8398 46.008 100.003 46.008C100.409 46.008 100.722 46.099 100.941 46.281C101.165 46.463 101.326 46.6893 101.424 46.96C101.522 47.2307 101.58 47.5013 101.599 47.772C101.618 48.038 101.627 48.2573 101.627 48.43V52H103.559V47.758C103.559 47.632 103.55 47.4313 103.531 47.156C103.512 46.8807 103.459 46.5773 103.37 46.246C103.281 45.91 103.132 45.588 102.922 45.28C102.717 44.972 102.427 44.7177 102.054 44.517C101.681 44.3163 101.198 44.216 100.605 44.216C100.059 44.216 99.5831 44.307 99.1771 44.489C98.7711 44.671 98.4305 44.9137 98.1551 45.217V41.92H96.4611V52ZM41.6156 71.21C42.1616 71.21 42.6656 71.1423 43.1276 71.007C43.5942 70.8763 44.0166 70.6873 44.3946 70.44L45.1716 71.21L46.3336 70.034L45.5776 69.278C46.1936 68.3773 46.5016 67.2713 46.5016 65.96C46.5016 64.9147 46.3032 63.9977 45.9066 63.209C45.5146 62.4203 44.9522 61.8067 44.2196 61.368C43.4916 60.9293 42.6236 60.71 41.6156 60.71C40.6076 60.71 39.7372 60.9293 39.0046 61.368C38.2766 61.8067 37.7142 62.4203 37.3176 63.209C36.9256 63.9977 36.7296 64.9147 36.7296 65.96C36.7296 67.0053 36.9256 67.9223 37.3176 68.711C37.7142 69.4997 38.2766 70.1133 39.0046 70.552C39.7372 70.9907 40.6076 71.21 41.6156 71.21ZM41.6156 69.418C40.6589 69.404 39.9402 69.0867 39.4596 68.466C38.9836 67.8453 38.7456 67.01 38.7456 65.96C38.7456 64.91 38.9836 64.0677 39.4596 63.433C39.9402 62.7983 40.6589 62.488 41.6156 62.502C42.5769 62.516 43.2956 62.8333 43.7716 63.454C44.2476 64.0747 44.4856 64.91 44.4856 65.96C44.4856 66.6927 44.3736 67.3227 44.1496 67.85L43.4076 67.108L42.2316 68.284L43.0506 69.096C42.6446 69.32 42.1662 69.4273 41.6156 69.418ZM50.7129 71.224C51.2589 71.224 51.7349 71.133 52.1409 70.951C52.5469 70.769 52.8876 70.5263 53.1629 70.223V71H54.8429V63.44H52.9249V67.276C52.9249 67.7427 52.8713 68.1207 52.7639 68.41C52.6613 68.6947 52.5283 68.9117 52.3649 69.061C52.2016 69.2057 52.0266 69.3037 51.8399 69.355C51.6533 69.4063 51.4783 69.432 51.3149 69.432C50.9089 69.432 50.5939 69.341 50.3699 69.159C50.1506 68.977 49.9919 68.7507 49.8939 68.48C49.7959 68.2093 49.7376 67.941 49.7189 67.675C49.7003 67.4043 49.6909 67.1827 49.6909 67.01V63.44H47.7589V67.682C47.7589 67.808 47.7683 68.0087 47.7869 68.284C47.8056 68.5593 47.8593 68.865 47.9479 69.201C48.0366 69.5323 48.1836 69.852 48.3889 70.16C48.5989 70.468 48.8906 70.7223 49.2639 70.923C49.6373 71.1237 50.1203 71.224 50.7129 71.224ZM60.3133 71.21C61.0413 71.21 61.711 71.0187 62.3223 70.636C62.9383 70.2533 63.3887 69.7167 63.6733 69.026L61.7693 68.48C61.48 69.1147 60.9573 69.432 60.2013 69.432C59.6833 69.432 59.275 69.2873 58.9763 68.998C58.6823 68.7087 58.5003 68.2933 58.4303 67.752H63.7363C63.8157 66.8373 63.7223 66.0417 63.4563 65.365C63.1903 64.6883 62.7797 64.1633 62.2243 63.79C61.669 63.4167 60.9947 63.23 60.2013 63.23C59.4547 63.23 58.7943 63.4003 58.2203 63.741C57.6463 64.077 57.196 64.5507 56.8693 65.162C56.5427 65.7733 56.3793 66.492 56.3793 67.318C56.3793 68.074 56.545 68.746 56.8763 69.334C57.2123 69.9173 57.6743 70.377 58.2623 70.713C58.855 71.0443 59.5387 71.21 60.3133 71.21ZM60.2853 64.882C60.7427 64.882 61.0927 64.9963 61.3353 65.225C61.5827 65.4537 61.7413 65.8247 61.8113 66.338H58.4793C58.68 65.3673 59.282 64.882 60.2853 64.882ZM68.2709 71.21C69.2602 71.21 70.0349 70.9883 70.5949 70.545C71.1549 70.1017 71.4349 69.4927 71.4349 68.718C71.4349 68.13 71.2529 67.6657 70.8889 67.325C70.5296 66.9843 69.9182 66.702 69.0549 66.478C68.4669 66.3287 68.0282 66.2073 67.7389 66.114C67.4542 66.0207 67.2652 65.9297 67.1719 65.841C67.0832 65.7523 67.0389 65.6427 67.0389 65.512C67.0389 65.2927 67.1439 65.1247 67.3539 65.008C67.5686 64.8913 67.8509 64.8447 68.2009 64.868C68.9429 64.924 69.3489 65.2413 69.4189 65.82L71.3649 65.47C71.2669 64.784 70.9309 64.2403 70.3569 63.839C69.7829 63.433 69.0502 63.23 68.1589 63.23C67.2442 63.23 66.5139 63.4447 65.9679 63.874C65.4219 64.3033 65.1489 64.882 65.1489 65.61C65.1489 66.1887 65.3379 66.646 65.7159 66.982C66.0939 67.3133 66.7449 67.598 67.6689 67.836C68.2149 67.9807 68.6162 68.0973 68.8729 68.186C69.1342 68.2747 69.3022 68.3657 69.3769 68.459C69.4516 68.5477 69.4889 68.6667 69.4889 68.816C69.4889 69.054 69.3956 69.2407 69.2089 69.376C69.0222 69.5067 68.7562 69.572 68.4109 69.572C67.9909 69.572 67.6432 69.4717 67.3679 69.271C67.0972 69.0703 66.9222 68.7927 66.8429 68.438L64.8969 68.732C65.0229 69.5207 65.3776 70.132 65.9609 70.566C66.5489 70.9953 67.3189 71.21 68.2709 71.21ZM77.5092 71V69.418C77.0612 69.4787 76.6528 69.4973 76.2842 69.474C75.9155 69.4507 75.6472 69.306 75.4792 69.04C75.3905 68.9 75.3415 68.7133 75.3322 68.48C75.3275 68.242 75.3252 67.976 75.3252 67.682V64.91H77.5092V63.44H75.3252V61.34H73.4212V63.44H72.1332V64.91H73.4212V67.794C73.4212 68.2467 73.4258 68.6527 73.4352 69.012C73.4445 69.3667 73.5425 69.7167 73.7292 70.062C73.9345 70.4307 74.2332 70.699 74.6252 70.867C75.0218 71.0303 75.4698 71.1167 75.9692 71.126C76.4732 71.14 76.9865 71.098 77.5092 71ZM79.3339 62.39H81.2379V60.71H79.3339V62.39ZM79.3339 71H81.2379V63.44H79.3339V71ZM86.7384 71.21C87.4944 71.21 88.1594 71.042 88.7334 70.706C89.3121 70.3653 89.7624 69.8963 90.0844 69.299C90.4111 68.697 90.5744 68.004 90.5744 67.22C90.5744 66.4407 90.4134 65.7523 90.0914 65.155C89.7694 64.553 89.3191 64.0817 88.7404 63.741C88.1664 63.4003 87.4991 63.23 86.7384 63.23C85.9918 63.23 85.3314 63.398 84.7574 63.734C84.1834 64.07 83.7331 64.539 83.4064 65.141C83.0798 65.7383 82.9164 66.4313 82.9164 67.22C82.9164 67.9993 83.0751 68.69 83.3924 69.292C83.7144 69.8893 84.1624 70.3583 84.7364 70.699C85.3104 71.0397 85.9778 71.21 86.7384 71.21ZM86.7384 69.432C86.1458 69.432 85.6954 69.2337 85.3874 68.837C85.0841 68.4357 84.9324 67.8967 84.9324 67.22C84.9324 66.562 85.0771 66.03 85.3664 65.624C85.6604 65.2133 86.1178 65.008 86.7384 65.008C87.3404 65.008 87.7931 65.2087 88.0964 65.61C88.4044 66.0113 88.5584 66.548 88.5584 67.22C88.5584 67.8687 88.4068 68.4007 88.1034 68.816C87.8048 69.2267 87.3498 69.432 86.7384 69.432ZM92.0998 71H94.0318V67.164C94.0318 66.6927 94.0831 66.3147 94.1858 66.03C94.2931 65.7453 94.4285 65.5307 94.5918 65.386C94.7551 65.2367 94.9301 65.1363 95.1168 65.085C95.3035 65.0337 95.4785 65.008 95.6418 65.008C96.0478 65.008 96.3605 65.099 96.5798 65.281C96.8038 65.463 96.9648 65.6893 97.0628 65.96C97.1608 66.2307 97.2191 66.5013 97.2378 66.772C97.2565 67.038 97.2658 67.2573 97.2658 67.43V71H99.1978V66.758C99.1978 66.632 99.1885 66.4313 99.1698 66.156C99.1511 65.8807 99.0975 65.5773 99.0088 65.246C98.9201 64.91 98.7708 64.588 98.5608 64.28C98.3555 63.972 98.0661 63.7177 97.6928 63.517C97.3195 63.3163 96.8365 63.216 96.2438 63.216C95.6978 63.216 95.2218 63.307 94.8158 63.489C94.4098 63.671 94.0691 63.9137 93.7938 64.217V63.44H92.0998V71ZM103.968 71.21C104.958 71.21 105.732 70.9883 106.292 70.545C106.852 70.1017 107.132 69.4927 107.132 68.718C107.132 68.13 106.95 67.6657 106.586 67.325C106.227 66.9843 105.616 66.702 104.752 66.478C104.164 66.3287 103.726 66.2073 103.436 66.114C103.152 66.0207 102.963 65.9297 102.869 65.841C102.781 65.7523 102.736 65.6427 102.736 65.512C102.736 65.2927 102.841 65.1247 103.051 65.008C103.266 64.8913 103.548 64.8447 103.898 64.868C104.64 64.924 105.046 65.2413 105.116 65.82L107.062 65.47C106.964 64.784 106.628 64.2403 106.054 63.839C105.48 63.433 104.748 63.23 103.856 63.23C102.942 63.23 102.211 63.4447 101.665 63.874C101.119 64.3033 100.846 64.882 100.846 65.61C100.846 66.1887 101.035 66.646 101.413 66.982C101.791 67.3133 102.442 67.598 103.366 67.836C103.912 67.9807 104.314 68.0973 104.57 68.186C104.832 68.2747 105 68.3657 105.074 68.459C105.149 68.5477 105.186 68.6667 105.186 68.816C105.186 69.054 105.093 69.2407 104.906 69.376C104.72 69.5067 104.454 69.572 104.108 69.572C103.688 69.572 103.341 69.4717 103.065 69.271C102.795 69.0703 102.62 68.7927 102.54 68.438L100.594 68.732C100.72 69.5207 101.075 70.132 101.658 70.566C102.246 70.9953 103.016 71.21 103.968 71.21Z" fill="white"/>
<path d="M202.079 51.986H209.135V50.194H205.033L207.287 48.22C207.688 47.87 208.027 47.5573 208.302 47.282C208.577 47.002 208.785 46.6987 208.925 46.372C209.065 46.0407 209.135 45.6253 209.135 45.126C209.135 44.4493 208.986 43.8543 208.687 43.341C208.388 42.8277 207.978 42.4287 207.455 42.144C206.937 41.8547 206.349 41.71 205.691 41.71C204.972 41.71 204.342 41.8477 203.801 42.123C203.26 42.3983 202.837 42.788 202.534 43.292C202.231 43.796 202.079 44.3933 202.079 45.084H204.039C204.03 44.804 204.093 44.545 204.228 44.307C204.363 44.0643 204.552 43.8707 204.795 43.726C205.042 43.5767 205.327 43.502 205.649 43.502C206.111 43.502 206.48 43.6537 206.755 43.957C207.035 44.2557 207.175 44.636 207.175 45.098C207.175 45.3127 207.11 45.5437 206.979 45.791C206.848 46.0383 206.624 46.302 206.307 46.582L202.079 50.334V51.986ZM209.968 52H212.208L213.776 49.676L215.33 52H217.57L214.854 48.178L217.5 44.44H215.26L213.776 46.68L212.264 44.44H210.024L212.67 48.178L209.968 52ZM225.602 52.21C226.414 52.21 227.128 52.0467 227.744 51.72C228.36 51.3887 228.84 50.9243 229.186 50.327C229.531 49.7297 229.704 49.0273 229.704 48.22V41.92H227.772V48.206C227.772 48.64 227.676 49.0227 227.485 49.354C227.293 49.6853 227.034 49.9467 226.708 50.138C226.381 50.3247 226.012 50.418 225.602 50.418C225.2 50.418 224.834 50.327 224.503 50.145C224.176 49.9583 223.915 49.6993 223.719 49.368C223.527 49.0367 223.432 48.6493 223.432 48.206V41.92L221.5 41.934V48.22C221.5 49.0273 221.672 49.7297 222.018 50.327C222.363 50.9243 222.844 51.3887 223.46 51.72C224.076 52.0467 224.79 52.21 225.602 52.21ZM234.612 52.21C235.601 52.21 236.376 51.9883 236.936 51.545C237.496 51.1017 237.776 50.4927 237.776 49.718C237.776 49.13 237.594 48.6657 237.23 48.325C236.87 47.9843 236.259 47.702 235.396 47.478C234.808 47.3287 234.369 47.2073 234.08 47.114C233.795 47.0207 233.606 46.9297 233.513 46.841C233.424 46.7523 233.38 46.6427 233.38 46.512C233.38 46.2927 233.485 46.1247 233.695 46.008C233.909 45.8913 234.192 45.8447 234.542 45.868C235.284 45.924 235.69 46.2413 235.76 46.82L237.706 46.47C237.608 45.784 237.272 45.2403 236.698 44.839C236.124 44.433 235.391 44.23 234.5 44.23C233.585 44.23 232.855 44.4447 232.309 44.874C231.763 45.3033 231.49 45.882 231.49 46.61C231.49 47.1887 231.679 47.646 232.057 47.982C232.435 48.3133 233.086 48.598 234.01 48.836C234.556 48.9807 234.957 49.0973 235.214 49.186C235.475 49.2747 235.643 49.3657 235.718 49.459C235.792 49.5477 235.83 49.6667 235.83 49.816C235.83 50.054 235.736 50.2407 235.55 50.376C235.363 50.5067 235.097 50.572 234.752 50.572C234.332 50.572 233.984 50.4717 233.709 50.271C233.438 50.0703 233.263 49.7927 233.184 49.438L231.238 49.732C231.364 50.5207 231.718 51.132 232.302 51.566C232.89 51.9953 233.66 52.21 234.612 52.21ZM242.828 52.21C243.556 52.21 244.226 52.0187 244.837 51.636C245.453 51.2533 245.903 50.7167 246.188 50.026L244.284 49.48C243.995 50.1147 243.472 50.432 242.716 50.432C242.198 50.432 241.79 50.2873 241.491 49.998C241.197 49.7087 241.015 49.2933 240.945 48.752H246.251C246.33 47.8373 246.237 47.0417 245.971 46.365C245.705 45.6883 245.294 45.1633 244.739 44.79C244.184 44.4167 243.509 44.23 242.716 44.23C241.969 44.23 241.309 44.4003 240.735 44.741C240.161 45.077 239.711 45.5507 239.384 46.162C239.057 46.7733 238.894 47.492 238.894 48.318C238.894 49.074 239.06 49.746 239.391 50.334C239.727 50.9173 240.189 51.377 240.777 51.713C241.37 52.0443 242.053 52.21 242.828 52.21ZM242.8 45.882C243.257 45.882 243.607 45.9963 243.85 46.225C244.097 46.4537 244.256 46.8247 244.326 47.338H240.994C241.195 46.3673 241.797 45.882 242.8 45.882ZM247.832 52H249.75V48.136C249.75 47.2587 250.095 46.6613 250.786 46.344C251.01 46.2367 251.259 46.1737 251.535 46.155C251.815 46.1317 252.06 46.1527 252.27 46.218V44.44C251.929 44.398 251.588 44.4073 251.248 44.468C250.907 44.524 250.599 44.636 250.324 44.804C250.146 44.9067 249.99 45.0303 249.855 45.175C249.724 45.3197 249.61 45.4807 249.512 45.658V44.44H247.832V52ZM191.992 71H193.896V60.92H191.992V71ZM195.981 71H197.913V67.164C197.913 66.6927 197.964 66.3147 198.067 66.03C198.174 65.7453 198.309 65.5307 198.473 65.386C198.636 65.2367 198.811 65.1363 198.998 65.085C199.184 65.0337 199.359 65.008 199.523 65.008C199.929 65.008 200.241 65.099 200.461 65.281C200.685 65.463 200.846 65.6893 200.944 65.96C201.042 66.2307 201.1 66.5013 201.119 66.772C201.137 67.038 201.147 67.2573 201.147 67.43V71H203.079V66.758C203.079 66.632 203.069 66.4313 203.051 66.156C203.032 65.8807 202.978 65.5773 202.89 65.246C202.801 64.91 202.652 64.588 202.442 64.28C202.236 63.972 201.947 63.7177 201.574 63.517C201.2 63.3163 200.717 63.216 200.125 63.216C199.579 63.216 199.103 63.307 198.697 63.489C198.291 63.671 197.95 63.9137 197.675 64.217V63.44H195.981V71ZM209.431 71V69.418C208.983 69.4787 208.575 69.4973 208.206 69.474C207.837 69.4507 207.569 69.306 207.401 69.04C207.312 68.9 207.263 68.7133 207.254 68.48C207.249 68.242 207.247 67.976 207.247 67.682V64.91H209.431V63.44H207.247V61.34H205.343V63.44H204.055V64.91H205.343V67.794C205.343 68.2467 205.348 68.6527 205.357 69.012C205.366 69.3667 205.464 69.7167 205.651 70.062C205.856 70.4307 206.155 70.699 206.547 70.867C206.944 71.0303 207.392 71.1167 207.891 71.126C208.395 71.14 208.908 71.098 209.431 71ZM214.206 71.21C214.934 71.21 215.604 71.0187 216.215 70.636C216.831 70.2533 217.281 69.7167 217.566 69.026L215.662 68.48C215.373 69.1147 214.85 69.432 214.094 69.432C213.576 69.432 213.168 69.2873 212.869 68.998C212.575 68.7087 212.393 68.2933 212.323 67.752H217.629C217.708 66.8373 217.615 66.0417 217.349 65.365C217.083 64.6883 216.672 64.1633 216.117 63.79C215.562 63.4167 214.887 63.23 214.094 63.23C213.347 63.23 212.687 63.4003 212.113 63.741C211.539 64.077 211.089 64.5507 210.762 65.162C210.435 65.7733 210.272 66.492 210.272 67.318C210.272 68.074 210.438 68.746 210.769 69.334C211.105 69.9173 211.567 70.377 212.155 70.713C212.748 71.0443 213.431 71.21 214.206 71.21ZM214.178 64.882C214.635 64.882 214.985 64.9963 215.228 65.225C215.475 65.4537 215.634 65.8247 215.704 66.338H212.372C212.573 65.3673 213.175 64.882 214.178 64.882ZM219.209 71H221.127V67.136C221.127 66.2587 221.473 65.6613 222.163 65.344C222.387 65.2367 222.637 65.1737 222.912 65.155C223.192 65.1317 223.437 65.1527 223.647 65.218V63.44C223.307 63.398 222.966 63.4073 222.625 63.468C222.285 63.524 221.977 63.636 221.701 63.804C221.524 63.9067 221.368 64.0303 221.232 64.175C221.102 64.3197 220.987 64.4807 220.889 64.658V63.44H219.209V71ZM227.023 71H228.927L231.671 63.44H229.767L227.975 68.676L226.183 63.44H224.279L227.023 71ZM233.076 62.39H234.98V60.71H233.076V62.39ZM233.076 71H234.98V63.44H233.076V71ZM240.593 71.21C241.321 71.21 241.99 71.0187 242.602 70.636C243.218 70.2533 243.668 69.7167 243.953 69.026L242.049 68.48C241.759 69.1147 241.237 69.432 240.481 69.432C239.963 69.432 239.554 69.2873 239.256 68.998C238.962 68.7087 238.78 68.2933 238.71 67.752H244.016C244.095 66.8373 244.002 66.0417 243.736 65.365C243.47 64.6883 243.059 64.1633 242.504 63.79C241.948 63.4167 241.274 63.23 240.481 63.23C239.734 63.23 239.074 63.4003 238.5 63.741C237.926 64.077 237.475 64.5507 237.149 65.162C236.822 65.7733 236.659 66.492 236.659 67.318C236.659 68.074 236.824 68.746 237.156 69.334C237.492 69.9173 237.954 70.377 238.542 70.713C239.134 71.0443 239.818 71.21 240.593 71.21ZM240.565 64.882C241.022 64.882 241.372 64.9963 241.615 65.225C241.862 65.4537 242.021 65.8247 242.091 66.338H238.759C238.959 65.3673 239.561 64.882 240.565 64.882ZM246.933 71H248.389L250.041 66.072L251.693 71H253.149L255.459 63.44H253.597L252.225 67.948L250.832 63.44H249.25L247.857 67.948L246.485 63.44L244.623 63.426L246.933 71ZM259.406 71.21C260.395 71.21 261.17 70.9883 261.73 70.545C262.29 70.1017 262.57 69.4927 262.57 68.718C262.57 68.13 262.388 67.6657 262.024 67.325C261.664 66.9843 261.053 66.702 260.19 66.478C259.602 66.3287 259.163 66.2073 258.874 66.114C258.589 66.0207 258.4 65.9297 258.307 65.841C258.218 65.7523 258.174 65.6427 258.174 65.512C258.174 65.2927 258.279 65.1247 258.489 65.008C258.703 64.8913 258.986 64.8447 259.336 64.868C260.078 64.924 260.484 65.2413 260.554 65.82L262.5 65.47C262.402 64.784 262.066 64.2403 261.492 63.839C260.918 63.433 260.185 63.23 259.294 63.23C258.379 63.23 257.649 63.4447 257.103 63.874C256.557 64.3033 256.284 64.882 256.284 65.61C256.284 66.1887 256.473 66.646 256.851 66.982C257.229 67.3133 257.88 67.598 258.804 67.836C259.35 67.9807 259.751 68.0973 260.008 68.186C260.269 68.2747 260.437 68.3657 260.512 68.459C260.586 68.5477 260.624 68.6667 260.624 68.816C260.624 69.054 260.53 69.2407 260.344 69.376C260.157 69.5067 259.891 69.572 259.546 69.572C259.126 69.572 258.778 69.4717 258.503 69.271C258.232 69.0703 258.057 68.7927 257.978 68.438L256.032 68.732C256.158 69.5207 256.512 70.132 257.096 70.566C257.684 70.9953 258.454 71.21 259.406 71.21Z" fill="white"/>
<path d="M357.079 51.986H364.135V50.194H360.033L362.287 48.22C362.688 47.87 363.027 47.5573 363.302 47.282C363.577 47.002 363.785 46.6987 363.925 46.372C364.065 46.0407 364.135 45.6253 364.135 45.126C364.135 44.4493 363.986 43.8543 363.687 43.341C363.388 42.8277 362.978 42.4287 362.455 42.144C361.937 41.8547 361.349 41.71 360.691 41.71C359.972 41.71 359.342 41.8477 358.801 42.123C358.26 42.3983 357.837 42.788 357.534 43.292C357.231 43.796 357.079 44.3933 357.079 45.084H359.039C359.03 44.804 359.093 44.545 359.228 44.307C359.363 44.0643 359.552 43.8707 359.795 43.726C360.042 43.5767 360.327 43.502 360.649 43.502C361.111 43.502 361.48 43.6537 361.755 43.957C362.035 44.2557 362.175 44.636 362.175 45.098C362.175 45.3127 362.11 45.5437 361.979 45.791C361.848 46.0383 361.624 46.302 361.307 46.582L357.079 50.334V51.986ZM364.968 52H367.208L368.776 49.676L370.33 52H372.57L369.854 48.178L372.5 44.44H370.26L368.776 46.68L367.264 44.44H365.024L367.67 48.178L364.968 52ZM380.602 52.21C381.414 52.21 382.128 52.0467 382.744 51.72C383.36 51.3887 383.84 50.9243 384.186 50.327C384.531 49.7297 384.704 49.0273 384.704 48.22V41.92H382.772V48.206C382.772 48.64 382.676 49.0227 382.485 49.354C382.293 49.6853 382.034 49.9467 381.708 50.138C381.381 50.3247 381.012 50.418 380.602 50.418C380.2 50.418 379.834 50.327 379.503 50.145C379.176 49.9583 378.915 49.6993 378.719 49.368C378.527 49.0367 378.432 48.6493 378.432 48.206V41.92L376.5 41.934V48.22C376.5 49.0273 376.672 49.7297 377.018 50.327C377.363 50.9243 377.844 51.3887 378.46 51.72C379.076 52.0467 379.79 52.21 380.602 52.21ZM389.612 52.21C390.601 52.21 391.376 51.9883 391.936 51.545C392.496 51.1017 392.776 50.4927 392.776 49.718C392.776 49.13 392.594 48.6657 392.23 48.325C391.87 47.9843 391.259 47.702 390.396 47.478C389.808 47.3287 389.369 47.2073 389.08 47.114C388.795 47.0207 388.606 46.9297 388.513 46.841C388.424 46.7523 388.38 46.6427 388.38 46.512C388.38 46.2927 388.485 46.1247 388.695 46.008C388.909 45.8913 389.192 45.8447 389.542 45.868C390.284 45.924 390.69 46.2413 390.76 46.82L392.706 46.47C392.608 45.784 392.272 45.2403 391.698 44.839C391.124 44.433 390.391 44.23 389.5 44.23C388.585 44.23 387.855 44.4447 387.309 44.874C386.763 45.3033 386.49 45.882 386.49 46.61C386.49 47.1887 386.679 47.646 387.057 47.982C387.435 48.3133 388.086 48.598 389.01 48.836C389.556 48.9807 389.957 49.0973 390.214 49.186C390.475 49.2747 390.643 49.3657 390.718 49.459C390.792 49.5477 390.83 49.6667 390.83 49.816C390.83 50.054 390.736 50.2407 390.55 50.376C390.363 50.5067 390.097 50.572 389.752 50.572C389.332 50.572 388.984 50.4717 388.709 50.271C388.438 50.0703 388.263 49.7927 388.184 49.438L386.238 49.732C386.364 50.5207 386.718 51.132 387.302 51.566C387.89 51.9953 388.66 52.21 389.612 52.21ZM397.828 52.21C398.556 52.21 399.226 52.0187 399.837 51.636C400.453 51.2533 400.903 50.7167 401.188 50.026L399.284 49.48C398.995 50.1147 398.472 50.432 397.716 50.432C397.198 50.432 396.79 50.2873 396.491 49.998C396.197 49.7087 396.015 49.2933 395.945 48.752H401.251C401.33 47.8373 401.237 47.0417 400.971 46.365C400.705 45.6883 400.294 45.1633 399.739 44.79C399.184 44.4167 398.509 44.23 397.716 44.23C396.969 44.23 396.309 44.4003 395.735 44.741C395.161 45.077 394.711 45.5507 394.384 46.162C394.057 46.7733 393.894 47.492 393.894 48.318C393.894 49.074 394.06 49.746 394.391 50.334C394.727 50.9173 395.189 51.377 395.777 51.713C396.37 52.0443 397.053 52.21 397.828 52.21ZM397.8 45.882C398.257 45.882 398.607 45.9963 398.85 46.225C399.097 46.4537 399.256 46.8247 399.326 47.338H395.994C396.195 46.3673 396.797 45.882 397.8 45.882ZM402.832 52H404.75V48.136C404.75 47.2587 405.095 46.6613 405.786 46.344C406.01 46.2367 406.259 46.1737 406.535 46.155C406.815 46.1317 407.06 46.1527 407.27 46.218V44.44C406.929 44.398 406.588 44.4073 406.248 44.468C405.907 44.524 405.599 44.636 405.324 44.804C405.146 44.9067 404.99 45.0303 404.855 45.175C404.724 45.3197 404.61 45.4807 404.512 45.658V44.44H402.832V52ZM350.913 71H352.817V67.584H355.169C355.262 67.584 355.393 67.5793 355.561 67.57C355.729 67.5607 355.878 67.5467 356.009 67.528C356.905 67.388 357.563 67.0193 357.983 66.422C358.403 65.82 358.613 65.0967 358.613 64.252C358.613 63.4027 358.405 62.6793 357.99 62.082C357.574 61.4847 356.914 61.116 356.009 60.976C355.878 60.9527 355.729 60.9387 355.561 60.934C355.397 60.9247 355.267 60.92 355.169 60.92H350.913V71ZM352.817 65.806V62.698H355.085C355.183 62.698 355.29 62.7027 355.407 62.712C355.523 62.7213 355.631 62.74 355.729 62.768C355.985 62.838 356.184 62.957 356.324 63.125C356.464 63.2883 356.559 63.4727 356.611 63.678C356.667 63.8787 356.695 64.07 356.695 64.252C356.695 64.434 356.667 64.6277 356.611 64.833C356.559 65.0337 356.464 65.218 356.324 65.386C356.184 65.5493 355.985 65.666 355.729 65.736C355.631 65.764 355.523 65.7827 355.407 65.792C355.29 65.8013 355.183 65.806 355.085 65.806H352.817ZM363.395 71.21C364.123 71.21 364.793 71.0187 365.404 70.636C366.02 70.2533 366.471 69.7167 366.755 69.026L364.851 68.48C364.562 69.1147 364.039 69.432 363.283 69.432C362.765 69.432 362.357 69.2873 362.058 68.998C361.764 68.7087 361.582 68.2933 361.512 67.752H366.818C366.898 66.8373 366.804 66.0417 366.538 65.365C366.272 64.6883 365.862 64.1633 365.306 63.79C364.751 63.4167 364.077 63.23 363.283 63.23C362.537 63.23 361.876 63.4003 361.302 63.741C360.728 64.077 360.278 64.5507 359.951 65.162C359.625 65.7733 359.461 66.492 359.461 67.318C359.461 68.074 359.627 68.746 359.958 69.334C360.294 69.9173 360.756 70.377 361.344 70.713C361.937 71.0443 362.621 71.21 363.395 71.21ZM363.367 64.882C363.825 64.882 364.175 64.9963 364.417 65.225C364.665 65.4537 364.823 65.8247 364.893 66.338H361.561C361.762 65.3673 362.364 64.882 363.367 64.882ZM368.399 71H370.317V67.136C370.317 66.2587 370.662 65.6613 371.353 65.344C371.577 65.2367 371.827 65.1737 372.102 65.155C372.382 65.1317 372.627 65.1527 372.837 65.218V63.44C372.496 63.398 372.156 63.4073 371.815 63.468C371.474 63.524 371.166 63.636 370.891 63.804C370.714 63.9067 370.557 64.0303 370.422 64.175C370.291 64.3197 370.177 64.4807 370.079 64.658V63.44H368.399V71ZM376.849 71.21C377.838 71.21 378.613 70.9883 379.173 70.545C379.733 70.1017 380.013 69.4927 380.013 68.718C380.013 68.13 379.831 67.6657 379.467 67.325C379.108 66.9843 378.496 66.702 377.633 66.478C377.045 66.3287 376.606 66.2073 376.317 66.114C376.032 66.0207 375.843 65.9297 375.75 65.841C375.661 65.7523 375.617 65.6427 375.617 65.512C375.617 65.2927 375.722 65.1247 375.932 65.008C376.147 64.8913 376.429 64.8447 376.779 64.868C377.521 64.924 377.927 65.2413 377.997 65.82L379.943 65.47C379.845 64.784 379.509 64.2403 378.935 63.839C378.361 63.433 377.628 63.23 376.737 63.23C375.822 63.23 375.092 63.4447 374.546 63.874C374 64.3033 373.727 64.882 373.727 65.61C373.727 66.1887 373.916 66.646 374.294 66.982C374.672 67.3133 375.323 67.598 376.247 67.836C376.793 67.9807 377.194 68.0973 377.451 68.186C377.712 68.2747 377.88 68.3657 377.955 68.459C378.03 68.5477 378.067 68.6667 378.067 68.816C378.067 69.054 377.974 69.2407 377.787 69.376C377.6 69.5067 377.334 69.572 376.989 69.572C376.569 69.572 376.221 69.4717 375.946 69.271C375.675 69.0703 375.5 68.7927 375.421 68.438L373.475 68.732C373.601 69.5207 373.956 70.132 374.539 70.566C375.127 70.9953 375.897 71.21 376.849 71.21ZM384.953 71.21C385.709 71.21 386.374 71.042 386.948 70.706C387.527 70.3653 387.977 69.8963 388.299 69.299C388.626 68.697 388.789 68.004 388.789 67.22C388.789 66.4407 388.628 65.7523 388.306 65.155C387.984 64.553 387.534 64.0817 386.955 63.741C386.381 63.4003 385.714 63.23 384.953 63.23C384.207 63.23 383.546 63.398 382.972 63.734C382.398 64.07 381.948 64.539 381.621 65.141C381.295 65.7383 381.131 66.4313 381.131 67.22C381.131 67.9993 381.29 68.69 381.607 69.292C381.929 69.8893 382.377 70.3583 382.951 70.699C383.525 71.0397 384.193 71.21 384.953 71.21ZM384.953 69.432C384.361 69.432 383.91 69.2337 383.602 68.837C383.299 68.4357 383.147 67.8967 383.147 67.22C383.147 66.562 383.292 66.03 383.581 65.624C383.875 65.2133 384.333 65.008 384.953 65.008C385.555 65.008 386.008 65.2087 386.311 65.61C386.619 66.0113 386.773 66.548 386.773 67.22C386.773 67.8687 386.622 68.4007 386.318 68.816C386.02 69.2267 385.565 69.432 384.953 69.432ZM390.315 71H392.247V67.164C392.247 66.6927 392.298 66.3147 392.401 66.03C392.508 65.7453 392.643 65.5307 392.807 65.386C392.97 65.2367 393.145 65.1363 393.332 65.085C393.518 65.0337 393.693 65.008 393.857 65.008C394.263 65.008 394.575 65.099 394.795 65.281C395.019 65.463 395.18 65.6893 395.278 65.96C395.376 66.2307 395.434 66.5013 395.453 66.772C395.471 67.038 395.481 67.2573 395.481 67.43V71H397.413V66.758C397.413 66.632 397.403 66.4313 397.385 66.156C397.366 65.8807 397.312 65.5773 397.224 65.246C397.135 64.91 396.986 64.588 396.776 64.28C396.57 63.972 396.281 63.7177 395.908 63.517C395.534 63.3163 395.051 63.216 394.459 63.216C393.913 63.216 393.437 63.307 393.031 63.489C392.625 63.671 392.284 63.9137 392.009 64.217V63.44H390.315V71ZM401.329 71.21C401.912 71.21 402.402 71.1213 402.799 70.944C403.2 70.762 403.569 70.4727 403.905 70.076V71H405.571V66.38C405.571 66.0347 405.557 65.722 405.529 65.442C405.501 65.162 405.412 64.882 405.263 64.602C404.997 64.098 404.605 63.7433 404.087 63.538C403.569 63.3327 402.976 63.23 402.309 63.23C401.399 63.23 400.68 63.426 400.153 63.818C399.626 64.21 399.266 64.7187 399.075 65.344L400.797 65.89C400.918 65.5447 401.131 65.3043 401.434 65.169C401.737 65.0337 402.029 64.966 402.309 64.966C402.757 64.966 403.091 65.05 403.31 65.218C403.529 65.3813 403.658 65.6403 403.695 65.995C402.986 66.0977 402.36 66.198 401.819 66.296C401.278 66.3893 400.825 66.5013 400.461 66.632C399.854 66.856 399.427 67.1617 399.18 67.549C398.933 67.9317 398.809 68.3867 398.809 68.914C398.809 69.334 398.905 69.719 399.096 70.069C399.292 70.4143 399.577 70.692 399.95 70.902C400.328 71.1073 400.788 71.21 401.329 71.21ZM401.735 69.712C401.408 69.712 401.149 69.6397 400.958 69.495C400.767 69.3457 400.671 69.1427 400.671 68.886C400.671 68.6947 400.732 68.5313 400.853 68.396C400.974 68.256 401.175 68.13 401.455 68.018C401.67 67.9387 401.933 67.8663 402.246 67.801C402.563 67.731 403.042 67.6423 403.681 67.535C403.676 67.717 403.662 67.9177 403.639 68.137C403.616 68.3517 403.564 68.5407 403.485 68.704C403.434 68.8113 403.336 68.9443 403.191 69.103C403.051 69.2617 402.86 69.404 402.617 69.53C402.379 69.6513 402.085 69.712 401.735 69.712ZM410.345 71.21C411.334 71.21 412.109 70.9883 412.669 70.545C413.229 70.1017 413.509 69.4927 413.509 68.718C413.509 68.13 413.327 67.6657 412.963 67.325C412.604 66.9843 411.992 66.702 411.129 66.478C410.541 66.3287 410.102 66.2073 409.813 66.114C409.528 66.0207 409.339 65.9297 409.246 65.841C409.157 65.7523 409.113 65.6427 409.113 65.512C409.113 65.2927 409.218 65.1247 409.428 65.008C409.643 64.8913 409.925 64.8447 410.275 64.868C411.017 64.924 411.423 65.2413 411.493 65.82L413.439 65.47C413.341 64.784 413.005 64.2403 412.431 63.839C411.857 63.433 411.124 63.23 410.233 63.23C409.318 63.23 408.588 63.4447 408.042 63.874C407.496 64.3033 407.223 64.882 407.223 65.61C407.223 66.1887 407.412 66.646 407.79 66.982C408.168 67.3133 408.819 67.598 409.743 67.836C410.289 67.9807 410.69 68.0973 410.947 68.186C411.208 68.2747 411.376 68.3657 411.451 68.459C411.526 68.5477 411.563 68.6667 411.563 68.816C411.563 69.054 411.47 69.2407 411.283 69.376C411.096 69.5067 410.83 69.572 410.485 69.572C410.065 69.572 409.717 69.4717 409.442 69.271C409.171 69.0703 408.996 68.7927 408.917 68.438L406.971 68.732C407.097 69.5207 407.452 70.132 408.035 70.566C408.623 70.9953 409.393 71.21 410.345 71.21Z" fill="white"/>
<path d="M509.522 62.21C510.036 62.21 510.533 62.1447 511.013 62.014C511.499 61.8833 511.933 61.6873 512.315 61.426C512.698 61.16 513.001 60.8263 513.225 60.425C513.454 60.019 513.568 59.5453 513.568 59.004C513.568 58.4953 513.473 58.0753 513.281 57.744C513.095 57.4127 512.854 57.1467 512.56 56.946C512.271 56.7407 511.968 56.582 511.65 56.47C511.333 56.3533 511.044 56.26 510.782 56.19L509.032 55.714C508.818 55.658 508.608 55.588 508.402 55.504C508.197 55.42 508.027 55.3103 507.891 55.175C507.756 55.035 507.688 54.8553 507.688 54.636C507.688 54.398 507.77 54.1927 507.933 54.02C508.101 53.8473 508.316 53.7167 508.577 53.628C508.843 53.5347 509.126 53.4927 509.424 53.502C509.882 53.516 510.302 53.6513 510.684 53.908C511.067 54.1647 511.314 54.538 511.426 55.028L513.484 54.678C513.242 53.7307 512.77 53.005 512.07 52.501C511.37 51.997 510.498 51.738 509.452 51.724C508.762 51.7193 508.132 51.8267 507.562 52.046C506.993 52.2653 506.538 52.599 506.197 53.047C505.857 53.495 505.686 54.0573 505.686 54.734C505.686 55.2147 505.766 55.6137 505.924 55.931C506.088 56.2437 506.291 56.4957 506.533 56.687C506.776 56.8783 507.026 57.0253 507.282 57.128C507.544 57.2307 507.772 57.31 507.968 57.366L510.586 58.136C510.978 58.2527 511.24 58.3997 511.37 58.577C511.501 58.7497 511.566 58.9387 511.566 59.144C511.566 59.424 511.471 59.6597 511.279 59.851C511.093 60.0423 510.852 60.187 510.558 60.285C510.264 60.383 509.961 60.432 509.648 60.432C509.088 60.432 508.589 60.2757 508.15 59.963C507.712 59.6503 507.422 59.2047 507.282 58.626L505.294 58.92C505.397 59.6013 505.64 60.1893 506.022 60.684C506.41 61.174 506.902 61.552 507.499 61.818C508.101 62.0793 508.776 62.21 509.522 62.21ZM515.093 62H517.039V58.36L519.657 62H522.135L519.223 58.22L521.953 54.44H519.601L517.039 58.08V51.92H515.107L515.093 62ZM526.209 62.21C526.937 62.21 527.607 62.0187 528.218 61.636C528.834 61.2533 529.284 60.7167 529.569 60.026L527.665 59.48C527.376 60.1147 526.853 60.432 526.097 60.432C525.579 60.432 525.171 60.2873 524.872 59.998C524.578 59.7087 524.396 59.2933 524.326 58.752H529.632C529.711 57.8373 529.618 57.0417 529.352 56.365C529.086 55.6883 528.675 55.1633 528.12 54.79C527.565 54.4167 526.89 54.23 526.097 54.23C525.35 54.23 524.69 54.4003 524.116 54.741C523.542 55.077 523.092 55.5507 522.765 56.162C522.438 56.7733 522.275 57.492 522.275 58.318C522.275 59.074 522.441 59.746 522.772 60.334C523.108 60.9173 523.57 61.377 524.158 61.713C524.751 62.0443 525.434 62.21 526.209 62.21ZM526.181 55.882C526.638 55.882 526.988 55.9963 527.231 56.225C527.478 56.4537 527.637 56.8247 527.707 57.338H524.375C524.576 56.3673 525.178 55.882 526.181 55.882ZM535.748 62V60.418C535.3 60.4787 534.892 60.4973 534.523 60.474C534.155 60.4507 533.886 60.306 533.718 60.04C533.63 59.9 533.581 59.7133 533.571 59.48C533.567 59.242 533.564 58.976 533.564 58.682V55.91H535.748V54.44H533.564V52.34H531.66V54.44H530.372V55.91H531.66V58.794C531.66 59.2467 531.665 59.6527 531.674 60.012C531.684 60.3667 531.782 60.7167 531.968 61.062C532.174 61.4307 532.472 61.699 532.864 61.867C533.261 62.0303 533.709 62.1167 534.208 62.126C534.712 62.14 535.226 62.098 535.748 62ZM540.341 62.21C541.219 62.21 541.956 61.993 542.553 61.559C543.151 61.125 543.557 60.5067 543.771 59.704L541.825 59.298C541.713 59.662 541.545 59.942 541.321 60.138C541.097 60.334 540.771 60.432 540.341 60.432C539.767 60.432 539.333 60.229 539.039 59.823C538.75 59.4123 538.605 58.878 538.605 58.22C538.605 57.59 538.743 57.065 539.018 56.645C539.298 56.2203 539.739 56.008 540.341 56.008C540.691 56.008 541.004 56.1177 541.279 56.337C541.559 56.5563 541.755 56.862 541.867 57.254L543.771 56.75C543.603 55.9707 543.216 55.357 542.609 54.909C542.007 54.4563 541.261 54.23 540.369 54.23C539.599 54.23 538.932 54.4027 538.367 54.748C537.803 55.0933 537.364 55.567 537.051 56.169C536.743 56.771 536.589 57.4547 536.589 58.22C536.589 58.976 536.739 59.655 537.037 60.257C537.336 60.859 537.765 61.335 538.325 61.685C538.885 62.035 539.557 62.21 540.341 62.21ZM545.157 62H547.089V58.164C547.089 57.6927 547.141 57.3147 547.243 57.03C547.351 56.7453 547.486 56.5307 547.649 56.386C547.813 56.2367 547.988 56.1363 548.174 56.085C548.361 56.0337 548.536 56.008 548.699 56.008C549.105 56.008 549.418 56.099 549.637 56.281C549.861 56.463 550.022 56.6893 550.12 56.96C550.218 57.2307 550.277 57.5013 550.295 57.772C550.314 58.038 550.323 58.2573 550.323 58.43V62H552.255V57.758C552.255 57.632 552.246 57.4313 552.227 57.156C552.209 56.8807 552.155 56.5773 552.066 56.246C551.978 55.91 551.828 55.588 551.618 55.28C551.413 54.972 551.124 54.7177 550.75 54.517C550.377 54.3163 549.894 54.216 549.301 54.216C548.755 54.216 548.279 54.307 547.873 54.489C547.467 54.671 547.127 54.9137 546.851 55.217V51.92H545.157V62ZM557.586 62.21C558.314 62.21 558.983 62.0187 559.595 61.636C560.211 61.2533 560.661 60.7167 560.946 60.026L559.042 59.48C558.752 60.1147 558.23 60.432 557.474 60.432C556.956 60.432 556.547 60.2873 556.249 59.998C555.955 59.7087 555.773 59.2933 555.703 58.752H561.009C561.088 57.8373 560.995 57.0417 560.729 56.365C560.463 55.6883 560.052 55.1633 559.497 54.79C558.941 54.4167 558.267 54.23 557.474 54.23C556.727 54.23 556.067 54.4003 555.493 54.741C554.919 55.077 554.468 55.5507 554.142 56.162C553.815 56.7733 553.652 57.492 553.652 58.318C553.652 59.074 553.817 59.746 554.149 60.334C554.485 60.9173 554.947 61.377 555.535 61.713C556.127 62.0443 556.811 62.21 557.586 62.21ZM557.558 55.882C558.015 55.882 558.365 55.9963 558.608 56.225C558.855 56.4537 559.014 56.8247 559.084 57.338H555.752C555.952 56.3673 556.554 55.882 557.558 55.882ZM565.543 62.21C566.533 62.21 567.307 61.9883 567.867 61.545C568.427 61.1017 568.707 60.4927 568.707 59.718C568.707 59.13 568.525 58.6657 568.161 58.325C567.802 57.9843 567.191 57.702 566.327 57.478C565.739 57.3287 565.301 57.2073 565.011 57.114C564.727 57.0207 564.538 56.9297 564.444 56.841C564.356 56.7523 564.311 56.6427 564.311 56.512C564.311 56.2927 564.416 56.1247 564.626 56.008C564.841 55.8913 565.123 55.8447 565.473 55.868C566.215 55.924 566.621 56.2413 566.691 56.82L568.637 56.47C568.539 55.784 568.203 55.2403 567.629 54.839C567.055 54.433 566.323 54.23 565.431 54.23C564.517 54.23 563.786 54.4447 563.24 54.874C562.694 55.3033 562.421 55.882 562.421 56.61C562.421 57.1887 562.61 57.646 562.988 57.982C563.366 58.3133 564.017 58.598 564.941 58.836C565.487 58.9807 565.889 59.0973 566.145 59.186C566.407 59.2747 566.575 59.3657 566.649 59.459C566.724 59.5477 566.761 59.6667 566.761 59.816C566.761 60.054 566.668 60.2407 566.481 60.376C566.295 60.5067 566.029 60.572 565.683 60.572C565.263 60.572 564.916 60.4717 564.64 60.271C564.37 60.0703 564.195 59.7927 564.115 59.438L562.169 59.732C562.295 60.5207 562.65 61.132 563.233 61.566C563.821 61.9953 564.591 62.21 565.543 62.21Z" fill="white"/>
<path d="M831.95 52H833.854V47.842H838.362V52H840.266V41.92H838.362V46.064H833.854V41.92H831.95V52ZM842.371 43.39H844.275V41.71H842.371V43.39ZM842.371 52H844.275V44.44H842.371V52ZM849.44 52.21C849.794 52.21 850.121 52.168 850.42 52.084C850.723 52 850.998 51.881 851.246 51.727V52.49C851.255 52.77 851.183 53.0033 851.029 53.19C850.879 53.3813 850.679 53.5237 850.427 53.617C850.175 53.715 849.906 53.764 849.622 53.764C849.356 53.764 849.108 53.7057 848.88 53.589C848.656 53.4723 848.483 53.302 848.362 53.078L846.598 53.932C846.887 54.422 847.3 54.8163 847.837 55.115C848.373 55.4183 848.964 55.57 849.608 55.57C850.163 55.57 850.679 55.4953 851.155 55.346C851.631 55.2013 852.032 54.9797 852.359 54.681C852.69 54.3823 852.916 54.002 853.038 53.54C853.08 53.3767 853.108 53.211 853.122 53.043C853.14 52.8797 853.15 52.7047 853.15 52.518V44.44H851.484V44.86C851.227 44.6593 850.935 44.5053 850.609 44.398C850.287 44.286 849.93 44.23 849.538 44.23C848.814 44.23 848.184 44.4027 847.648 44.748C847.111 45.0933 846.693 45.567 846.395 46.169C846.101 46.7663 845.954 47.45 845.954 48.22C845.954 48.976 846.098 49.655 846.388 50.257C846.682 50.859 847.09 51.335 847.613 51.685C848.135 52.035 848.744 52.21 849.44 52.21ZM849.748 50.516C849.337 50.516 849.001 50.4133 848.74 50.208C848.478 50.0027 848.285 49.7273 848.159 49.382C848.033 49.032 847.97 48.6447 847.97 48.22C847.97 47.8 848.035 47.4173 848.166 47.072C848.296 46.722 848.497 46.4443 848.768 46.239C849.043 46.029 849.393 45.924 849.818 45.924C850.415 45.924 850.842 46.1363 851.099 46.561C851.355 46.981 851.484 47.534 851.484 48.22C851.484 48.906 851.353 49.4613 851.092 49.886C850.835 50.306 850.387 50.516 849.748 50.516ZM855.096 52H857.028V48.164C857.028 47.6927 857.079 47.3147 857.182 47.03C857.289 46.7453 857.425 46.5307 857.588 46.386C857.751 46.2367 857.926 46.1363 858.113 46.085C858.3 46.0337 858.475 46.008 858.638 46.008C859.044 46.008 859.357 46.099 859.576 46.281C859.8 46.463 859.961 46.6893 860.059 46.96C860.157 47.2307 860.215 47.5013 860.234 47.772C860.253 48.038 860.262 48.2573 860.262 48.43V52H862.194V47.758C862.194 47.632 862.185 47.4313 862.166 47.156C862.147 46.8807 862.094 46.5773 862.005 46.246C861.916 45.91 861.767 45.588 861.557 45.28C861.352 44.972 861.062 44.7177 860.689 44.517C860.316 44.3163 859.833 44.216 859.24 44.216C858.694 44.216 858.218 44.307 857.812 44.489C857.406 44.671 857.065 44.9137 856.79 45.217V41.92H855.096V52ZM822.42 71H824.324V66.912H827.74V65.008H824.324V62.824H828.58V60.92H822.42V71ZM829.984 62.39H831.888V60.71H829.984V62.39ZM829.984 71H831.888V63.44H829.984V71ZM837.053 71.21C837.468 71.21 837.846 71.154 838.187 71.042C838.528 70.93 838.831 70.7713 839.097 70.566V71H840.777V60.92H838.859V63.692C838.626 63.5427 838.364 63.4283 838.075 63.349C837.79 63.2697 837.482 63.23 837.151 63.23C836.428 63.23 835.798 63.4027 835.261 63.748C834.724 64.0933 834.307 64.567 834.008 65.169C833.714 65.7663 833.567 66.45 833.567 67.22C833.567 67.976 833.712 68.655 834.001 69.257C834.295 69.859 834.703 70.335 835.226 70.685C835.749 71.035 836.358 71.21 837.053 71.21ZM837.361 69.516C836.95 69.516 836.614 69.4133 836.353 69.208C836.092 69.0027 835.898 68.7273 835.772 68.382C835.646 68.032 835.583 67.6447 835.583 67.22C835.583 66.8 835.648 66.4173 835.779 66.072C835.91 65.722 836.11 65.4443 836.381 65.239C836.656 65.029 837.006 64.924 837.431 64.924C838.028 64.924 838.455 65.1363 838.712 65.561C838.969 65.981 839.097 66.534 839.097 67.22C839.097 67.906 838.966 68.4613 838.705 68.886C838.448 69.306 838 69.516 837.361 69.516ZM846.251 71.21C846.979 71.21 847.649 71.0187 848.26 70.636C848.876 70.2533 849.326 69.7167 849.611 69.026L847.707 68.48C847.418 69.1147 846.895 69.432 846.139 69.432C845.621 69.432 845.213 69.2873 844.914 68.998C844.62 68.7087 844.438 68.2933 844.368 67.752H849.674C849.753 66.8373 849.66 66.0417 849.394 65.365C849.128 64.6883 848.717 64.1633 848.162 63.79C847.607 63.4167 846.932 63.23 846.139 63.23C845.392 63.23 844.732 63.4003 844.158 63.741C843.584 64.077 843.134 64.5507 842.807 65.162C842.48 65.7733 842.317 66.492 842.317 67.318C842.317 68.074 842.483 68.746 842.814 69.334C843.15 69.9173 843.612 70.377 844.2 70.713C844.793 71.0443 845.476 71.21 846.251 71.21ZM846.223 64.882C846.68 64.882 847.03 64.9963 847.273 65.225C847.52 65.4537 847.679 65.8247 847.749 66.338H844.417C844.618 65.3673 845.22 64.882 846.223 64.882ZM851.394 71H853.298V60.71H851.394V71ZM855.537 62.39H857.441V60.71H855.537V62.39ZM855.537 71H857.441V63.44H855.537V71ZM864.076 71V69.418C863.628 69.4787 863.219 69.4973 862.851 69.474C862.482 69.4507 862.214 69.306 862.046 69.04C861.957 68.9 861.908 68.7133 861.899 68.48C861.894 68.242 861.892 67.976 861.892 67.682V64.91H864.076V63.44H861.892V61.34H859.988V63.44H858.7V64.91H859.988V67.794C859.988 68.2467 859.992 68.6527 860.002 69.012C860.011 69.3667 860.109 69.7167 860.296 70.062C860.501 70.4307 860.8 70.699 861.192 70.867C861.588 71.0303 862.036 71.1167 862.536 71.126C863.04 71.14 863.553 71.098 864.076 71ZM866.521 74.36H868.285L872.555 63.44H870.651L868.677 68.585L866.689 63.44H864.715L867.767 70.937L866.521 74.36Z" fill="white"/>
<path d="M655.131 62H657.007L658.96 55.196L660.913 62H662.789L665.743 51.92H663.741L661.851 58.85L659.961 51.92L657.959 51.934L656.069 58.85L654.179 51.92H652.177L655.131 62ZM666.733 53.39H668.637V51.71H666.733V53.39ZM666.733 62H668.637V54.44H666.733V62ZM670.736 62H672.654V58.136C672.654 57.2587 672.999 56.6613 673.69 56.344C673.914 56.2367 674.164 56.1737 674.439 56.155C674.719 56.1317 674.964 56.1527 675.174 56.218V54.44C674.833 54.398 674.493 54.4073 674.152 54.468C673.811 54.524 673.503 54.636 673.228 54.804C673.051 54.9067 672.894 55.0303 672.759 55.175C672.628 55.3197 672.514 55.4807 672.416 55.658V54.44H670.736V62ZM679.883 62.21C680.611 62.21 681.28 62.0187 681.892 61.636C682.508 61.2533 682.958 60.7167 683.243 60.026L681.339 59.48C681.049 60.1147 680.527 60.432 679.771 60.432C679.253 60.432 678.844 60.2873 678.546 59.998C678.252 59.7087 678.07 59.2933 678 58.752H683.306C683.385 57.8373 683.292 57.0417 683.026 56.365C682.76 55.6883 682.349 55.1633 681.794 54.79C681.238 54.4167 680.564 54.23 679.771 54.23C679.024 54.23 678.364 54.4003 677.79 54.741C677.216 55.077 676.765 55.5507 676.439 56.162C676.112 56.7733 675.949 57.492 675.949 58.318C675.949 59.074 676.114 59.746 676.446 60.334C676.782 60.9173 677.244 61.377 677.832 61.713C678.424 62.0443 679.108 62.21 679.883 62.21ZM679.855 55.882C680.312 55.882 680.662 55.9963 680.905 56.225C681.152 56.4537 681.311 56.8247 681.381 57.338H678.049C678.249 56.3673 678.851 55.882 679.855 55.882ZM685.516 62H687.42V55.91H689.17V54.44H687.42V54.02C687.42 53.81 687.493 53.6303 687.637 53.481C687.782 53.327 688.004 53.25 688.302 53.25H689.17V51.71H688.232C688.05 51.71 687.831 51.7147 687.574 51.724C687.318 51.7287 687.052 51.78 686.776 51.878C686.506 51.9713 686.254 52.1487 686.02 52.41C685.843 52.606 685.719 52.8253 685.649 53.068C685.579 53.3107 685.54 53.5533 685.53 53.796C685.521 54.034 685.516 54.2487 685.516 54.44H684.326V55.91H685.516V62ZM690.287 62H692.205V58.136C692.205 57.2587 692.55 56.6613 693.241 56.344C693.465 56.2367 693.714 56.1737 693.99 56.155C694.27 56.1317 694.515 56.1527 694.725 56.218V54.44C694.384 54.398 694.043 54.4073 693.703 54.468C693.362 54.524 693.054 54.636 692.779 54.804C692.601 54.9067 692.445 55.0303 692.31 55.175C692.179 55.3197 692.065 55.4807 691.967 55.658V54.44H690.287V62ZM698.019 62.21C698.603 62.21 699.093 62.1213 699.489 61.944C699.891 61.762 700.259 61.4727 700.595 61.076V62H702.261V57.38C702.261 57.0347 702.247 56.722 702.219 56.442C702.191 56.162 702.103 55.882 701.953 55.602C701.687 55.098 701.295 54.7433 700.777 54.538C700.259 54.3327 699.667 54.23 698.999 54.23C698.089 54.23 697.371 54.426 696.843 54.818C696.316 55.21 695.957 55.7187 695.765 56.344L697.487 56.89C697.609 56.5447 697.821 56.3043 698.124 56.169C698.428 56.0337 698.719 55.966 698.999 55.966C699.447 55.966 699.781 56.05 700 56.218C700.22 56.3813 700.348 56.6403 700.385 56.995C699.676 57.0977 699.051 57.198 698.509 57.296C697.968 57.3893 697.515 57.5013 697.151 57.632C696.545 57.856 696.118 58.1617 695.87 58.549C695.623 58.9317 695.499 59.3867 695.499 59.914C695.499 60.334 695.595 60.719 695.786 61.069C695.982 61.4143 696.267 61.692 696.64 61.902C697.018 62.1073 697.478 62.21 698.019 62.21ZM698.425 60.712C698.099 60.712 697.84 60.6397 697.648 60.495C697.457 60.3457 697.361 60.1427 697.361 59.886C697.361 59.6947 697.422 59.5313 697.543 59.396C697.665 59.256 697.865 59.13 698.145 59.018C698.36 58.9387 698.624 58.8663 698.936 58.801C699.254 58.731 699.732 58.6423 700.371 58.535C700.367 58.717 700.353 58.9177 700.329 59.137C700.306 59.3517 700.255 59.5407 700.175 59.704C700.124 59.8113 700.026 59.9443 699.881 60.103C699.741 60.2617 699.55 60.404 699.307 60.53C699.069 60.6513 698.775 60.712 698.425 60.712ZM704.068 62H705.986V57.422C705.986 56.988 706.105 56.6357 706.343 56.365C706.585 56.0897 706.905 55.952 707.302 55.952C707.717 55.952 708.041 56.092 708.275 56.372C708.513 56.6473 708.632 57.0347 708.632 57.534V62H710.536V57.422C710.536 56.988 710.655 56.6357 710.893 56.365C711.135 56.0897 711.455 55.952 711.852 55.952C712.267 55.952 712.591 56.092 712.825 56.372C713.063 56.6473 713.182 57.0347 713.182 57.534V62H715.086V57.03C715.086 56.204 714.864 55.5367 714.421 55.028C713.982 54.5147 713.331 54.258 712.468 54.258C711.982 54.258 711.537 54.363 711.131 54.573C710.725 54.783 710.4 55.07 710.158 55.434C709.962 55.0793 709.682 54.7947 709.318 54.58C708.954 54.3653 708.501 54.258 707.96 54.258C707.502 54.258 707.082 54.349 706.7 54.531C706.317 54.7083 706 54.9533 705.748 55.266V54.44H704.068V62ZM720.283 62.21C721.011 62.21 721.681 62.0187 722.292 61.636C722.908 61.2533 723.358 60.7167 723.643 60.026L721.739 59.48C721.45 60.1147 720.927 60.432 720.171 60.432C719.653 60.432 719.245 60.2873 718.946 59.998C718.652 59.7087 718.47 59.2933 718.4 58.752H723.706C723.785 57.8373 723.692 57.0417 723.426 56.365C723.16 55.6883 722.749 55.1633 722.194 54.79C721.639 54.4167 720.964 54.23 720.171 54.23C719.424 54.23 718.764 54.4003 718.19 54.741C717.616 55.077 717.166 55.5507 716.839 56.162C716.512 56.7733 716.349 57.492 716.349 58.318C716.349 59.074 716.515 59.746 716.846 60.334C717.182 60.9173 717.644 61.377 718.232 61.713C718.825 62.0443 719.508 62.21 720.283 62.21ZM720.255 55.882C720.712 55.882 721.062 55.9963 721.305 56.225C721.552 56.4537 721.711 56.8247 721.781 57.338H718.449C718.65 56.3673 719.252 55.882 720.255 55.882ZM728.241 62.21C729.23 62.21 730.005 61.9883 730.565 61.545C731.125 61.1017 731.405 60.4927 731.405 59.718C731.405 59.13 731.223 58.6657 730.859 58.325C730.499 57.9843 729.888 57.702 729.025 57.478C728.437 57.3287 727.998 57.2073 727.709 57.114C727.424 57.0207 727.235 56.9297 727.142 56.841C727.053 56.7523 727.009 56.6427 727.009 56.512C727.009 56.2927 727.114 56.1247 727.324 56.008C727.538 55.8913 727.821 55.8447 728.171 55.868C728.913 55.924 729.319 56.2413 729.389 56.82L731.335 56.47C731.237 55.784 730.901 55.2403 730.327 54.839C729.753 54.433 729.02 54.23 728.129 54.23C727.214 54.23 726.484 54.4447 725.938 54.874C725.392 55.3033 725.119 55.882 725.119 56.61C725.119 57.1887 725.308 57.646 725.686 57.982C726.064 58.3133 726.715 58.598 727.639 58.836C728.185 58.9807 728.586 59.0973 728.843 59.186C729.104 59.2747 729.272 59.3657 729.347 59.459C729.421 59.5477 729.459 59.6667 729.459 59.816C729.459 60.054 729.365 60.2407 729.179 60.376C728.992 60.5067 728.726 60.572 728.381 60.572C727.961 60.572 727.613 60.4717 727.338 60.271C727.067 60.0703 726.892 59.7927 726.813 59.438L724.867 59.732C724.993 60.5207 725.347 61.132 725.931 61.566C726.519 61.9953 727.289 62.21 728.241 62.21Z" fill="white"/>
<circle cx="135" cy="56" r="2" fill="#C4C4C4"/>
<circle cx="141" cy="56" r="2" fill="#C4C4C4"/>
<circle cx="147" cy="56" r="2" fill="#C4C4C4"/>
<circle cx="153" cy="56" r="2" fill="#C4C4C4"/>
<circle cx="159" cy="56" r="2" fill="#C4C4C4"/>
<circle cx="165" cy="56" r="2" fill="#C4C4C4"/>
<circle cx="289" cy="57" r="2" fill="#C4C4C4"/>
<circle cx="445" cy="57" r="2" fill="#C4C4C4"/>
<circle cx="599" cy="57" r="2" fill="#C4C4C4"/>
<circle cx="754" cy="57" r="2" fill="#C4C4C4"/>
<circle cx="295" cy="57" r="2" fill="#C4C4C4"/>
<circle cx="451" cy="57" r="2" fill="#C4C4C4"/>
<circle cx="605" cy="57" r="2" fill="#C4C4C4"/>
<circle cx="760" cy="57" r="2" fill="#C4C4C4"/>
<circle cx="301" cy="57" r="2" fill="#C4C4C4"/>
<circle cx="457" cy="57" r="2" fill="#C4C4C4"/>
<circle cx="611" cy="57" r="2" fill="#C4C4C4"/>
<circle cx="766" cy="57" r="2" fill="#C4C4C4"/>
<circle cx="307" cy="57" r="2" fill="#C4C4C4"/>
<circle cx="463" cy="57" r="2" fill="#C4C4C4"/>
<circle cx="617" cy="57" r="2" fill="#C4C4C4"/>
<circle cx="772" cy="57" r="2" fill="#C4C4C4"/>
<circle cx="313" cy="57" r="2" fill="#C4C4C4"/>
<circle cx="469" cy="57" r="2" fill="#C4C4C4"/>
<circle cx="623" cy="57" r="2" fill="#C4C4C4"/>
<circle cx="778" cy="57" r="2" fill="#C4C4C4"/>
<circle cx="319" cy="57" r="2" fill="#C4C4C4"/>
<circle cx="475" cy="57" r="2" fill="#C4C4C4"/>
<circle cx="629" cy="57" r="2" fill="#C4C4C4"/>
<circle cx="784" cy="57" r="2" fill="#C4C4C4"/>
</svg>
