<?xml version="1.0" encoding="utf-8"?>
<!-- Generator: Adobe Illustrator 25.1.0, SVG Export Plug-In . SVG Version: 6.00 Build 0)  -->
<svg version="1.1" id="Layer_1" xmlns="http://www.w3.org/2000/svg" xmlns:xlink="http://www.w3.org/1999/xlink" x="0px" y="0px"
	 viewBox="0 0 857 615.2" style="enable-background:new 0 0 857 615.2;" xml:space="preserve">
<style type="text/css">
	.st0{fill:#23384B;}
	.st1{fill:#40835C;}
	.st2{fill:#66A1D8;}
	.st3{fill:#78F5AC;}
	.st4{fill:#5EBF86;}
	.st5{fill:#3F6486;}
	.st6{fill:#FFFFFF;}
	.st7{fill:#828282;}
	.st8{fill-rule:evenodd;clip-rule:evenodd;fill:#23384B;}
</style>
<path class="st0" d="M634,76h140c2.2,0,4,1.8,4,4v116c0,2.2-1.8,4-4,4H634c-2.2,0-4-1.8-4-4V80C630,77.8,631.8,76,634,76z"/>
<path class="st1" d="M634,248.5h140c2.2,0,4,1.8,4,4v175.7c0,2.2-1.8,4-4,4H634c-2.2,0-4-1.8-4-4V252.5
	C630,250.3,631.8,248.5,634,248.5z"/>
<path class="st2" d="M85,76h141c2.2,0,4,1.8,4,4v116c0,2.2-1.8,4-4,4H85c-2.2,0-4-1.8-4-4V80C81,77.8,82.8,76,85,76z"/>
<path class="st3" d="M85,248.5h141c2.2,0,4,1.8,4,4v175.7c0,2.2-1.8,4-4,4H85c-2.2,0-4-1.8-4-4V252.5C81,250.3,82.8,248.5,85,248.5z
	"/>
<path class="st4" d="M282,432.2h289c2.2,0,4-1.8,4-4V252.5c0-2.2-1.8-4-4-4H282c-2.2,0-4,1.8-4,4v175.7
	C278,430.4,279.8,432.2,282,432.2z"/>
<path class="st5" d="M282,76h289c2.2,0,4,1.8,4,4v116c0,2.2-1.8,4-4,4H282c-2.2,0-4-1.8-4-4V80C278,77.8,279.8,76,282,76z"/>
<path class="st0" d="M106.5,293.6h2.6l1-3.8h2.2l-1,3.8h2.6l1-3.8h3.5l0.7-2.6h-3.5l0.6-2.1h3.5l0.7-2.5h-3.5l0.9-3.5h-2.6l-0.9,3.5
	H112l0.9-3.5h-2.6l-0.9,3.5h-3.5l-0.7,2.5h3.5l-0.5,2.1h-3.5l-0.7,2.6h3.5L106.5,293.6z M110.8,287.3l0.5-2.1h2.2l-0.6,2.1H110.8z
	 M123.6,293.6h2.9l4.8-11.8v-2.6h-9.1v2.6h6.2L123.6,293.6z M138.6,293.9c1,0,1.8-0.2,2.6-0.6c0.8-0.4,1.4-0.9,1.8-1.6
	c0.4-0.7,0.6-1.5,0.6-2.4c0-0.7-0.1-1.3-0.4-1.9c-0.3-0.6-0.6-1.1-1.1-1.5c0.4-0.4,0.6-0.9,0.8-1.3c0.2-0.5,0.3-1,0.3-1.5
	c0-0.8-0.2-1.6-0.6-2.2c-0.4-0.6-0.9-1.1-1.6-1.4c-0.7-0.3-1.5-0.5-2.4-0.5c-0.9,0-1.7,0.2-2.4,0.5c-0.7,0.3-1.2,0.8-1.6,1.4
	c-0.4,0.6-0.6,1.3-0.6,2.2c0,0.6,0.1,1.1,0.3,1.5c0.2,0.5,0.5,0.9,0.8,1.3c-0.5,0.4-0.9,0.9-1.1,1.5c-0.3,0.6-0.4,1.2-0.4,1.9
	c0,0.9,0.2,1.7,0.6,2.4c0.4,0.7,1,1.2,1.8,1.6C136.8,293.7,137.6,293.9,138.6,293.9z M138.6,284.6c-0.5,0-0.9-0.1-1.3-0.4
	c-0.3-0.3-0.5-0.7-0.5-1.2s0.2-0.9,0.5-1.2c0.3-0.3,0.8-0.4,1.3-0.4c0.5,0,0.9,0.1,1.3,0.4c0.3,0.3,0.5,0.7,0.5,1.2
	s-0.2,0.9-0.5,1.2C139.6,284.5,139.1,284.6,138.6,284.6z M138.6,291.4c-0.6,0-1.2-0.2-1.5-0.5c-0.4-0.3-0.6-0.9-0.6-1.5
	c0-0.7,0.2-1.2,0.6-1.5c0.4-0.4,0.9-0.5,1.5-0.5c0.6,0,1.2,0.2,1.6,0.5c0.4,0.4,0.6,0.9,0.6,1.5c0,0.7-0.2,1.2-0.6,1.5
	C139.8,291.2,139.3,291.4,138.6,291.4z M146.3,293.6h2.7v-5.8h4.9v-2.7H149v-3.1h6.1v-2.7h-8.8V293.6z M161.1,293.9
	c0.9,0,1.7-0.2,2.5-0.6c0.8-0.4,1.4-1,1.9-1.7c0.5-0.7,0.7-1.6,0.7-2.5c0-0.9-0.2-1.7-0.6-2.4c-0.4-0.7-0.9-1.3-1.6-1.7
	c-0.7-0.4-1.5-0.6-2.4-0.6c-0.3,0-0.6,0-1,0.1c-0.4,0.1-0.7,0.2-1,0.4l0.2-3.1h5.5v-2.5h-7.9l-0.4,7.7l2.3,0.7
	c0.2-0.2,0.4-0.3,0.7-0.5c0.3-0.2,0.7-0.3,1.2-0.3c0.4,0,0.8,0.1,1.1,0.3c0.3,0.2,0.6,0.5,0.8,0.8c0.2,0.3,0.3,0.7,0.3,1.1
	c0,0.4-0.1,0.8-0.3,1.1c-0.2,0.3-0.5,0.6-0.8,0.8c-0.3,0.2-0.7,0.3-1.1,0.3c-0.5,0-0.9-0.1-1.3-0.5c-0.4-0.3-0.7-0.7-0.8-1.2
	l-2.6,0.7c0.2,0.7,0.5,1.3,1,1.9s1,1,1.6,1.2C159.7,293.8,160.4,293.9,161.1,293.9z M167.6,293.6h2.8l0.9-3h5.4l0.9,3h2.8l-4.4-14.4
	H172L167.6,293.6z M172.1,288.1l1.9-6.3l2,6.3H172.1z M188.1,293.9c1.7,0,3-0.4,4.2-1.2c1.1-0.8,1.9-1.9,2.4-3.3l-2.7-0.8
	c-0.3,0.9-0.7,1.5-1.4,2c-0.6,0.5-1.5,0.7-2.5,0.7c-1.4,0-2.4-0.4-3.1-1.3c-0.7-0.9-1-2.1-1-3.6s0.3-2.7,1-3.6
	c0.7-0.9,1.7-1.3,3.1-1.3c1,0,1.8,0.2,2.5,0.7c0.6,0.5,1.1,1.2,1.4,2l2.7-0.8c-0.5-1.4-1.3-2.5-2.4-3.3c-1.1-0.8-2.5-1.2-4.2-1.2
	c-1.4,0-2.7,0.3-3.7,0.9c-1,0.6-1.8,1.5-2.4,2.6c-0.6,1.1-0.8,2.4-0.8,3.9c0,1.5,0.3,2.8,0.8,3.9c0.6,1.1,1.4,2,2.4,2.6
	C185.4,293.6,186.6,293.9,188.1,293.9z"/>
<path class="st0" d="M303.2,293.6h2.6l1-3.8h2.2l-1,3.8h2.6l1-3.8h3.5l0.7-2.6h-3.5l0.6-2.1h3.5l0.7-2.5h-3.5l0.9-3.5h-2.6l-0.9,3.5
	h-2.2l0.9-3.5H307l-0.9,3.5h-3.5l-0.7,2.5h3.5l-0.5,2.1h-3.5l-0.7,2.6h3.5L303.2,293.6z M307.5,287.3l0.5-2.1h2.2l-0.6,2.1H307.5z
	 M323.9,293.9c0.9,0,1.7-0.2,2.5-0.6c0.8-0.4,1.4-1,1.9-1.7c0.5-0.7,0.7-1.6,0.7-2.5c0-0.9-0.2-1.7-0.6-2.4
	c-0.4-0.7-0.9-1.3-1.6-1.7c-0.7-0.4-1.5-0.6-2.4-0.6c-0.3,0-0.6,0-1,0.1c-0.4,0.1-0.7,0.2-1,0.4l0.2-3.1h5.5v-2.5h-7.9l-0.4,7.7
	l2.3,0.7c0.2-0.2,0.4-0.3,0.7-0.5c0.3-0.2,0.7-0.3,1.2-0.3c0.4,0,0.8,0.1,1.1,0.3c0.3,0.2,0.6,0.5,0.8,0.8c0.2,0.3,0.3,0.7,0.3,1.1
	c0,0.4-0.1,0.8-0.3,1.1c-0.2,0.3-0.5,0.6-0.8,0.8c-0.3,0.2-0.7,0.3-1.1,0.3c-0.5,0-0.9-0.1-1.3-0.5c-0.4-0.3-0.7-0.7-0.8-1.2
	l-2.6,0.7c0.2,0.7,0.5,1.3,1,1.9c0.5,0.5,1,1,1.6,1.2C322.5,293.8,323.2,293.9,323.9,293.9z M331.4,293.6h9.4v-2.5h-6.7v-3.7h5.5
	v-2.5h-5.5v-3.1h6.7v-2.5h-9.4V293.6z M343.2,293.6h6.4c1.5,0,2.6-0.4,3.3-1.2c0.7-0.8,1.1-1.9,1.1-3.1c0-0.7-0.2-1.3-0.5-1.9
	c-0.3-0.6-0.8-1-1.5-1.3c0.4-0.3,0.8-0.6,1-1.1c0.2-0.5,0.4-1,0.4-1.7c0-0.6-0.1-1.3-0.4-1.9c-0.3-0.6-0.8-1.1-1.4-1.5
	c-0.6-0.4-1.5-0.6-2.5-0.6h-5.8V293.6z M345.9,284.8v-3.1h3c0.5,0,0.9,0.1,1.2,0.4c0.3,0.3,0.4,0.7,0.4,1.1c0,0.5-0.2,0.9-0.5,1.2
	c-0.3,0.2-0.7,0.4-1.1,0.4H345.9z M345.9,291.1v-3.7h3.3c0.6,0,1.1,0.2,1.4,0.5c0.3,0.3,0.5,0.8,0.5,1.3c0,0.6-0.2,1-0.5,1.4
	c-0.4,0.3-0.8,0.5-1.4,0.5H345.9z M355.9,293.6h2.7v-5.8h4.9v-2.7h-4.9v-3.1h6.1v-2.7h-8.8V293.6z M371.3,293.9c1,0,1.8-0.2,2.6-0.6
	c0.8-0.4,1.4-0.9,1.8-1.6c0.4-0.7,0.7-1.5,0.7-2.4c0-0.7-0.1-1.3-0.4-1.9c-0.3-0.6-0.6-1.1-1.1-1.5c0.4-0.4,0.6-0.9,0.8-1.3
	c0.2-0.5,0.3-1,0.3-1.5c0-0.8-0.2-1.6-0.6-2.2c-0.4-0.6-0.9-1.1-1.6-1.4c-0.7-0.3-1.5-0.5-2.4-0.5c-0.9,0-1.7,0.2-2.4,0.5
	c-0.7,0.3-1.2,0.8-1.6,1.4c-0.4,0.6-0.6,1.3-0.6,2.2c0,0.6,0.1,1.1,0.3,1.5c0.2,0.5,0.5,0.9,0.8,1.3c-0.5,0.4-0.9,0.9-1.1,1.5
	c-0.3,0.6-0.4,1.2-0.4,1.9c0,0.9,0.2,1.7,0.6,2.4c0.4,0.7,1,1.2,1.8,1.6C369.5,293.7,370.4,293.9,371.3,293.9z M371.3,284.6
	c-0.5,0-0.9-0.1-1.3-0.4c-0.3-0.3-0.5-0.7-0.5-1.2s0.2-0.9,0.5-1.2c0.3-0.3,0.8-0.4,1.3-0.4c0.5,0,0.9,0.1,1.3,0.4
	c0.3,0.3,0.5,0.7,0.5,1.2s-0.2,0.9-0.5,1.2C372.3,284.5,371.9,284.6,371.3,284.6z M371.3,291.4c-0.6,0-1.2-0.2-1.6-0.5
	c-0.4-0.3-0.6-0.9-0.6-1.5c0-0.7,0.2-1.2,0.6-1.5c0.4-0.4,0.9-0.5,1.6-0.5c0.6,0,1.2,0.2,1.6,0.5c0.4,0.4,0.6,0.9,0.6,1.5
	c0,0.7-0.2,1.2-0.6,1.5C372.5,291.2,372,291.4,371.3,291.4z M384,293.9c0.9,0,1.7-0.2,2.5-0.6c0.8-0.4,1.4-1,1.8-1.7
	c0.5-0.7,0.7-1.6,0.7-2.5c0-0.9-0.2-1.7-0.6-2.4c-0.4-0.7-0.9-1.3-1.6-1.7c-0.7-0.4-1.5-0.6-2.4-0.6c-1,0-1.9,0.3-2.7,0.9V284
	c0-0.4,0.1-0.9,0.3-1.2c0.2-0.4,0.5-0.7,0.9-0.9c0.4-0.2,0.8-0.4,1.4-0.4c0.7,0,1.3,0.3,1.8,0.8l1.9-1.9c-0.5-0.5-1.1-0.8-1.7-1
	s-1.3-0.3-2-0.3c-1.1,0-2,0.2-2.8,0.7c-0.8,0.4-1.4,1.1-1.9,1.9c-0.4,0.8-0.7,1.8-0.7,2.9v4.2c0,1,0.2,2,0.7,2.8
	c0.4,0.8,1,1.4,1.8,1.9C382.2,293.7,383,293.9,384,293.9z M384,291.3c-0.4,0-0.8-0.1-1.1-0.3c-0.3-0.2-0.6-0.5-0.8-0.8
	c-0.2-0.3-0.3-0.7-0.3-1.1c0-0.4,0.1-0.8,0.3-1.1c0.2-0.3,0.5-0.6,0.8-0.8c0.3-0.2,0.7-0.3,1.1-0.3s0.8,0.1,1.1,0.3
	c0.3,0.2,0.6,0.5,0.8,0.8c0.2,0.3,0.3,0.7,0.3,1.1c0,0.4-0.1,0.8-0.3,1.1c-0.2,0.3-0.5,0.6-0.8,0.8
	C384.8,291.2,384.4,291.3,384,291.3z"/>
<path class="st6" d="M655,293.6h2.6l1-3.8h2.2l-1,3.8h2.6l1-3.8h3.5l0.7-2.6h-3.5l0.6-2.1h3.5l0.7-2.5h-3.5l0.9-3.5h-2.6l-0.9,3.5
	h-2.2l0.9-3.5h-2.6l-0.9,3.5h-3.5l-0.7,2.5h3.5l-0.5,2.1h-3.5l-0.7,2.6h3.5L655,293.6z M659.4,287.3l0.5-2.1h2.2l-0.6,2.1H659.4z
	 M677.3,293.6h2.8v-2.2h1.3v-2.5h-1.3v-3.6h-2.8v3.6h-3.1l4.5-9.6h-3.1l-4.5,9.6v2.5h6.3V293.6z M689.1,293.9c1.1,0,2-0.2,2.8-0.7
	c0.8-0.4,1.4-1.1,1.9-1.9s0.7-1.7,0.7-2.8v-4.3c0-1.1-0.2-2-0.7-2.8c-0.4-0.8-1.1-1.4-1.9-1.9c-0.8-0.4-1.7-0.7-2.8-0.7
	c-1.1,0-2,0.2-2.8,0.7c-0.8,0.4-1.4,1.1-1.9,1.9c-0.4,0.8-0.7,1.7-0.7,2.8v4.3c0,1.1,0.2,2,0.7,2.8c0.4,0.8,1.1,1.4,1.9,1.9
	C687.1,293.7,688,293.9,689.1,293.9z M689.1,291.3c-0.5,0-0.9-0.1-1.3-0.3c-0.4-0.2-0.7-0.5-0.9-0.9c-0.2-0.4-0.3-0.8-0.3-1.3V284
	c0-0.5,0.1-0.9,0.3-1.3c0.2-0.4,0.5-0.7,0.9-0.9c0.4-0.2,0.8-0.3,1.3-0.3c0.5,0,0.9,0.1,1.3,0.3s0.7,0.5,0.9,0.9
	c0.2,0.4,0.3,0.8,0.3,1.3v4.7c0,0.5-0.1,0.9-0.3,1.3c-0.2,0.4-0.5,0.7-0.9,0.9C690,291.2,689.6,291.3,689.1,291.3z M702.1,293.9
	c1,0,1.8-0.2,2.6-0.6c0.8-0.4,1.4-0.9,1.8-1.6c0.4-0.7,0.7-1.5,0.7-2.4c0-0.7-0.1-1.3-0.4-1.9c-0.3-0.6-0.6-1.1-1.1-1.5
	c0.4-0.4,0.6-0.9,0.8-1.3c0.2-0.5,0.3-1,0.3-1.5c0-0.8-0.2-1.6-0.6-2.2c-0.4-0.6-0.9-1.1-1.6-1.4c-0.7-0.3-1.5-0.5-2.4-0.5
	c-0.9,0-1.7,0.2-2.4,0.5c-0.7,0.3-1.2,0.8-1.6,1.4c-0.4,0.6-0.6,1.3-0.6,2.2c0,0.6,0.1,1.1,0.3,1.5c0.2,0.5,0.5,0.9,0.8,1.3
	c-0.5,0.4-0.9,1-1.1,1.5c-0.3,0.6-0.4,1.2-0.4,1.9c0,0.9,0.2,1.7,0.6,2.4c0.4,0.7,1,1.2,1.8,1.6
	C700.2,293.7,701.1,293.9,702.1,293.9z M702.1,284.6c-0.5,0-0.9-0.1-1.3-0.4c-0.3-0.3-0.5-0.7-0.5-1.2c0-0.5,0.2-0.9,0.5-1.2
	c0.3-0.3,0.8-0.4,1.3-0.4c0.5,0,0.9,0.1,1.3,0.4c0.3,0.3,0.5,0.7,0.5,1.2c0,0.5-0.2,0.9-0.5,1.2C703,284.5,702.6,284.6,702.1,284.6z
	 M702.1,291.4c-0.6,0-1.2-0.2-1.5-0.5c-0.4-0.3-0.6-0.9-0.6-1.5c0-0.7,0.2-1.2,0.6-1.5c0.4-0.4,0.9-0.5,1.5-0.5s1.2,0.2,1.6,0.5
	c0.4,0.4,0.6,0.9,0.6,1.5c0,0.7-0.2,1.2-0.6,1.5C703.2,291.2,702.7,291.4,702.1,291.4z M713.9,293.9c0.9,0,1.7-0.2,2.5-0.6
	c0.8-0.4,1.4-1,1.8-1.7c0.5-0.7,0.7-1.5,0.7-2.4c0-0.7-0.1-1.3-0.4-1.9c-0.2-0.6-0.6-1.1-1.1-1.6c-0.5-0.5-1-0.8-1.7-1l2.9-2.8v-2.6
	h-9v2.6h5.8l-3.9,3.2l1.2,2.1c0.4-0.2,0.7-0.3,1.1-0.3c0.7,0,1.2,0.2,1.6,0.7c0.4,0.4,0.6,1,0.6,1.6c0,0.4-0.1,0.8-0.3,1.1
	c-0.2,0.3-0.5,0.6-0.8,0.8c-0.3,0.2-0.7,0.3-1.1,0.3c-0.5,0-0.9-0.1-1.3-0.4c-0.4-0.3-0.7-0.7-0.8-1.2l-2.6,0.7
	c0.2,0.7,0.5,1.3,1,1.9c0.5,0.5,1.1,0.9,1.7,1.2C712.5,293.7,713.2,293.9,713.9,293.9z M725.8,293.9c0.9,0,1.8-0.2,2.5-0.6
	c0.8-0.4,1.4-1,1.9-1.7c0.5-0.7,0.7-1.6,0.7-2.5c0-0.9-0.2-1.7-0.6-2.4c-0.4-0.7-0.9-1.3-1.6-1.7c-0.7-0.4-1.5-0.6-2.4-0.6
	c-0.3,0-0.7,0-1,0.1c-0.4,0.1-0.7,0.2-1,0.4l0.2-3.1h5.5v-2.5h-7.9l-0.4,7.7l2.3,0.7c0.2-0.2,0.4-0.3,0.7-0.5
	c0.3-0.2,0.7-0.3,1.2-0.3c0.4,0,0.8,0.1,1.1,0.3c0.4,0.2,0.6,0.5,0.8,0.8c0.2,0.3,0.3,0.7,0.3,1.1c0,0.4-0.1,0.8-0.3,1.1
	c-0.2,0.3-0.5,0.6-0.8,0.8c-0.3,0.2-0.7,0.3-1.1,0.3c-0.5,0-0.9-0.1-1.3-0.5c-0.4-0.3-0.7-0.7-0.8-1.2l-2.6,0.7
	c0.2,0.7,0.5,1.3,1,1.9c0.5,0.5,1,1,1.6,1.2C724.4,293.8,725.1,293.9,725.8,293.9z M739.5,293.9c1.7,0,3-0.4,4.2-1.2
	s1.9-1.9,2.4-3.3l-2.7-0.8c-0.3,0.9-0.7,1.5-1.4,2c-0.6,0.5-1.4,0.7-2.4,0.7c-1.4,0-2.4-0.4-3.1-1.3c-0.7-0.9-1-2.1-1-3.6
	s0.3-2.7,1-3.6c0.7-0.9,1.7-1.4,3.1-1.4c1,0,1.8,0.2,2.4,0.7c0.6,0.5,1.1,1.2,1.4,2l2.7-0.8c-0.5-1.4-1.3-2.5-2.4-3.3
	c-1.1-0.8-2.5-1.2-4.2-1.2c-1.4,0-2.7,0.3-3.7,0.9c-1,0.6-1.9,1.5-2.4,2.6c-0.6,1.1-0.8,2.4-0.8,3.9c0,1.5,0.3,2.8,0.8,3.9
	s1.4,2,2.4,2.6C736.8,293.6,738,293.9,739.5,293.9z"/>
<path class="st6" d="M106.5,116.6h2.6l1-3.8h2.2l-1,3.8h2.6l1-3.8h3.5l0.7-2.6h-3.5l0.6-2.1h3.5l0.7-2.5h-3.5l0.9-3.5h-2.6l-0.9,3.5
	H112l0.9-3.5h-2.6l-0.9,3.5h-3.5l-0.7,2.5h3.5l-0.5,2.1h-3.5l-0.7,2.6h3.5L106.5,116.6z M110.8,110.3l0.5-2.1h2.2l-0.6,2.1H110.8z
	 M127.9,117c0.9,0,1.7-0.2,2.5-0.6c0.8-0.4,1.4-1,1.8-1.7c0.5-0.7,0.7-1.6,0.7-2.5c0-0.9-0.2-1.7-0.6-2.4c-0.4-0.7-0.9-1.3-1.6-1.7
	c-0.7-0.4-1.5-0.6-2.4-0.6c-1,0-1.9,0.3-2.7,0.9v-1.2c0-0.4,0.1-0.9,0.3-1.2c0.2-0.4,0.5-0.7,0.9-0.9c0.4-0.2,0.8-0.4,1.4-0.4
	c0.7,0,1.3,0.3,1.8,0.8l1.9-1.9c-0.5-0.5-1.1-0.8-1.7-1c-0.6-0.2-1.3-0.3-2-0.3c-1.1,0-2,0.2-2.8,0.7c-0.8,0.4-1.4,1.1-1.9,1.9
	c-0.4,0.8-0.7,1.8-0.7,2.9v4.2c0,1,0.2,2,0.7,2.8c0.4,0.8,1,1.4,1.8,1.9C126.1,116.7,127,117,127.9,117z M127.9,114.4
	c-0.4,0-0.8-0.1-1.1-0.3s-0.6-0.5-0.8-0.8c-0.2-0.3-0.3-0.7-0.3-1.1c0-0.4,0.1-0.8,0.3-1.1c0.2-0.3,0.5-0.6,0.8-0.8
	c0.3-0.2,0.7-0.3,1.1-0.3c0.4,0,0.8,0.1,1.1,0.3c0.3,0.2,0.6,0.5,0.8,0.8c0.2,0.3,0.3,0.7,0.3,1.1c0,0.4-0.1,0.8-0.3,1.1
	c-0.2,0.3-0.5,0.6-0.8,0.8C128.7,114.3,128.3,114.4,127.9,114.4z M140.4,117c0.9,0,1.7-0.2,2.5-0.6c0.8-0.4,1.4-1,1.8-1.7
	c0.5-0.7,0.7-1.6,0.7-2.5c0-0.9-0.2-1.7-0.6-2.4c-0.4-0.7-0.9-1.3-1.6-1.7c-0.7-0.4-1.5-0.6-2.4-0.6c-1,0-1.9,0.3-2.7,0.9v-1.2
	c0-0.4,0.1-0.9,0.3-1.2c0.2-0.4,0.5-0.7,0.9-0.9c0.4-0.2,0.8-0.4,1.4-0.4c0.7,0,1.3,0.3,1.8,0.8l1.9-1.9c-0.5-0.5-1.1-0.8-1.7-1
	c-0.6-0.2-1.3-0.3-2-0.3c-1.1,0-2,0.2-2.8,0.7c-0.8,0.4-1.4,1.1-1.9,1.9c-0.4,0.8-0.7,1.8-0.7,2.9v4.2c0,1,0.2,2,0.7,2.8
	c0.4,0.8,1,1.4,1.8,1.9C138.6,116.7,139.4,117,140.4,117z M140.4,114.4c-0.4,0-0.8-0.1-1.1-0.3s-0.6-0.5-0.8-0.8
	c-0.2-0.3-0.3-0.7-0.3-1.1c0-0.4,0.1-0.8,0.3-1.1c0.2-0.3,0.5-0.6,0.8-0.8c0.3-0.2,0.7-0.3,1.1-0.3c0.4,0,0.8,0.1,1.1,0.3
	c0.3,0.2,0.6,0.5,0.8,0.8c0.2,0.3,0.3,0.7,0.3,1.1c0,0.4-0.1,0.8-0.3,1.1c-0.2,0.3-0.5,0.6-0.8,0.8
	C141.2,114.3,140.8,114.4,140.4,114.4z M146.8,116.7h2.8l0.9-3h5.4l0.9,3h2.8l-4.4-14.4h-4.1L146.8,116.7z M151.3,111.1l1.9-6.3
	l1.9,6.3H151.3z M164,116.7h2.8v-14.4H164l-2.7,1.6v3l2.7-1.7V116.7z M170.5,116.7h4.7c0.1,0,0.3,0,0.7,0c0.4,0,0.7,0,1-0.1
	c1.2-0.1,2.1-0.5,2.9-1.2c0.8-0.7,1.4-1.5,1.8-2.5c0.4-1,0.6-2.1,0.6-3.4s-0.2-2.3-0.6-3.4c-0.4-1-1-1.9-1.8-2.5
	c-0.8-0.7-1.8-1.1-2.9-1.2c-0.3,0-0.7-0.1-1-0.1c-0.4,0-0.6,0-0.7,0h-4.7V116.7z M173.3,114.1v-9.3h1.9c0.2,0,0.4,0,0.7,0
	c0.3,0,0.6,0,0.8,0.1c0.6,0.1,1.1,0.4,1.5,0.8c0.4,0.4,0.7,1,0.9,1.6c0.2,0.6,0.3,1.3,0.3,2.1c0,0.7-0.1,1.4-0.3,2
	c-0.2,0.6-0.5,1.2-0.9,1.7c-0.4,0.5-0.9,0.8-1.5,0.9c-0.2,0-0.5,0.1-0.8,0.1c-0.3,0-0.5,0-0.7,0H173.3z M189.6,117
	c1,0,1.8-0.2,2.6-0.6c0.8-0.4,1.4-0.9,1.8-1.6c0.4-0.7,0.6-1.5,0.6-2.4c0-0.7-0.1-1.3-0.4-1.9c-0.3-0.6-0.6-1.1-1.1-1.5
	c0.4-0.4,0.6-0.9,0.8-1.3c0.2-0.5,0.3-1,0.3-1.5c0-0.8-0.2-1.6-0.6-2.2c-0.4-0.6-0.9-1.1-1.6-1.4c-0.7-0.3-1.5-0.5-2.4-0.5
	c-0.9,0-1.7,0.2-2.4,0.5c-0.7,0.3-1.2,0.8-1.6,1.4c-0.4,0.6-0.6,1.3-0.6,2.2c0,0.6,0.1,1.1,0.3,1.5c0.2,0.5,0.5,0.9,0.8,1.3
	c-0.5,0.4-0.9,0.9-1.1,1.5c-0.3,0.6-0.4,1.2-0.4,1.9c0,0.9,0.2,1.7,0.6,2.4c0.4,0.7,1,1.2,1.8,1.6C187.7,116.8,188.6,117,189.6,117z
	 M189.6,107.7c-0.5,0-0.9-0.1-1.3-0.4c-0.3-0.3-0.5-0.7-0.5-1.2s0.2-0.9,0.5-1.2c0.3-0.3,0.8-0.4,1.3-0.4c0.5,0,0.9,0.1,1.3,0.4
	c0.3,0.3,0.5,0.7,0.5,1.2s-0.2,0.9-0.5,1.2C190.5,107.6,190.1,107.7,189.6,107.7z M189.6,114.4c-0.6,0-1.2-0.2-1.6-0.5
	c-0.4-0.3-0.6-0.9-0.6-1.5c0-0.7,0.2-1.2,0.6-1.5c0.4-0.4,0.9-0.5,1.6-0.5c0.6,0,1.2,0.2,1.6,0.5c0.4,0.4,0.6,0.9,0.6,1.5
	c0,0.7-0.2,1.2-0.6,1.5C190.7,114.2,190.2,114.4,189.6,114.4z"/>
<path class="st6" d="M303.2,116.6h2.6l1-3.8h2.2l-1,3.8h2.6l1-3.8h3.5l0.7-2.6h-3.5l0.6-2.1h3.5l0.7-2.5h-3.5l0.9-3.5h-2.6l-0.9,3.5
	h-2.2l0.9-3.5H307l-0.9,3.5h-3.5l-0.7,2.5h3.5l-0.5,2.1h-3.5l-0.7,2.6h3.5L303.2,116.6z M307.5,110.3l0.5-2.1h2.2l-0.6,2.1H307.5z
	 M323.8,116.9c0.9,0,1.7-0.2,2.5-0.6c0.8-0.4,1.4-1,1.8-1.7c0.5-0.7,0.7-1.5,0.7-2.5c0-0.7-0.1-1.3-0.4-1.9
	c-0.2-0.6-0.6-1.1-1.1-1.6c-0.5-0.5-1.1-0.8-1.7-1l2.9-2.8v-2.6h-9v2.6h5.8l-3.9,3.2l1.2,2.1c0.4-0.2,0.7-0.3,1.1-0.3
	c0.7,0,1.2,0.2,1.6,0.7c0.4,0.4,0.6,1,0.6,1.6c0,0.4-0.1,0.8-0.3,1.1c-0.2,0.3-0.5,0.6-0.8,0.8c-0.3,0.2-0.7,0.3-1.1,0.3
	c-0.5,0-0.9-0.1-1.3-0.4c-0.4-0.3-0.7-0.7-0.8-1.2l-2.6,0.7c0.2,0.7,0.5,1.3,1,1.9c0.5,0.5,1.1,0.9,1.7,1.2
	C322.4,116.8,323.1,116.9,323.8,116.9z M331.4,116.7h2.7v-5.8h4.9v-2.7h-4.9V105h6.1v-2.7h-8.8V116.7z M347,117
	c0.9,0,1.7-0.2,2.5-0.6c0.8-0.4,1.4-1,1.8-1.7c0.5-0.7,0.7-1.6,0.7-2.5c0-0.9-0.2-1.7-0.6-2.4c-0.4-0.7-0.9-1.3-1.6-1.7
	c-0.7-0.4-1.5-0.6-2.4-0.6c-1,0-1.9,0.3-2.7,0.9v-1.2c0-0.4,0.1-0.9,0.3-1.2c0.2-0.4,0.5-0.7,0.9-0.9c0.4-0.2,0.8-0.4,1.4-0.4
	c0.7,0,1.3,0.3,1.8,0.8l1.9-1.9c-0.5-0.5-1.1-0.8-1.7-1c-0.6-0.2-1.3-0.3-2-0.3c-1.1,0-2,0.2-2.8,0.7c-0.8,0.4-1.4,1.1-1.9,1.9
	c-0.4,0.8-0.7,1.8-0.7,2.9v4.2c0,1,0.2,2,0.7,2.8c0.4,0.8,1,1.4,1.8,1.9C345.2,116.7,346.1,117,347,117z M347,114.4
	c-0.4,0-0.8-0.1-1.1-0.3c-0.3-0.2-0.6-0.5-0.8-0.8c-0.2-0.3-0.3-0.7-0.3-1.1c0-0.4,0.1-0.8,0.3-1.1c0.2-0.3,0.5-0.6,0.8-0.8
	c0.3-0.2,0.7-0.3,1.1-0.3c0.4,0,0.8,0.1,1.1,0.3c0.3,0.2,0.6,0.5,0.8,0.8c0.2,0.3,0.3,0.7,0.3,1.1c0,0.4-0.1,0.8-0.3,1.1
	c-0.2,0.3-0.5,0.6-0.8,0.8C347.8,114.3,347.5,114.4,347,114.4z M360.3,116.7h2.8v-2.2h1.3v-2.5h-1.3v-3.6h-2.8v3.6h-3.1l4.5-9.6
	h-3.1l-4.5,9.6v2.5h6.3V116.7z M371.6,117c1,0,1.8-0.2,2.6-0.6c0.8-0.4,1.4-0.9,1.8-1.6c0.4-0.7,0.6-1.5,0.6-2.4
	c0-0.7-0.1-1.3-0.4-1.9c-0.3-0.6-0.6-1.1-1.1-1.5c0.4-0.4,0.6-0.9,0.8-1.3c0.2-0.5,0.3-1,0.3-1.5c0-0.8-0.2-1.6-0.6-2.2
	c-0.4-0.6-0.9-1.1-1.6-1.4c-0.7-0.3-1.5-0.5-2.4-0.5s-1.7,0.2-2.4,0.5c-0.7,0.3-1.2,0.8-1.6,1.4c-0.4,0.6-0.6,1.3-0.6,2.2
	c0,0.6,0.1,1.1,0.3,1.5c0.2,0.5,0.5,0.9,0.8,1.3c-0.5,0.4-0.9,0.9-1.1,1.5c-0.3,0.6-0.4,1.2-0.4,1.9c0,0.9,0.2,1.7,0.6,2.4
	c0.4,0.7,1,1.2,1.8,1.6C369.7,116.8,370.6,117,371.6,117z M371.6,107.7c-0.5,0-0.9-0.1-1.3-0.4c-0.3-0.3-0.5-0.7-0.5-1.2
	s0.2-0.9,0.5-1.2c0.3-0.3,0.8-0.4,1.3-0.4s0.9,0.1,1.3,0.4c0.3,0.3,0.5,0.7,0.5,1.2s-0.2,0.9-0.5,1.2
	C372.5,107.6,372.1,107.7,371.6,107.7z M371.6,114.4c-0.6,0-1.2-0.2-1.5-0.5s-0.6-0.9-0.6-1.5c0-0.7,0.2-1.2,0.6-1.5
	c0.4-0.4,0.9-0.5,1.5-0.5s1.2,0.2,1.6,0.5c0.4,0.4,0.6,0.9,0.6,1.5c0,0.7-0.2,1.2-0.6,1.5C372.7,114.2,372.2,114.4,371.6,114.4z
	 M384.2,117c0.9,0,1.7-0.2,2.5-0.6c0.8-0.4,1.4-1,1.8-1.7c0.5-0.7,0.7-1.6,0.7-2.5c0-0.9-0.2-1.7-0.6-2.4c-0.4-0.7-0.9-1.3-1.6-1.7
	c-0.7-0.4-1.5-0.6-2.4-0.6c-1,0-1.9,0.3-2.7,0.9v-1.2c0-0.4,0.1-0.9,0.3-1.2c0.2-0.4,0.5-0.7,0.9-0.9c0.4-0.2,0.8-0.4,1.4-0.4
	c0.7,0,1.3,0.3,1.8,0.8l1.9-1.9c-0.5-0.5-1.1-0.8-1.7-1c-0.6-0.2-1.3-0.3-2-0.3c-1.1,0-2,0.2-2.8,0.7c-0.8,0.4-1.4,1.1-1.9,1.9
	c-0.4,0.8-0.7,1.8-0.7,2.9v4.2c0,1,0.2,2,0.7,2.8c0.4,0.8,1,1.4,1.8,1.9C382.4,116.7,383.3,117,384.2,117z M384.2,114.4
	c-0.4,0-0.8-0.1-1.1-0.3s-0.6-0.5-0.8-0.8c-0.2-0.3-0.3-0.7-0.3-1.1c0-0.4,0.1-0.8,0.3-1.1c0.2-0.3,0.5-0.6,0.8-0.8
	c0.3-0.2,0.7-0.3,1.1-0.3c0.4,0,0.8,0.1,1.1,0.3c0.3,0.2,0.6,0.5,0.8,0.8c0.2,0.3,0.3,0.7,0.3,1.1c0,0.4-0.1,0.8-0.3,1.1
	c-0.2,0.3-0.5,0.6-0.8,0.8C385,114.3,384.7,114.4,384.2,114.4z"/>
<path class="st6" d="M655,116.6h2.6l1-3.8h2.2l-1,3.8h2.6l1-3.8h3.5l0.7-2.6h-3.5l0.6-2.1h3.5l0.7-2.5h-3.5l0.9-3.5h-2.6l-0.9,3.5
	h-2.2l0.9-3.5h-2.6l-0.9,3.5h-3.5l-0.7,2.5h3.5l-0.5,2.1h-3.5l-0.7,2.6h3.5L655,116.6z M659.4,110.3l0.5-2.1h2.2l-0.6,2.1H659.4z
	 M671.1,116.6h10.1v-2.6h-5.9l3.2-2.8c0.6-0.5,1.1-0.9,1.5-1.3c0.4-0.4,0.7-0.8,0.9-1.3c0.2-0.5,0.3-1.1,0.3-1.8
	c0-1-0.2-1.8-0.6-2.5c-0.4-0.7-1-1.3-1.8-1.7c-0.7-0.4-1.6-0.6-2.5-0.6c-1,0-1.9,0.2-2.7,0.6c-0.8,0.4-1.4,1-1.8,1.7
	c-0.4,0.7-0.7,1.6-0.7,2.6h2.8c0-0.4,0.1-0.8,0.3-1.1c0.2-0.3,0.5-0.6,0.8-0.8c0.4-0.2,0.8-0.3,1.2-0.3c0.7,0,1.2,0.2,1.6,0.7
	c0.4,0.4,0.6,1,0.6,1.6c0,0.3-0.1,0.6-0.3,1c-0.2,0.4-0.5,0.7-1,1.1l-6,5.4V116.6z M687.7,116.9c0.9,0,1.7-0.2,2.5-0.6
	c0.8-0.4,1.4-1,1.8-1.7c0.5-0.7,0.7-1.5,0.7-2.5c0-0.7-0.1-1.3-0.4-1.9c-0.2-0.6-0.6-1.1-1.1-1.6c-0.5-0.5-1.1-0.8-1.7-1l2.9-2.8
	v-2.6h-9v2.6h5.8l-3.9,3.2l1.2,2.1c0.4-0.2,0.7-0.3,1.1-0.3c0.7,0,1.2,0.2,1.6,0.7c0.4,0.4,0.6,1,0.6,1.6c0,0.4-0.1,0.8-0.3,1.1
	c-0.2,0.3-0.5,0.6-0.8,0.8c-0.3,0.2-0.7,0.3-1.1,0.3c-0.5,0-0.9-0.1-1.3-0.4c-0.4-0.3-0.7-0.7-0.8-1.2l-2.6,0.7
	c0.2,0.7,0.5,1.3,1,1.9c0.5,0.5,1.1,0.9,1.7,1.2C686.3,116.8,687,116.9,687.7,116.9z M699.5,116.9c0.9,0,1.7-0.2,2.5-0.6
	c0.8-0.4,1.4-1,1.8-1.7c0.5-0.7,0.7-1.5,0.7-2.5c0-0.7-0.1-1.3-0.4-1.9c-0.2-0.6-0.6-1.1-1.1-1.6c-0.5-0.5-1.1-0.8-1.7-1l2.9-2.8
	v-2.6h-9v2.6h5.8l-3.9,3.2l1.2,2.1c0.4-0.2,0.7-0.3,1.1-0.3c0.7,0,1.2,0.2,1.6,0.7c0.4,0.4,0.6,1,0.6,1.6c0,0.4-0.1,0.8-0.3,1.1
	c-0.2,0.3-0.5,0.6-0.8,0.8c-0.3,0.2-0.7,0.3-1.1,0.3c-0.5,0-0.9-0.1-1.3-0.4c-0.4-0.3-0.7-0.7-0.8-1.2l-2.6,0.7
	c0.2,0.7,0.5,1.3,1,1.9c0.5,0.5,1.1,0.9,1.7,1.2C698.1,116.8,698.8,116.9,699.5,116.9z M712,117c1,0,1.8-0.2,2.6-0.6
	c0.8-0.4,1.4-0.9,1.8-1.6c0.4-0.7,0.6-1.5,0.6-2.4c0-0.7-0.1-1.3-0.4-1.9c-0.3-0.6-0.6-1.1-1.1-1.5c0.4-0.4,0.6-0.9,0.8-1.3
	c0.2-0.5,0.3-1,0.3-1.5c0-0.8-0.2-1.6-0.6-2.2c-0.4-0.6-0.9-1.1-1.6-1.4c-0.7-0.3-1.5-0.5-2.4-0.5c-0.9,0-1.7,0.2-2.4,0.5
	c-0.7,0.3-1.2,0.8-1.6,1.4c-0.4,0.6-0.6,1.3-0.6,2.2c0,0.6,0.1,1.1,0.3,1.5c0.2,0.5,0.5,0.9,0.8,1.3c-0.5,0.4-0.9,0.9-1.1,1.5
	c-0.3,0.6-0.4,1.2-0.4,1.9c0,0.9,0.2,1.7,0.6,2.4c0.4,0.7,1,1.2,1.8,1.6C710.1,116.8,711,117,712,117z M712,107.7
	c-0.5,0-0.9-0.1-1.3-0.4c-0.3-0.3-0.5-0.7-0.5-1.2s0.2-0.9,0.5-1.2c0.3-0.3,0.8-0.4,1.3-0.4s0.9,0.1,1.3,0.4
	c0.3,0.3,0.5,0.7,0.5,1.2s-0.2,0.9-0.5,1.2C712.9,107.6,712.5,107.7,712,107.7z M712,114.4c-0.6,0-1.2-0.2-1.5-0.5
	c-0.4-0.3-0.6-0.9-0.6-1.5c0-0.7,0.2-1.2,0.6-1.5c0.4-0.4,0.9-0.5,1.5-0.5s1.2,0.2,1.6,0.5c0.4,0.4,0.6,0.9,0.6,1.5
	c0,0.7-0.2,1.2-0.6,1.5S712.6,114.4,712,114.4z M725.5,116.7h2.8v-2.2h1.3v-2.5h-1.3v-3.6h-2.8v3.6h-3.1l4.5-9.6h-3.1l-4.5,9.6v2.5
	h6.3V116.7z M731.9,116.7h2.4V116c0.4,0.3,0.8,0.5,1.3,0.7c0.5,0.2,1,0.2,1.6,0.2c1,0,1.9-0.2,2.6-0.8s1.3-1.2,1.7-2
	c0.4-0.9,0.6-1.8,0.6-2.9c0-1.1-0.2-2.1-0.6-2.9c-0.4-0.9-1-1.5-1.8-2c-0.8-0.5-1.7-0.7-2.7-0.7c-0.5,0-0.9,0.1-1.3,0.2
	c-0.4,0.1-0.8,0.3-1.1,0.5v-4h-2.7V116.7z M736.8,114.5c-0.9,0-1.5-0.3-1.9-0.9c-0.4-0.6-0.6-1.4-0.6-2.4c0-1,0.2-1.8,0.5-2.4
	c0.4-0.6,1-0.9,1.8-0.9c0.6,0,1.1,0.2,1.5,0.5c0.4,0.3,0.7,0.7,0.9,1.2c0.2,0.5,0.3,1,0.3,1.6c0,0.6-0.1,1.2-0.3,1.7
	c-0.2,0.5-0.5,0.9-0.8,1.2S737.4,114.5,736.8,114.5z"/>
<path class="st7" d="M86.8,504.2c1.2,0,2.1-0.3,2.9-0.8c0.8-0.5,1.4-1.2,1.8-2.1c0.4-0.9,0.6-1.9,0.6-3.1c0-1.2-0.2-2.2-0.6-3.1
	c-0.4-0.9-1-1.6-1.8-2.1c-0.8-0.5-1.8-0.8-2.9-0.8c-1.1,0-2.1,0.3-2.9,0.8c-0.8,0.5-1.4,1.2-1.8,2.1c-0.4,0.9-0.6,1.9-0.6,3.1
	c0,1.2,0.2,2.2,0.6,3.1c0.4,0.9,1,1.6,1.8,2.1C84.7,504,85.7,504.2,86.8,504.2z M86.8,502.9c-0.9,0-1.6-0.2-2.2-0.6
	c-0.6-0.4-1-0.9-1.3-1.6c-0.3-0.7-0.4-1.5-0.4-2.4c0-0.9,0.1-1.7,0.4-2.4c0.3-0.7,0.7-1.2,1.3-1.6c0.6-0.4,1.3-0.6,2.1-0.6
	c0.9,0,1.6,0.2,2.1,0.6c0.6,0.4,1,0.9,1.3,1.6c0.3,0.7,0.4,1.5,0.4,2.4c0,0.9-0.1,1.7-0.4,2.4c-0.3,0.7-0.7,1.2-1.3,1.6
	C88.4,502.7,87.7,502.9,86.8,502.9z M97.1,504.2c1.3,0,2.2-0.4,2.9-1.3v1.1h1.3v-8.6h-1.4v4.6c0,1-0.2,1.7-0.7,2.2
	c-0.4,0.5-1,0.7-1.7,0.7c-0.6,0-1.1-0.2-1.4-0.5c-0.3-0.3-0.6-0.7-0.7-1.2c-0.1-0.5-0.2-1-0.2-1.5v-4.3h-1.4v4.8
	c0,0.4,0,0.9,0.1,1.3c0.1,0.5,0.3,0.9,0.5,1.3c0.3,0.4,0.6,0.8,1.1,1C95.8,504.1,96.4,504.2,97.1,504.2z M108.3,504v-1.2
	c-0.6,0.1-1.1,0.1-1.5,0c-0.4-0.1-0.7-0.3-0.9-0.6c-0.1-0.2-0.2-0.4-0.2-0.6c0-0.3,0-0.6,0-0.9v-4.1h2.6v-1.2h-2.6V493h-1.4v2.4
	h-1.8v1.2h1.8v4.2c0,0.4,0,0.8,0,1.2c0,0.3,0.1,0.7,0.3,1c0.2,0.4,0.5,0.7,0.9,0.9c0.4,0.2,0.8,0.3,1.3,0.3
	C107.3,504.1,107.8,504.1,108.3,504z M110.2,504h1.4v-11.8h-1.4V504z M114.2,493.8h1.4v-1.5h-1.4V493.8z M114.2,504h1.4v-8.6h-1.4
	V504z M118,504h1.4v-4.6c0-1,0.2-1.7,0.6-2.2c0.4-0.5,1-0.7,1.7-0.7c0.6,0,1.1,0.2,1.4,0.5c0.3,0.3,0.6,0.7,0.7,1.2
	c0.1,0.5,0.2,1,0.2,1.5v4.3h1.4v-4.8c0-0.4-0.1-0.9-0.2-1.3c-0.1-0.5-0.3-0.9-0.5-1.3c-0.3-0.4-0.6-0.8-1-1c-0.4-0.3-1-0.4-1.7-0.4
	c-1.3,0-2.2,0.4-2.9,1.3v-1.1H118V504z M131.4,504.2c0.8,0,1.6-0.2,2.3-0.6c0.7-0.4,1.2-1,1.5-1.8l-1.4-0.5c-0.5,1-1.3,1.5-2.5,1.5
	c-0.8,0-1.4-0.2-1.9-0.7c-0.4-0.5-0.7-1.2-0.8-2.1h6.6c0-1-0.1-1.9-0.4-2.6c-0.3-0.7-0.8-1.3-1.4-1.7c-0.6-0.4-1.3-0.6-2.2-0.6
	c-0.8,0-1.6,0.2-2.2,0.6c-0.6,0.4-1.1,0.9-1.5,1.6c-0.3,0.7-0.5,1.5-0.5,2.4c0,0.9,0.2,1.7,0.5,2.4c0.4,0.7,0.8,1.2,1.5,1.6
	C129.8,504.1,130.5,504.2,131.4,504.2z M131.3,496.4c1.5,0,2.3,0.8,2.5,2.5h-5.1c0.1-0.8,0.4-1.4,0.8-1.9
	C130,496.6,130.6,496.4,131.3,496.4z M144,504.2c0.3,0,0.6,0,0.9-0.1c0.3,0,0.6-0.1,0.8-0.2c0.3-0.1,0.6-0.2,0.9-0.4
	c0.3-0.2,0.5-0.4,0.8-0.6l1.2,1.2l0.9-1l-1.5-1.4c0-0.2,0.1-0.4,0.1-0.7c0-0.3,0-0.6,0-1v-1.9h-1.3l0,1.6c0,0.1,0,0.3,0,0.4
	c0,0.1,0,0.3,0,0.4l-3.4-3.2c-0.2-0.1-0.3-0.3-0.4-0.4c-0.1-0.1-0.3-0.3-0.4-0.4c-0.2-0.2-0.3-0.4-0.4-0.6c-0.1-0.2-0.2-0.4-0.2-0.8
	c0-0.7,0.3-1.2,0.9-1.5c0.3-0.2,0.7-0.2,1.1-0.2c0.2,0,0.5,0,0.7,0.1c0.2,0.1,0.5,0.2,0.7,0.3c0.2,0.2,0.4,0.4,0.5,0.7l1.4-0.4
	c-0.1-0.2-0.2-0.5-0.3-0.7s-0.3-0.4-0.5-0.6c-0.3-0.3-0.7-0.5-1.1-0.6c-0.4-0.1-0.9-0.2-1.3-0.2c-0.3,0-0.6,0-0.8,0.1
	c-0.3,0-0.6,0.1-0.8,0.2c-0.6,0.2-1,0.6-1.3,1.1c-0.3,0.5-0.5,1.1-0.5,1.7c0,0.5,0.1,0.9,0.3,1.3c0.2,0.3,0.5,0.7,0.8,1.1
	c-0.2,0.1-0.4,0.2-0.5,0.3c-0.2,0.1-0.3,0.3-0.5,0.4c-0.3,0.3-0.5,0.7-0.6,1.1c-0.1,0.4-0.2,0.8-0.2,1.2c0,0.4,0.1,0.9,0.2,1.2
	c0.1,0.4,0.4,0.7,0.6,1c0.4,0.4,0.8,0.7,1.4,0.9C142.8,504.1,143.4,504.2,144,504.2z M144.1,502.9c-0.4,0-0.8-0.1-1.2-0.2
	s-0.7-0.3-1-0.6c-0.3-0.4-0.5-0.8-0.5-1.4c0-0.5,0.1-1,0.4-1.3c0.2-0.3,0.6-0.5,1-0.6l3.5,3.2c-0.1,0.1-0.2,0.2-0.4,0.3
	c-0.1,0.1-0.3,0.2-0.6,0.4c-0.2,0.1-0.4,0.2-0.6,0.2C144.5,502.9,144.3,502.9,144.1,502.9z M154,504h1.4v-5h4.3v-1.4h-4.3v-3.6h5.3
	v-1.4H154V504z M162.3,493.8h1.4v-1.5h-1.4V493.8z M162.3,504h1.4v-8.6h-1.4V504z M166.3,504h1.4v-11.8h-1.4V504z M170.3,504h1.4
	v-11.8h-1.4V504z M177.5,504h1.4v-11.5h-1.4V504z M184.9,504.2c0.9,0,1.7-0.2,2.3-0.6c0.6-0.4,1.1-1,1.4-1.8l-1.4-0.4
	c-0.4,1-1.2,1.5-2.3,1.5c-0.9,0-1.5-0.3-1.9-0.9c-0.4-0.6-0.7-1.4-0.7-2.3c0-0.9,0.2-1.7,0.6-2.3c0.4-0.6,1.1-0.9,2-0.9
	c0.5,0,1,0.1,1.4,0.4c0.4,0.3,0.7,0.7,0.9,1.2l1.4-0.4c-0.2-0.8-0.7-1.4-1.3-1.8c-0.7-0.4-1.4-0.7-2.3-0.7c-0.9,0-1.6,0.2-2.2,0.6
	c-0.6,0.4-1.1,0.9-1.4,1.6c-0.3,0.7-0.5,1.5-0.5,2.4c0,0.9,0.2,1.7,0.5,2.4c0.3,0.7,0.8,1.2,1.4,1.6
	C183.3,504,184.1,504.2,184.9,504.2z M193.7,504.2c0.9,0,1.6-0.2,2.2-0.6c0.6-0.4,1.1-0.9,1.4-1.6c0.3-0.7,0.5-1.5,0.5-2.4
	c0-0.9-0.2-1.7-0.5-2.4c-0.3-0.7-0.8-1.2-1.4-1.6c-0.6-0.4-1.4-0.6-2.2-0.6c-0.8,0-1.6,0.2-2.2,0.6c-0.6,0.4-1.1,0.9-1.4,1.6
	c-0.3,0.7-0.5,1.5-0.5,2.4c0,0.9,0.2,1.7,0.5,2.4c0.3,0.7,0.8,1.2,1.4,1.6S192.8,504.2,193.7,504.2z M193.7,502.9
	c-0.9,0-1.5-0.3-2-0.9c-0.4-0.6-0.7-1.4-0.7-2.3c0-0.9,0.2-1.7,0.6-2.3c0.4-0.6,1.1-0.9,2-0.9c0.9,0,1.5,0.3,2,0.9
	c0.4,0.6,0.7,1.4,0.7,2.3c0,0.9-0.2,1.7-0.7,2.3C195.3,502.6,194.6,502.9,193.7,502.9z M199.6,504h1.4v-4.6c0-1,0.2-1.7,0.6-2.2
	c0.4-0.5,1-0.7,1.7-0.7c0.6,0,1.1,0.2,1.4,0.5c0.3,0.3,0.6,0.7,0.7,1.2c0.1,0.5,0.2,1,0.2,1.5v4.3h1.4v-4.8c0-0.4-0.1-0.9-0.2-1.3
	c-0.1-0.5-0.3-0.9-0.5-1.3c-0.3-0.4-0.6-0.8-1-1c-0.4-0.3-1-0.4-1.7-0.4c-1.3,0-2.2,0.4-2.9,1.3v-1.1h-1.3V504z M212.6,504.2
	c1.1,0,1.9-0.2,2.5-0.7c0.6-0.5,0.9-1.1,0.9-2c0-0.4-0.1-0.8-0.3-1.1c-0.2-0.3-0.5-0.6-0.9-0.8c-0.4-0.2-1-0.4-1.8-0.6
	c-0.7-0.2-1.2-0.3-1.6-0.5c-0.4-0.1-0.6-0.3-0.7-0.4c-0.1-0.1-0.2-0.3-0.2-0.5c0-0.4,0.2-0.7,0.5-0.9c0.4-0.2,0.8-0.3,1.4-0.3
	c0.6,0,1.1,0.2,1.4,0.4c0.4,0.3,0.6,0.6,0.7,1.1l1.5-0.3c-0.1-0.8-0.5-1.4-1.1-1.8c-0.7-0.5-1.5-0.7-2.5-0.7c-1,0-1.8,0.2-2.4,0.7
	c-0.6,0.5-0.9,1.1-0.9,1.8c0,0.4,0.1,0.8,0.3,1c0.2,0.3,0.5,0.5,0.9,0.8c0.4,0.2,1,0.4,1.8,0.6c0.7,0.2,1.2,0.3,1.6,0.5
	c0.4,0.1,0.6,0.3,0.7,0.4s0.2,0.3,0.2,0.6c0,0.4-0.2,0.8-0.5,1c-0.3,0.2-0.8,0.4-1.4,0.4c-0.6,0-1.1-0.1-1.6-0.4
	c-0.4-0.3-0.7-0.7-0.8-1.1l-1.5,0.2c0.1,0.8,0.6,1.4,1.2,1.9C210.7,504,211.5,504.2,212.6,504.2z"/>
<path class="st7" d="M82.1,50h1.4v-4.3h3.1c0.1,0,0.2,0,0.4,0s0.3,0,0.5,0c0.9-0.1,1.6-0.5,2.1-1.2c0.5-0.7,0.7-1.5,0.7-2.4
	s-0.2-1.7-0.7-2.4c-0.5-0.7-1.2-1.1-2.1-1.2c-0.1,0-0.3,0-0.5,0c-0.1,0-0.3,0-0.4,0h-4.6V50z M83.5,44.4v-4.6h3.1c0.1,0,0.2,0,0.3,0
	c0.1,0,0.3,0,0.4,0.1c0.6,0.1,1,0.4,1.2,0.8c0.2,0.4,0.4,0.9,0.4,1.4s-0.1,0.9-0.4,1.4c-0.2,0.4-0.6,0.7-1.2,0.8
	c-0.1,0-0.2,0-0.4,0.1c-0.1,0-0.2,0-0.3,0H83.5z M91.9,50h1.4v-4.3c0-0.5,0.1-1,0.2-1.5c0.1-0.5,0.4-0.9,0.8-1.2
	c0.3-0.2,0.6-0.3,1-0.4c0.4,0,0.7,0,1,0.1v-1.3c-0.4-0.1-0.8-0.1-1.3,0c-0.5,0.1-0.9,0.3-1.2,0.5c-0.3,0.2-0.5,0.5-0.7,0.8v-1.4
	h-1.3V50z M98.1,39.8h1.4v-1.5h-1.4V39.8z M98.1,50h1.4v-8.6h-1.4V50z M101.9,50h1.4v-5.5c0-0.6,0.2-1.1,0.5-1.5
	c0.3-0.4,0.8-0.6,1.4-0.6s1,0.2,1.4,0.6c0.3,0.4,0.5,0.9,0.5,1.6l0,5.5h1.4l0-5.5c0-0.5,0.1-0.9,0.3-1.2s0.4-0.5,0.7-0.7
	c0.3-0.1,0.6-0.2,0.9-0.2c0.5,0,1,0.2,1.3,0.6c0.3,0.4,0.5,0.9,0.5,1.5l0,5.5h1.4l0-5.8c0-0.9-0.3-1.7-0.8-2.2
	c-0.5-0.5-1.2-0.8-2.1-0.8c-0.6,0-1.1,0.1-1.5,0.4c-0.5,0.3-0.8,0.6-1.1,1c-0.2-0.5-0.6-0.8-1-1c-0.4-0.3-0.9-0.4-1.5-0.4
	c-0.5,0-1,0.1-1.4,0.3c-0.4,0.2-0.8,0.5-1,0.8v-0.9h-1.3V50z M118.2,50.2c1.4,0,2.5-0.5,3.2-1.6V50h1.3v-5.3c0-0.3,0-0.7,0-1
	c0-0.3-0.1-0.6-0.2-0.9c-0.2-0.6-0.7-1-1.2-1.3c-0.6-0.3-1.2-0.4-2-0.4c-1,0-1.8,0.2-2.4,0.6c-0.6,0.4-1,1-1.2,1.8l1.4,0.4
	c0.2-0.5,0.4-0.9,0.8-1.2c0.4-0.2,0.9-0.4,1.4-0.4c0.7,0,1.3,0.2,1.6,0.5c0.3,0.3,0.5,0.8,0.5,1.5c-0.6,0.1-1.3,0.2-2,0.3
	c-0.7,0.1-1.3,0.2-1.9,0.4c-0.7,0.2-1.2,0.5-1.6,0.9c-0.4,0.4-0.6,0.9-0.6,1.6c0,0.5,0.1,0.9,0.3,1.3c0.2,0.4,0.6,0.7,1,0.9
	C117,50.1,117.5,50.2,118.2,50.2z M118.4,49c-0.6,0-1.1-0.1-1.3-0.4c-0.3-0.3-0.4-0.6-0.4-1c0-0.4,0.1-0.7,0.4-0.9
	c0.3-0.2,0.6-0.4,0.9-0.5c0.4-0.1,0.9-0.2,1.5-0.3c0.6-0.1,1.1-0.2,1.8-0.2c0,0.2,0,0.4,0,0.7c0,0.3-0.1,0.5-0.1,0.7
	c-0.1,0.5-0.4,1-0.8,1.4C119.8,48.9,119.2,49,118.4,49z M124.7,50h1.4v-4.3c0-0.5,0.1-1,0.2-1.5c0.1-0.5,0.4-0.9,0.8-1.2
	c0.3-0.2,0.6-0.3,1-0.4c0.4,0,0.7,0,1,0.1v-1.3c-0.4-0.1-0.8-0.1-1.3,0c-0.5,0.1-0.9,0.3-1.2,0.5c-0.3,0.2-0.5,0.5-0.7,0.8v-1.4
	h-1.3V50z M131.7,53.8h1.4l4.7-12.5h-1.4l-2.5,6.8l-2.7-6.8h-1.5l3.5,8.6L131.7,53.8z M147.1,50.2c1.3,0,2.4-0.3,3.3-1
	c0.9-0.7,1.5-1.6,1.8-2.7l-1.4-0.4c-0.2,0.9-0.7,1.5-1.3,2c-0.6,0.5-1.4,0.7-2.4,0.7c-0.9,0-1.6-0.2-2.2-0.6c-0.6-0.4-1-0.9-1.3-1.6
	c-0.3-0.7-0.4-1.5-0.4-2.4c0-0.9,0.2-1.7,0.4-2.4c0.3-0.7,0.7-1.2,1.3-1.6c0.6-0.4,1.3-0.6,2.1-0.6c1,0,1.8,0.2,2.4,0.7
	c0.6,0.5,1,1.2,1.3,2l1.4-0.4c-0.3-1.1-0.9-2.1-1.8-2.7c-0.9-0.7-2-1-3.3-1c-1.1,0-2.1,0.3-2.9,0.8c-0.8,0.5-1.4,1.2-1.8,2.1
	c-0.4,0.9-0.6,1.9-0.6,3.1c0,1.2,0.2,2.2,0.6,3.1c0.4,0.9,1,1.6,1.8,2.1C145,50,145.9,50.2,147.1,50.2z M157.6,50.2
	c0.9,0,1.6-0.2,2.2-0.6c0.6-0.4,1.1-0.9,1.4-1.6c0.3-0.7,0.5-1.5,0.5-2.4c0-0.9-0.2-1.7-0.5-2.4c-0.3-0.7-0.8-1.2-1.4-1.6
	c-0.6-0.4-1.4-0.6-2.2-0.6c-0.8,0-1.6,0.2-2.2,0.6c-0.6,0.4-1.1,0.9-1.4,1.6c-0.3,0.7-0.5,1.5-0.5,2.4c0,0.9,0.2,1.7,0.5,2.4
	c0.3,0.7,0.8,1.2,1.4,1.6C156,50,156.7,50.2,157.6,50.2z M157.6,48.9c-0.9,0-1.5-0.3-2-0.9c-0.4-0.6-0.7-1.4-0.7-2.3
	c0-0.9,0.2-1.7,0.6-2.3c0.4-0.6,1.1-0.9,2-0.9c0.9,0,1.5,0.3,2,0.9c0.4,0.6,0.7,1.4,0.7,2.3c0,0.9-0.2,1.7-0.7,2.3
	C159.2,48.6,158.5,48.9,157.6,48.9z M163.7,50h1.4V38.2h-1.4V50z M171.2,50.2c0.9,0,1.6-0.2,2.2-0.6c0.6-0.4,1.1-0.9,1.4-1.6
	c0.3-0.7,0.5-1.5,0.5-2.4c0-0.9-0.2-1.7-0.5-2.4c-0.3-0.7-0.8-1.2-1.4-1.6c-0.6-0.4-1.4-0.6-2.2-0.6c-0.8,0-1.6,0.2-2.2,0.6
	c-0.6,0.4-1.1,0.9-1.4,1.6c-0.3,0.7-0.5,1.5-0.5,2.4c0,0.9,0.2,1.7,0.5,2.4c0.3,0.7,0.8,1.2,1.4,1.6C169.6,50,170.3,50.2,171.2,50.2
	z M171.2,48.9c-0.9,0-1.5-0.3-2-0.9c-0.4-0.6-0.7-1.4-0.7-2.3c0-0.9,0.2-1.7,0.6-2.3c0.4-0.6,1.1-0.9,2-0.9c0.9,0,1.5,0.3,2,0.9
	c0.4,0.6,0.7,1.4,0.7,2.3c0,0.9-0.2,1.7-0.7,2.3C172.7,48.6,172.1,48.9,171.2,48.9z M177.1,50h1.4v-4.3c0-0.5,0.1-1,0.2-1.5
	c0.1-0.5,0.4-0.9,0.8-1.2c0.3-0.2,0.6-0.3,1-0.4c0.4,0,0.7,0,1,0.1v-1.3c-0.4-0.1-0.8-0.1-1.3,0c-0.5,0.1-0.9,0.3-1.2,0.5
	c-0.3,0.2-0.5,0.5-0.7,0.8v-1.4h-1.3V50z M186,50.2c1.1,0,1.9-0.2,2.5-0.7c0.6-0.5,0.9-1.1,0.9-2c0-0.4-0.1-0.8-0.3-1.1
	c-0.2-0.3-0.5-0.6-0.9-0.8c-0.4-0.2-1-0.4-1.8-0.6c-0.7-0.2-1.2-0.3-1.6-0.5c-0.4-0.1-0.6-0.3-0.7-0.4c-0.1-0.1-0.2-0.3-0.2-0.5
	c0-0.4,0.2-0.7,0.5-0.9c0.4-0.2,0.8-0.3,1.4-0.3c0.6,0,1.1,0.2,1.4,0.4c0.4,0.3,0.6,0.6,0.7,1.1l1.5-0.3c-0.1-0.8-0.5-1.4-1.1-1.8
	c-0.7-0.5-1.5-0.7-2.5-0.7c-1,0-1.8,0.2-2.4,0.7c-0.6,0.5-0.9,1.1-0.9,1.8c0,0.4,0.1,0.8,0.3,1c0.2,0.3,0.5,0.5,0.9,0.8
	c0.4,0.2,1,0.4,1.8,0.6c0.7,0.2,1.2,0.3,1.6,0.5c0.4,0.1,0.6,0.3,0.7,0.4s0.2,0.3,0.2,0.6c0,0.4-0.2,0.8-0.5,1
	c-0.3,0.2-0.8,0.4-1.4,0.4c-0.6,0-1.1-0.1-1.6-0.4c-0.4-0.3-0.7-0.7-0.8-1.1l-1.5,0.2c0.1,0.8,0.6,1.4,1.2,1.9
	C184.2,50,185,50.2,186,50.2z"/>
<path class="st0" d="M287.5,546.1c0.9,6.2,6.8,6.6,10.2,3.8C306.3,538.7,286.4,528.1,287.5,546.1z M288.9,545.3
	c3.1,0.2,7.9-5.4,9.1-1.5C296.3,544.1,288.9,548.1,288.9,545.3z"/>
<path class="st0" d="M307,557.8c-0.5-10.3-10.5-2.2-16.8-4.3c-14.6,10.6,4.6,13.3,11.9,10.1C304.9,562.9,306.8,560.7,307,557.8z
	 M294.8,556C294.7,556,294.7,556,294.8,556C294.8,556,294.8,556,294.8,556z"/>
<path class="st0" d="M93.9,559.4c2.8,1.4,10.2,0.4,6.1-3.1c0.5-3.9,5.5-8-4.3-6.4c-1,0.2-1.1,1.7,0,1.9
	C97.6,555.9,90.9,558.2,93.9,559.4z M94.9,557C94.9,557,94.9,557,94.9,557S94.9,557,94.9,557z M93.7,559.2
	C93.6,559.2,93.7,559.2,93.7,559.2C93.7,559.2,93.6,559.2,93.7,559.2z M99.6,558.9c-0.2-0.1,0.2,0,0.3,0
	C99.9,558.9,99.7,558.9,99.6,558.9z M93.5,559.1c-0.1-0.1-0.1-0.1-0.1-0.2C93.4,559,93.5,559.1,93.5,559.1z"/>
<path class="st0" d="M95.1,544.5c1.9,3.3,6.5,0.9,5.7-2.3C99,539.4,93.6,541.4,95.1,544.5z"/>
<path class="st8" d="M98.3,564.8c8,0,14.4-6.5,14.4-14.4c0-8-6.5-14.4-14.4-14.4c-8,0-14.4,6.5-14.4,14.4
	C83.9,558.4,90.3,564.8,98.3,564.8z M98.3,567.7c9.6,0,17.3-7.8,17.3-17.3c0-9.6-7.8-17.3-17.3-17.3c-9.6,0-17.3,7.8-17.3,17.3
	C81,560,88.7,567.7,98.3,567.7z"/>
<path class="st0" d="M372,545c-4.4-19.8-27.9-6.2-19.1,7.9c-0.4,2.9-13.3,13.1-3.6,11.9c2.7-2.8,5.1-6.3,6.9-9.4
	C362.7,557.9,373.2,553.6,372,545z M351.2,548.3C351.2,548.3,351.2,548.3,351.2,548.3C351.2,548.3,351.2,548.3,351.2,548.3z
	 M364.6,551.8c-8.6,2.7-12.7-6.3-6.2-11.9C366.3,535.9,372,547.6,364.6,551.8z M365,540.1c-0.1-0.1-0.1-0.1-0.2-0.1
	C364.9,540,364.9,540.1,365,540.1z M368.2,553.5C368.2,553.6,368.2,553.6,368.2,553.5C368.2,553.6,368.2,553.6,368.2,553.5z
	 M368.2,553.5C368.3,553.5,368.3,553.5,368.2,553.5C368.3,553.5,368.3,553.5,368.2,553.5z"/>
<path class="st0" d="M428.6,550.2c-0.2-0.9-1-1.8-1.7-2.3c0,0-0.2-0.3-0.6-0.6c-0.1-1.2-0.1-2.3,0-3.5c0.1-0.4,0-1.1,0-1.5
	c0.2-0.1,0.4-0.2,0.5-0.5c1.7-1.7,2.1-5.6,0-7.2c-0.1-0.3-0.3-0.4-0.6-0.4c-0.2,0-0.4,0.1-0.5,0.2c-4.6-1.8-8.1,5.5-2.8,6.9
	c-0.1,2.1-0.1,4.2-0.1,6.4c-3.1-0.1-3.1,6.1-0.1,6.2c0,2-0.1,4.1-0.1,6.1c-0.7,0.1-1.4,0.4-1.9,1.1c-0.1,0-0.2,0.1-0.3,0.1
	c-0.2,0.2-0.3,0.4-0.3,0.6c-0.1,0.1-0.2,0.1-0.3,0.2c-0.1,0.1-0.1,0.2-0.1,0.3c-0.2,0.9-0.3,2,0.5,2.8c0,0.1,0.1,0.1,0.1,0.2
	c0.4,0.4,1,0.9,1.4,1c-0.1,0,0.4,0.3,0.5,0.2c0.4,0.4,1.4,0.4,1.8,0.1c0.1-0.1,0.3-0.1,0.4-0.1c0.2,0.1,0.8,0.2,0.9,0.1
	c3.7-0.2,3.2-5.2,0.1-6c0-1.7-0.1-3.4,0-5.1C427.7,555.1,429.5,552.4,428.6,550.2z M424.9,547.5c0,0,0-0.1,0-0.1
	C424.9,547.4,424.9,547.4,424.9,547.5z"/>
<path class="st0" d="M513.6,550c-0.8-17.8-23.5-16.7-34.3-11.8c-3.1,7.7,2.7,17.5-2.9,24.6c-1.6,3.5,5.8,2.1,6.1-0.8
	C493.5,564.5,512,565.6,513.6,550z M501.5,538.3c15.9,4.1,11.3,29.3-17,19.9C476.1,545.4,483.3,533.2,501.5,538.3z"/>
<path class="st0" d="M489.6,548.8c-1.7-3-5.7-2-4.8,1.7C485.8,553.5,490.9,551.8,489.6,548.8z M488,550c-1.5,1.6-2.4-2.3-0.6-1.1
	C487.4,548.9,488.6,549.3,488,550z"/>
<path class="st0" d="M496.3,549.1c-1.3-2.1-4-1.5-3.9,1.1C492.4,553.5,498,552.1,496.3,549.1z M495,550.2c0.1,0.5-1.2,0.9-1.2,0.1
	C493.9,549.1,494.8,549.6,495,550.2z"/>
<path class="st0" d="M500.7,548.1c-2.5,2.8,2.4,5.7,3.5,2.6C504.6,548.7,502.3,547.2,500.7,548.1z M502.4,550.4
	c-0.5,0.2-1.1,0.1-0.8-0.7C502,548.7,503.4,550,502.4,550.4z"/>
<path class="st0" d="M697.2,546.8c0.2-3.2-2.6-3.6-5.2-3c0.2,1.5,2.1,3,1.9,4.9c0.2,1.4,0.3,3.4-0.2,4.4c-0.2,0.7,0.8,0.5,1.3,0.7
	c0.2,0.1,0.7,0.6,0.8,0C695.9,551.5,697.6,549.4,697.2,546.8z M695.4,544.8C695.4,544.8,695.3,544.7,695.4,544.8
	C695.3,544.7,695.4,544.7,695.4,544.8z M694.4,551.8C694.4,551.8,694.4,551.8,694.4,551.8C694.4,551.8,694.4,551.8,694.4,551.8z
	 M694.3,552.1c-0.1,0-0.1,0.1-0.2,0.1C694.2,552.1,694.3,552.1,694.3,552.1z M694,552.3C694,552.3,694,552.3,694,552.3
	C694,552.3,694,552.3,694,552.3z M694.5,553.4C694.5,553.4,694.5,553.4,694.5,553.4C694.5,553.4,694.5,553.4,694.5,553.4z"/>
<path class="st0" d="M695.5,556c-0.4-3.1-3.4-1.9-2.4,0.9c0,0,0,0.1,0.1,0.1C693.9,558.1,695.7,557.9,695.5,556z M693.1,555
	C693.1,555,693.1,555,693.1,555C693.1,555,693.1,555,693.1,555z M693.1,555.1C693.1,555.1,693,555.1,693.1,555.1
	C693,555.1,693.1,555.1,693.1,555.1z M693,555.1C693,555.1,693,555.1,693,555.1C693,555.1,693,555.1,693,555.1z M695.1,555
	C695.1,555,695.1,555,695.1,555C695.1,555,695.1,555,695.1,555z M693,555.2C693,555.1,693,555.1,693,555.2
	C693,555.1,693,555.1,693,555.2z"/>
<path class="st8" d="M709.7,560.3L694.9,535c-0.3-0.5-1.1-0.5-1.4,0l-14.8,25.3c-0.3,0.5,0.1,1.2,0.7,1.2H709
	C709.6,561.5,710,560.8,709.7,560.3z M696.9,533.8c-1.2-2.1-4.3-2.1-5.5,0l-14.8,25.3c-1.2,2.1,0.3,4.7,2.8,4.7H709
	c2.5,0,4-2.6,2.8-4.7L696.9,533.8z"/>
<path class="st0" d="M756.2,552.2c0.7,0.3,0.8,1,1.1,1.6c-0.3,0.9,2.4,0.9,2.5,0.5c0.5-3,2.1-5.8,4.2-8.1c0.8-1.8,4.4-2.2,3.4-2.9
	c0-1.2-1.7-3.7-3-2.4c-2.8,2-4.6,5.1-5.9,8.2c-0.7-1.1-2.4-1.9-3.7-2.3c-1.6-0.5-0.8,2.7-1.2,3.7c-0.2,0.9,1.1,1.1,1.7,1.3
	C755.5,551.9,755.9,552.1,756.2,552.2z M758,549.7C758,549.7,758,549.7,758,549.7C758,549.7,758,549.8,758,549.7z M763.2,543.8
	c-0.1,0,0.2-0.2,0.2-0.2C763.4,543.7,763.3,543.7,763.2,543.8z M764.6,541.7c0,0,0.1,0,0.1-0.1C764.6,541.7,764.6,541.7,764.6,541.7
	C764.5,541.7,764.6,541.7,764.6,541.7z M765.5,540.7C765.5,540.6,765.5,540.6,765.5,540.7L765.5,540.7z"/>
<path class="st8" d="M760.5,561.8c7.9,0,14.3-6.4,14.3-14.3s-6.4-14.3-14.3-14.3s-14.3,6.4-14.3,14.3S752.6,561.8,760.5,561.8z
	 M760.5,565c9.7,0,17.5-7.8,17.5-17.5s-7.8-17.5-17.5-17.5c-9.7,0-17.5,7.8-17.5,17.5S750.8,565,760.5,565z"/>
<path class="st0" d="M173,554.3c0-0.5,0-1,0-1.5c0-0.4-0.1-0.9-0.2-1.2c0,0,0,0,0,0c0,0,0,0,0,0c0,0,0,0,0,0
	c-0.4-0.8-1.6-0.6-2.3-0.6c-1.2,0.6-0.3,3.4-0.7,4.7c0,0.5-0.2,1.5-0.4,1.7c0,0,0,0.1-0.1,0.1c0,0,0,0,0,0c0,0,0,0,0,0
	c0,0,0.1-0.1,0.1-0.1c-0.1,0.2-0.2,0.4-0.2,0.6c0,0,0,0,0,0c0,0,0,0,0,0c0,0,0,0,0,0c-0.1,0.1-0.2,0.2-0.3,0.3c0,0-0.1,0.1-0.2,0.1
	c-0.4,0.1-0.8,0.2-1.1,0.4c0,0,0,0,0,0c0,0,0,0,0,0c0,0,0,0,0,0c-0.4,0.1-0.8,0.2-1.3,0.2c-0.3,0-0.7,0-1.1,0.1c0,0-0.1,0-0.1,0
	c0,0,0,0,0,0c0,0-0.1,0-0.1,0c-0.3,0-0.6,0-0.9,0.1c-2.2,0.1-4.5-0.4-6.6-0.9c-2.9-0.6-1.5-5-2.3-7c0,0,0-0.1-0.1-0.1c0,0,0,0,0,0
	c-0.1-0.1-0.2-0.2-0.3-0.3c0,0-0.2-0.1-0.1-0.1c-0.3-0.3-0.6-0.2-0.9-0.2c-3.8-0.1-0.3,5.3-0.8,7.5c0,0.1,0,0.2,0,0.2
	c0.1,1,0.5,2,1.3,2.6c0,0,0,0,0,0c0.1,0.1,0.3,0.2,0.5,0.2c0,0,0.1,0,0.1,0.1c0,0,0,0,0,0c0,0,0,0,0,0c0,0,0.1,0.1,0.1,0.1
	c0,0,0,0,0.1,0c0,0,0.1,0.1,0.1,0.1c0,0,0.1,0.1,0.2,0.1c0,0,0,0,0,0c0.1,0,0.2,0.1,0.2,0.1c0,0,0.1,0,0.1,0c0,0,0.1,0,0,0
	c0,0,0.1,0,0.1,0c0,0,0.1,0,0.1,0c0.1,0,0.3,0.1,0.4,0.1c0.2,0,0.4,0,0.6,0.1c0.2,0,0.5,0.1,0.8,0.1c0,0,0.1,0,0.1,0
	c0.3,0,0.7,0,1,0c0,0,0.2,0,0.2,0c0.2,0,0.3,0,0.5,0.1c2.4,0.1,2.3,0.8,2.4,3c0-0.2,0,0.2,0,0c0.1,0.4,0,0.8,0.1,1.1c0,0,0,0,0,0v0
	c0,0,0,0,0,0c0,0,0,0,0,0c0,0,0,0,0,0c0,0,0,0,0,0c0,0.1,0,0.2,0.1,0.2c0.1,0.1,0.1,0.1,0.2,0.1c0.1,0.1,0.3,0.1,0.4,0.1
	c0.4,0,0.8,0,1.2,0c1.4-0.1,0.1-2.8,0.4-3.7c0-0.8,1.5-0.2,2.1-0.4c0.1,0,0.1,0,0.1,0c0,0,0,0,0,0c0.2,0,0.1,0,0.3,0
	c0,0,0.2,0,0.3,0c0.1,0,0.2,0,0.3,0c0.4-0.1,0.9-0.1,1.3-0.2c0.1,0,0.3-0.1,0.3-0.1c0,0,0,0,0,0c0,0,0,0,0,0c0.1,0,0.2-0.1,0.2-0.1
	c0.2-0.1,0.4-0.2,0.6-0.3c0,0-0.1,0-0.1,0C173,560.9,173.3,557.2,173,554.3z M169.2,558C169.2,558,169.2,558,169.2,558
	C169.2,558,169.2,558,169.2,558z M168.9,558.3L168.9,558.3C168.9,558.3,168.9,558.3,168.9,558.3z M170.8,551c0,0-0.1,0-0.1,0
	C170.7,551,170.7,551,170.8,551z M169.5,557.4C169.5,557.3,169.5,557.3,169.5,557.4L169.5,557.4z M169.3,557.8
	C169.3,557.8,169.3,557.8,169.3,557.8L169.3,557.8z M169.3,557.9C169.3,557.9,169.3,557.9,169.3,557.9
	C169.3,557.9,169.3,557.9,169.3,557.9z M167.9,558.6C167.9,558.6,167.9,558.6,167.9,558.6C167.9,558.6,167.9,558.6,167.9,558.6
	C167.9,558.6,167.9,558.6,167.9,558.6z M166.3,559C166.3,559,166.3,559,166.3,559C166.3,559,166.3,559,166.3,559z M166.3,559
	C166.3,559,166.3,559,166.3,559L166.3,559z M164.8,559.1C164.8,559.1,164.7,559.1,164.8,559.1C164.7,559.1,164.8,559.1,164.8,559.1z
	 M164.7,559.1C164.7,559.1,164.7,559.1,164.7,559.1C164.7,559.1,164.7,559.1,164.7,559.1z M164.7,559.1
	C164.7,559.1,164.7,559.1,164.7,559.1C164.7,559.1,164.7,559.1,164.7,559.1C164.7,559.1,164.7,559.1,164.7,559.1z M154.8,550.7
	C154.8,550.7,154.8,550.7,154.8,550.7c0,0-0.1,0-0.1,0C154.8,550.7,154.8,550.7,154.8,550.7z M153.1,558.5
	C153.1,558.6,153.1,558.6,153.1,558.5C153.1,558.6,153.1,558.6,153.1,558.5C153.1,558.6,153.1,558.6,153.1,558.5z M158.4,561.7
	C158.4,561.7,158.4,561.7,158.4,561.7C158.4,561.7,158.4,561.7,158.4,561.7z"/>
<path class="st0" d="M158.9,546.7c0.5,2.9-1.1,7.1,1.1,9.3c0,0,0.1,0,0.1,0c0.8,0.3,1.8,0.2,2.7,0.3c0,0,0,0,0,0c0.2,0,0.4,0,0.6,0
	c0,0,0.2,0,0.2,0c0,0,0,0,0,0c0.2,0,0.3,0,0.5,0c0,0,0,0,0,0c0.1,0,0.2,0,0.2,0c0,0,0.1,0,0.1,0c0.1,0,0.1,0,0.2,0
	c0.1,0,0.2,0,0.3,0c0.2,0,0.5,0,0.6-0.1c0.3-0.1,0.5-0.3,0.7-0.5c0,0,0.1-0.2,0.2-0.2c0,0,0-0.1,0-0.1c0-0.1,0.1-0.2,0.1-0.3
	c0-0.1,0-0.2,0.1-0.3c0-0.1,0.1-0.2,0.1-0.3c0.7-3.1,0.4-6.5,0.2-9.6c0,0,0-0.3,0-0.3c0-0.2,0-0.3-0.1-0.5c0,0,0-0.2-0.1-0.3
	c0,0,0,0.1,0,0.1c0-0.1,0-0.1,0-0.1c0-0.2-0.1-0.5-0.1-0.7c0,0,0,0,0,0c0,0,0-0.1,0-0.1c-0.1-0.3-0.2-0.7-0.3-1c0,0-0.1-0.2-0.1-0.2
	c0-0.1-0.1-0.3-0.2-0.4c0-0.1-0.1-0.2-0.2-0.3c-0.1-0.1-0.1-0.2-0.2-0.2c0.1,0.1-0.2-0.2-0.1-0.1c-0.2-0.1-0.1-0.2-0.4-0.2
	c0.3,0.1-0.2-0.1-0.2-0.1c-0.1,0-0.1-0.1-0.2-0.1c0.1,0-0.1-0.1-0.1,0c-0.2-0.2-0.4-0.3-0.7-0.4c0.1,0-0.3-0.1-0.2,0c0,0-0.1,0,0,0
	c-0.1,0-0.1,0-0.2,0c0.3,0.1,0,0-0.1,0c-0.5,0-1,0-1.4,0c-1.8-0.1-2.5,1.9-3,3.4c0,0,0,0,0,0c0,0,0,0.1,0,0.2c0,0,0,0.1,0,0.2
	c0,0,0,0.2,0,0.1c-0.2,0.4-0.2,1-0.2,1.4c0,0,0,0.1,0,0.1c0,0.1,0,0.1,0,0.2c0,0,0,0.2,0,0.1C158.9,545.9,159,546.3,158.9,546.7z
	 M163.5,556.4C163.5,556.4,163.5,556.4,163.5,556.4L163.5,556.4z M165.7,556.2C165.7,556.2,165.7,556.2,165.7,556.2
	C165.7,556.2,165.7,556.2,165.7,556.2z M166.7,554.8C166.7,554.8,166.7,554.8,166.7,554.8C166.7,554.8,166.7,554.8,166.7,554.8
	C166.7,554.8,166.7,554.8,166.7,554.8z M166.7,554.8C166.7,554.8,166.7,554.8,166.7,554.8L166.7,554.8z M166.7,554.8
	C166.7,554.8,166.7,554.8,166.7,554.8C166.7,554.8,166.7,554.8,166.7,554.8z M166.9,543.8C166.9,543.8,166.9,543.8,166.9,543.8
	C166.9,543.8,166.9,543.7,166.9,543.8z M165.1,540.3C165.1,540.3,165.1,540.3,165.1,540.3L165.1,540.3z M164.9,540.2L164.9,540.2
	C164.9,540.2,164.9,540.2,164.9,540.2z M164.8,540.2C164.8,540.2,164.8,540.2,164.8,540.2C164.8,540.2,164.8,540.2,164.8,540.2z
	 M164.8,540.1C164.8,540.1,164.8,540.1,164.8,540.1C164.8,540.1,164.8,540.1,164.8,540.1C164.8,540.1,164.8,540.1,164.8,540.1z
	 M164.7,540.1C164.8,540.2,164.7,540.1,164.7,540.1C164.7,540.1,164.7,540.1,164.7,540.1C164.7,540.1,164.7,540.1,164.7,540.1z
	 M164.2,539.8C164.2,539.8,164.2,539.8,164.2,539.8C164.2,539.8,164.2,539.8,164.2,539.8z M164.1,539.8
	C164.1,539.8,164.1,539.8,164.1,539.8C164.1,539.8,164.1,539.8,164.1,539.8z M159.2,543.1C159.2,543.1,159.2,543.1,159.2,543.1
	C159.2,543.1,159.2,543.2,159.2,543.1C159.2,543.2,159.2,543.2,159.2,543.1z M159.1,543.6C159.1,543.6,159.1,543.6,159.1,543.6
	C159.2,543.6,159.1,543.6,159.1,543.6C159.1,543.6,159.1,543.6,159.1,543.6z"/>
<path class="st0" d="M149.1,538.8l1.4-1.4c0.1-0.1,0.3-0.1,0.4,0l25.4,25.4c0.1,0.1,0.1,0.3,0,0.4l-1.4,1.4c-0.1,0.1-0.3,0.1-0.4,0
	l-25.4-25.4C149,539.1,149,538.9,149.1,538.8z"/>
<path class="st6" d="M150.9,537.1l1.4-1.4c0.1-0.1,0.3-0.1,0.4,0l25.4,25.4c0.1,0.1,0.1,0.3,0,0.4l-1.4,1.4c-0.1,0.1-0.3,0.1-0.4,0
	l-25.4-25.4C150.8,537.4,150.8,537.2,150.9,537.1z"/>
<path class="st0" d="M239.8,554.9c0-0.5,0-1.1,0-1.6c0-0.4-0.1-0.9-0.2-1.3c0,0,0,0,0,0c0,0,0,0,0,0c0,0,0,0,0,0
	c-0.4-0.9-1.7-0.7-2.5-0.7c-1.3,0.7-0.4,3.6-0.7,5c0,0.6-0.2,1.6-0.4,1.8c0,0,0,0.1-0.1,0.1c0,0,0,0,0,0c0,0,0,0,0,0
	c0,0,0.1-0.1,0.1-0.1c-0.1,0.2-0.2,0.4-0.3,0.6c0,0,0,0,0,0c0,0,0,0,0,0c0,0,0,0,0,0.1c-0.1,0.1-0.3,0.2-0.3,0.3
	c0,0-0.1,0.1-0.2,0.1c-0.4,0.1-0.8,0.2-1.2,0.4c0,0,0,0,0,0c0,0,0,0,0,0c0,0,0,0,0,0c-0.5,0.1-0.9,0.2-1.4,0.3c-0.4,0-0.8,0-1.1,0.1
	c0,0-0.1,0-0.1,0c0,0,0,0,0,0c0,0-0.1,0-0.1,0c-0.3,0-0.7,0-1,0.1c-2.3,0.1-4.8-0.4-7.1-1c-3.1-0.6-1.7-5.3-2.4-7.6
	c0,0-0.1-0.1-0.1-0.1c0,0,0,0,0,0c-0.1-0.2-0.2-0.3-0.4-0.4c0,0-0.2-0.1-0.2-0.1c-0.3-0.3-0.6-0.2-1-0.2c-4-0.1-0.3,5.7-0.9,8.1
	c0,0.1,0,0.2,0,0.2c0.1,1.1,0.5,2.2,1.4,2.8c0,0,0,0,0,0c0.1,0.1,0.3,0.2,0.5,0.3c0,0,0.1,0,0.1,0.1c0,0,0,0,0,0c0,0,0,0,0,0
	c0,0,0.1,0.1,0.1,0.1c0,0,0,0,0.1,0c0,0,0.1,0.1,0.1,0.1c0,0,0.2,0.1,0.2,0.1c0,0,0,0,0,0c0.1,0,0.2,0.1,0.2,0.1c0,0,0.1,0,0.1,0
	c0,0,0.1,0,0.1,0c0,0,0.1,0,0.1,0c0,0,0.1,0,0.1,0c0.1,0,0.3,0.1,0.4,0.1c0.2,0,0.4,0,0.6,0.1c0.3,0,0.6,0.1,0.8,0.1
	c0,0,0.1,0,0.1,0c0.4,0,0.7,0,1.1,0c0,0,0.2,0,0.2,0c0.2,0,0.4,0,0.6,0.1c2.5,0.1,2.5,0.9,2.6,3.2c0-0.2,0,0.2,0,0
	c0.1,0.4,0,0.8,0.1,1.2c0,0,0,0,0,0v0c0,0,0,0,0,0c0,0,0,0,0,0c0,0,0,0,0,0c0,0,0,0,0,0c0,0.1,0.1,0.2,0.1,0.2
	c0.1,0.1,0.1,0.1,0.2,0.2c0.1,0.1,0.3,0.1,0.4,0.1c0.4,0,0.9,0,1.3,0c1.5-0.1,0.1-3,0.4-4c0-0.9,1.6-0.2,2.3-0.4c0.1,0,0.1,0,0.1,0
	c0,0,0,0,0,0c0.2,0,0.1,0,0.3,0c0,0,0.2,0,0.3,0c0.1,0,0.3,0,0.4,0c0.5-0.1,1-0.1,1.4-0.2c0.1,0,0.3-0.1,0.4-0.1c0,0,0,0,0,0
	c0,0,0,0,0,0c0.1,0,0.2-0.1,0.2-0.1c0.2-0.1,0.5-0.2,0.7-0.3c0,0-0.1,0-0.1,0C239.8,562,240.2,557.9,239.8,554.9z M235.7,558.9
	C235.7,558.9,235.7,558.9,235.7,558.9C235.7,558.9,235.7,558.9,235.7,558.9z M235.5,559.1L235.5,559.1
	C235.5,559.1,235.5,559.1,235.5,559.1z M237.5,551.3c-0.1,0-0.1,0-0.1,0C237.4,551.3,237.4,551.3,237.5,551.3z M236,558.1
	C236.1,558.1,236.1,558.1,236,558.1L236,558.1z M235.8,558.7C235.8,558.7,235.8,558.7,235.8,558.7L235.8,558.7z M235.8,558.7
	C235.8,558.7,235.8,558.7,235.8,558.7C235.8,558.7,235.8,558.7,235.8,558.7z M234.3,559.5C234.3,559.5,234.3,559.5,234.3,559.5
	C234.3,559.5,234.3,559.5,234.3,559.5C234.3,559.5,234.3,559.5,234.3,559.5z M232.6,559.9C232.6,559.9,232.6,559.9,232.6,559.9
	C232.6,559.9,232.6,559.9,232.6,559.9z M232.6,559.9C232.6,559.9,232.6,559.9,232.6,559.9L232.6,559.9z M231,560
	C231,560,231,560,231,560C231,560,231,560,231,560z M230.9,560C230.9,560,230.9,560,230.9,560C230.9,560,230.9,560,230.9,560z
	 M230.9,560C230.9,560,230.9,560,230.9,560C230.9,560,230.9,560,230.9,560C230.9,560,230.9,560,230.9,560z M220.3,551
	C220.3,551,220.3,551,220.3,551c0,0-0.1,0-0.1,0C220.2,551,220.2,551,220.3,551z M218.4,559.4C218.4,559.5,218.4,559.5,218.4,559.4
	C218.4,559.4,218.4,559.4,218.4,559.4C218.4,559.4,218.4,559.4,218.4,559.4z M224.1,562.8C224.1,562.8,224.1,562.8,224.1,562.8
	C224.1,562.8,224.1,562.8,224.1,562.8z"/>
<path class="st0" d="M224.7,546.7c0.6,3.1-1.1,7.7,1.1,10c0,0,0.1,0,0.1,0c0.9,0.4,1.9,0.3,2.9,0.4c0,0,0,0,0,0c0.2,0,0.5,0,0.7,0
	c0,0,0.2,0,0.3,0c0,0,0,0,0,0c0.2,0,0.3,0,0.5,0c0,0,0,0,0,0c0.1,0,0.2,0,0.2,0c0,0,0.1,0,0.1,0c0.1,0,0.1,0,0.2,0
	c0.1,0,0.2,0,0.4,0c0.2,0,0.5,0,0.7-0.1c0.3-0.1,0.5-0.3,0.7-0.5c0,0,0.2-0.2,0.2-0.2c0,0,0-0.1,0.1-0.1c0-0.1,0.1-0.2,0.1-0.3
	c0-0.1,0-0.2,0.1-0.3c0-0.1,0.1-0.2,0.1-0.4c0.8-3.3,0.5-7,0.2-10.3c0,0,0-0.3,0-0.3c0-0.2,0-0.3-0.1-0.5c0,0,0-0.3-0.1-0.3
	c0,0,0,0.1,0,0.1c0-0.1,0-0.1,0-0.1c0-0.2-0.1-0.5-0.1-0.7c0,0,0,0,0,0c0,0,0-0.1,0-0.2c-0.1-0.3-0.2-0.7-0.3-1.1
	c0,0-0.1-0.2-0.1-0.2c0-0.1-0.1-0.3-0.2-0.4c0-0.1-0.1-0.3-0.2-0.3c-0.1-0.1-0.1-0.2-0.2-0.3c0.1,0.1-0.2-0.2-0.1-0.1
	c-0.2-0.1-0.2-0.2-0.4-0.3c0.4,0.1-0.2-0.1-0.2-0.1c-0.1,0-0.1-0.1-0.2-0.1c0.1,0.1-0.1-0.1-0.1,0c-0.2-0.2-0.5-0.3-0.8-0.4
	c0.1,0-0.3-0.1-0.2,0c0,0-0.2,0,0,0c-0.1,0-0.2,0-0.2,0c0.3,0.1,0.1,0-0.1,0c-0.5,0-1-0.1-1.5,0c-1.9-0.1-2.7,2-3.2,3.6c0,0,0,0,0,0
	c0,0.1,0,0.1,0,0.2c0,0,0,0.2,0,0.2c0,0,0,0.2,0,0.1c-0.2,0.5-0.2,1-0.2,1.5c0,0,0,0.1,0,0.1c0,0.1,0,0.1,0,0.2c0,0,0,0.2,0,0.1
	C224.6,545.8,224.7,546.3,224.7,546.7z M229.7,557.1C229.7,557.1,229.7,557.1,229.7,557.1L229.7,557.1z M232,556.9
	C232,556.9,232,556.9,232,556.9C232,556.9,232,556.9,232,556.9z M233.1,555.4C233.1,555.4,233.1,555.4,233.1,555.4
	C233.1,555.4,233.1,555.4,233.1,555.4C233.1,555.4,233.1,555.4,233.1,555.4z M233.1,555.4C233.1,555.4,233.1,555.4,233.1,555.4
	L233.1,555.4z M233.1,555.4C233.1,555.4,233.1,555.4,233.1,555.4C233.1,555.4,233.1,555.4,233.1,555.4z M233.3,543.5
	C233.3,543.5,233.3,543.5,233.3,543.5C233.3,543.5,233.3,543.5,233.3,543.5z M231.3,539.8C231.3,539.8,231.3,539.8,231.3,539.8
	L231.3,539.8z M231.1,539.7L231.1,539.7C231.1,539.7,231.1,539.7,231.1,539.7z M231,539.6C231,539.6,231,539.6,231,539.6
	C231,539.6,231,539.6,231,539.6z M231,539.6C231,539.6,231,539.6,231,539.6C231,539.6,231,539.6,231,539.6
	C231,539.6,231,539.6,231,539.6z M230.9,539.6C231,539.6,230.9,539.6,230.9,539.6C230.9,539.6,230.9,539.6,230.9,539.6
	C230.9,539.6,230.9,539.6,230.9,539.6z M230.3,539.3C230.3,539.3,230.3,539.3,230.3,539.3C230.3,539.3,230.3,539.3,230.3,539.3z
	 M230.2,539.3C230.2,539.3,230.2,539.3,230.2,539.3C230.2,539.3,230.2,539.3,230.2,539.3z M225,542.9C225,542.9,225,542.8,225,542.9
	C225,542.9,225,542.9,225,542.9C225,542.9,225,542.9,225,542.9z M224.9,543.3C224.9,543.3,224.9,543.3,224.9,543.3
	C224.9,543.3,224.9,543.3,224.9,543.3C224.9,543.3,224.9,543.3,224.9,543.3z"/>
<path class="st0" d="M231.5,535.5c0.4,1.1,1.1-0.7,2.2,0.5c0.1,0,0.2,0.1,0.2,0.2c-0.1,0,0.2,0.2,0.2,0.2c0.1,0.1-0.1-0.1,0.1,0.1
	c0,0,0,0,0,0c0,0,0.1,0.1,0.1,0.1c0.1,0.1,0.1,0.2,0.2,0.3c0,0,0,0-0.1-0.1c0,0,0,0,0,0c0,0,0,0,0,0c0,0,0.2,0.2,0.2,0.2
	c0,0,0.1,0.1,0.1,0.1c0.4,0.5,0.3,2.1,1.2,1.5c0.1,0,0.1-0.1,0.2-0.1c-0.1,0.1,0.2-0.1,0.2-0.1c0,0,0.1,0,0,0c0.1,0,0.1-0.1,0.1-0.1
	c0,0,0.1-0.1,0.1,0c0,0,0,0,0,0c0.2-0.2,0.4-0.5,0.4-0.8c-0.1-1.6-1.1-2.9-2.3-3.8c-0.1,0-0.4-0.2-0.5-0.3c-0.1,0-0.3-0.1-0.4-0.1
	c-0.6-0.2-1.2-0.2-1.8-0.3C231.2,533.2,231.6,534.8,231.5,535.5z M234.8,537.1C234.8,537.1,234.8,537.1,234.8,537.1
	C234.8,537.1,234.8,537,234.8,537.1z M234,536.2C234,536.2,233.9,536.2,234,536.2C233.9,536.2,233.9,536.2,234,536.2z M234,536.2
	c0,0,0.1,0,0.1,0C234,536.3,234,536.2,234,536.2z M234.5,533.6C234.5,533.6,234.5,533.6,234.5,533.6
	C234.5,533.6,234.5,533.6,234.5,533.6z M234,533.3C234,533.3,234.1,533.3,234,533.3C234.1,533.3,234,533.3,234,533.3L234,533.3z
	 M234,536.3c0,0,0.1,0,0.1,0.1C234.1,536.4,234.1,536.3,234,536.3z M234.2,536.5C234.2,536.5,234.2,536.5,234.2,536.5
	C234.2,536.5,234.2,536.5,234.2,536.5z M234.2,536.5C234.3,536.5,234.3,536.5,234.2,536.5L234.2,536.5z M234.3,536.6
	C234.3,536.6,234.3,536.6,234.3,536.6C234.3,536.6,234.3,536.6,234.3,536.6z M234.4,536.6C234.4,536.6,234.4,536.6,234.4,536.6
	C234.4,536.6,234.4,536.6,234.4,536.6z M236.2,538.6C236.1,538.7,236.1,538.6,236.2,538.6C236.2,538.6,236.2,538.6,236.2,538.6z
	 M236.3,538.6C236.3,538.6,236.2,538.6,236.3,538.6C236.2,538.6,236.3,538.6,236.3,538.6z M234.7,533.7
	C234.6,533.7,234.6,533.7,234.7,533.7C234.6,533.7,234.7,533.7,234.7,533.7z M234.5,533.6C234.5,533.6,234.5,533.6,234.5,533.6
	C234.5,533.6,234.5,533.6,234.5,533.6z M234.4,533.5C234.4,533.5,234.4,533.5,234.4,533.5C234.4,533.5,234.4,533.5,234.4,533.5z
	 M234.3,533.5C234.3,533.5,234.3,533.5,234.3,533.5C234.3,533.5,234.3,533.5,234.3,533.5z M234.2,533.4
	C234.2,533.4,234.2,533.4,234.2,533.4C234.1,533.3,234.1,533.3,234.2,533.4C234.1,533.3,234.1,533.3,234.2,533.4
	C234.1,533.3,234.1,533.3,234.2,533.4z M234,533.3C234,533.3,234,533.3,234,533.3C234,533.3,234,533.3,234,533.3z M232.8,533.1
	C232.8,533.1,232.8,533.1,232.8,533.1C232.8,533.1,232.7,533.1,232.8,533.1z M232,533C232,533,232,533,232,533L232,533z"/>
<path class="st0" d="M242.6,535.3c-1-2.3-2.5-4.6-4.2-6.4c0,0-0.2-0.2-0.2-0.2c0,0-0.1,0,0,0c-1-0.8-1.9-1.9-3.2-2.2
	c-0.3-0.1-0.5-0.2-0.8-0.3c-1-0.4-1.1,2.1-1.5,2.9c0.3,1.1,1.3-0.8,2.1,0.2c0.1,0.1,0.2,0.1,0.3,0.2c0,0,0.2,0.1,0.3,0.2
	c0,0,0,0,0,0c0.1,0.1,0.4,0.3,0.5,0.4c0.2,0.1,0.3,0.2,0.3,0.2c0,0,0.3,0.3,0.2,0.2c0,0,0.1,0.1,0.1,0.1c0,0,0.1,0.1,0.1,0.1
	c0,0,0.1,0.1,0.1,0.1c0.4,0.2,0.7,0.6,1,0.9c0,0.1,0.1,0.2,0.2,0.2l0,0c0,0,0,0,0,0c0,0,0.1,0.1,0.1,0.2c0,0,0,0,0,0
	c0,0.1,0.1,0.3,0.1,0.3c0,0.1,0,0,0-0.1c0.1,0.3,0.1,0.3,0.2,0.4c0,0,0.1,0.1,0.2,0.1c0,0,0.1,0.1,0.1,0.1c0.1,0.2,0.3,0.4,0.4,0.6
	c0,0,0,0,0,0c0,0.1,0.2,0.3,0.2,0.3c0.1,0.2,0.1,0.1,0.2,0.2c0,0,0.1,0.2,0.1,0.3c0-0.1,0-0.1-0.1-0.1c0,0,0,0,0,0c0,0,0,0,0,0
	c0,0,0,0,0,0.1c0,0,0,0,0,0c0,0,0,0,0,0c0,0,0.1,0.1,0.1,0.1c0,0.1,0.1,0.1,0.1,0.2c0.1,0.1,0.1,0.3,0.2,0.4c0,0,0,0.1,0.1,0.1
	c0,0-0.1-0.1,0,0c0,0,0,0,0,0c0.1,0.2,0.2,0.3,0.3,0.5c0,0,0,0,0.1,0.1c0,0,0,0,0.1,0.1c0,0,0,0,0,0c0,0,0,0,0.1,0.1c0,0,0,0,0,0
	c0,0,0,0,0.1,0.1c0.1,0.2,0.2,0.5,0.6,0.5c0,0,0,0,0,0c0.5,0,0.9-0.2,1.3-0.4C242.2,536,242.8,535.6,242.6,535.3z M238.1,528.7
	L238.1,528.7C238.1,528.7,238.1,528.7,238.1,528.7z M238.2,528.7C238.2,528.7,238.2,528.7,238.2,528.7
	C238.2,528.7,238.2,528.7,238.2,528.7z M238.1,528.7C238.1,528.7,238.1,528.7,238.1,528.7C238.1,528.6,238.1,528.7,238.1,528.7z
	 M239.3,533.8C239.3,533.8,239.3,533.8,239.3,533.8C239.3,533.8,239.3,533.8,239.3,533.8z M239.3,533.9
	C239.3,533.9,239.3,533.9,239.3,533.9L239.3,533.9z M239.3,533.9C239.3,533.9,239.3,533.9,239.3,533.9
	C239.3,533.9,239.3,533.9,239.3,533.9z M238.2,528.7C238.2,528.7,238.2,528.7,238.2,528.7C238.2,528.7,238.2,528.7,238.2,528.7z
	 M238.1,528.6C238,528.6,238,528.6,238.1,528.6C238.1,528.6,238.1,528.6,238.1,528.6z M235.1,529.4
	C235.1,529.4,235.1,529.4,235.1,529.4C235.1,529.4,235.1,529.4,235.1,529.4z M235.4,529.6C235.4,529.6,235.4,529.6,235.4,529.6
	C235.3,529.5,235.7,529.8,235.4,529.6z M236.2,530.2C236.2,530.1,236.2,530.2,236.2,530.2C236.2,530.2,236.2,530.2,236.2,530.2z
	 M236.8,530.7C236.8,530.7,236.8,530.7,236.8,530.7C236.8,530.7,236.8,530.7,236.8,530.7z M237.1,530.9
	C237.1,530.9,237.1,530.9,237.1,530.9C237.1,530.9,237.1,530.9,237.1,530.9z M238,531.9C237.9,531.9,237.9,531.9,238,531.9
	C238,532,238,532,238,531.9z M238,532C238,532,238,532,238,532C238,532,238,532,238,532C238,532.1,238,532,238,532z M239.1,533.7
	C239.1,533.7,239.1,533.7,239.1,533.7C239.1,533.7,239.1,533.7,239.1,533.7z M239.3,533.9C239.3,533.9,239.3,533.9,239.3,533.9
	C239.3,533.9,239.3,533.8,239.3,533.9z M239.3,533.9C239.3,533.9,239.3,533.9,239.3,533.9C239.3,533.9,239.3,533.9,239.3,533.9z
	 M240.1,535.5C240.1,535.5,240.1,535.5,240.1,535.5C240.1,535.5,240.1,535.5,240.1,535.5z M242.2,535.9
	C242.2,535.9,242.2,535.9,242.2,535.9C242.2,535.9,242.3,535.9,242.2,535.9z M242.4,535.8C242.4,535.8,242.4,535.8,242.4,535.8
	C242.4,535.8,242.4,535.8,242.4,535.8z"/>
<path d="M634.9,533.7C635,533.7,635,533.7,634.9,533.7C635,533.7,634.9,533.7,634.9,533.7z"/>
<path d="M635.1,533.9c0,0-0.1-0.1-0.1-0.1C635,533.8,635.1,533.8,635.1,533.9C635.1,533.9,635.1,533.9,635.1,533.9z"/>
<path class="st0" d="M622.2,536.8c-0.5,0.4-0.7,0.8-0.9,1.3c-0.1,0.2-0.2,0.4-0.2,0.6c-0.8,3.8-0.2,7.7,0.5,11.4
	c0.5,3.5,0.8,7.1,1.8,10.5c0.2,0.9,1.3,1.2,2,0.5c0.9-0.9,1.7-2.3,2.5-2.8c2.4-2.6,4.6-4.9,6.5-8c1.8-4.2,4.5-10.7,0.4-14.3
	c0,0-0.1,0-0.1-0.1l0,0c-0.1,0-0.2-0.1-0.2-0.1l0,0c-0.3-0.2-0.7-0.3-1.1-0.5c-0.3-0.1-0.6-0.3-0.9-0.4c-0.4-0.1-0.8-0.2-1.2-0.2
	c-2.3-0.5-4.6-0.2-6.7,0.8L622.2,536.8z M635.4,547.6C635.4,547.6,635.4,547.6,635.4,547.6L635.4,547.6z M636.5,538.4
	C636.5,538.4,636.5,538.4,636.5,538.4C636.5,538.4,636.5,538.4,636.5,538.4z M636.1,537.7C636.1,537.7,636.1,537.7,636.1,537.7
	C636.1,537.7,636.1,537.7,636.1,537.7z M635.8,537.2C635.8,537.2,635.8,537.2,635.8,537.2C635.8,537.2,635.8,537.2,635.8,537.2z
	 M632.9,535.2C632.9,535.2,632.9,535.2,632.9,535.2C632.9,535.2,632.9,535.1,632.9,535.2z M632.5,535C632.6,535,632.6,535,632.5,535
	C632.5,535,632.5,535,632.5,535z M621.6,537.4C621.6,537.4,621.6,537.4,621.6,537.4C621.6,537.4,621.6,537.4,621.6,537.4
	C621.6,537.4,621.6,537.4,621.6,537.4z M620.9,539.1C620.9,539.1,620.9,539.1,620.9,539.1C620.9,539.1,620.9,539.2,620.9,539.1z"/>
<path class="st0" d="M640.8,540.1c-0.1-0.6-0.1-1.5-0.2-2c-0.1-0.2-0.1-0.5-0.2-0.6c-0.3-0.6-0.4-1.2-0.7-1.7c0,0,0,0,0,0
	c-0.4-0.9-1-1.6-1.6-2.3c-0.2-0.2-0.5-0.6-0.9-0.8c0,0-0.1,0,0,0c0,0-0.1-0.1-0.1-0.1c-0.5-0.5-1.1-0.8-1.7-1.1
	c-0.1-0.1-0.6-0.2-0.5-0.1c-0.7-0.2-1.5-0.4-2.2-0.5c0,0,0,0,0,0c0,0-0.1,0-0.1,0c0,0,0,0,0,0c0,0-0.1,0,0,0c0,0-0.1,0-0.1,0
	c0,0,0,0,0,0c-0.9-0.1-1.8-0.1-2.7-0.2c-18-1.4-13.2,17.9-10.3,29.1c0.9,1.9,0.6,10.1,3.8,8.2c0,0,0,0,0,0
	c6.9-7.4,17.3-14.4,17.5-25.5C640.9,541.5,640.8,540.8,640.8,540.1z M622.5,568C622.5,568,622.5,568,622.5,568
	C622.5,568,622.5,568,622.5,568z M620.2,554.1c-0.1-0.5-0.2-1.1-0.4-1.7c0,0,0,0,0-0.2c0,0,0,0.1,0,0.2c0-0.3-0.1-0.6-0.2-0.9
	c0,0.1,0,0,0-0.1c0,0,0,0,0,0.1c-4.2-12.3,1.2-23,15.2-17.8c0,0,0,0,0.1,0.1c-0.1-0.1-0.1-0.1-0.1-0.1c0.4,0.2,0.8,0.5,1.1,0.8
	c0.6,0.4,1.3,1,1.6,1.6c0,0,0,0,0-0.1c2.7,4.7,0.6,10.8-1.7,15.2c0,0,0,0,0,0c-3.4,5.2-8,9.5-12.4,13.9c-1.5,1.1-2.1-6.2-2.9-8.9
	C620.4,555.5,620.3,554.8,620.2,554.1z M639.2,548.9C639.2,548.8,639.2,548.8,639.2,548.9L639.2,548.9z M632.5,530.8
	C632.5,530.8,632.5,530.8,632.5,530.8C632.5,530.8,632.5,530.8,632.5,530.8z M623.2,567.8C623.2,567.8,623.2,567.8,623.2,567.8
	C623.2,567.8,623.2,567.8,623.2,567.8z M635.5,531.6C635.5,531.6,635.5,531.6,635.5,531.6C635.5,531.6,635.5,531.6,635.5,531.6z
	 M634.2,531.1C634.2,531.1,634.2,531.1,634.2,531.1C634.2,531.1,634.2,531.1,634.2,531.1z M632.6,530.8
	C632.7,530.8,632.7,530.8,632.6,530.8C632.6,530.8,632.6,530.8,632.6,530.8z M632.5,530.8C632.5,530.8,632.5,530.8,632.5,530.8
	C632.5,530.8,632.5,530.8,632.5,530.8z M623.8,567.3C623.8,567.3,623.9,567.3,623.8,567.3C623.8,567.3,623.8,567.3,623.8,567.3z
	 M634.7,556.3C634.7,556.3,634.7,556.2,634.7,556.3C634.7,556.3,634.7,556.3,634.7,556.3z"/>
<path class="st0" d="M569.2,565.2l-21.7-3.3c-1.1-0.2-1.9-1.2-1.7-2.4l3.7-23.9c0.2-1.1,1.2-1.9,2.4-1.7l21.7,3.3
	c1.1,0.2,1.9,1.2,1.7,2.4l-3.7,23.9C571.4,564.6,570.3,565.4,569.2,565.2z"/>
<path class="st6" d="M568.9,563.3l-20.5-3.1c-0.6-0.1-1-0.6-0.9-1.2l2.6-16.9c0.1-0.6,0.6-1,1.2-0.9l20.5,3.1c0.6,0.1,1,0.6,0.9,1.2
	l-2.6,16.9C570,563,569.5,563.4,568.9,563.3z"/>
<path class="st0" d="M568.9,551.5l-2.9-0.4c-0.5-0.1-0.9-0.6-0.8-1.1l0.5-3.3c0.1-0.5,0.6-0.9,1.1-0.8l2.9,0.4
	c0.5,0.1,0.9,0.6,0.8,1.1l-0.5,3.3C569.9,551.2,569.4,551.6,568.9,551.5z"/>
<path class="st0" d="M561.9,550.5L559,550c-0.5-0.1-0.9-0.6-0.8-1.1l0.5-3.3c0.1-0.5,0.6-0.9,1.1-0.8l2.9,0.4
	c0.5,0.1,0.9,0.6,0.8,1.1l-0.5,3.3C563,550.2,562.5,550.5,561.9,550.5z"/>
<path class="st0" d="M555.1,549.3l-2.9-0.4c-0.5-0.1-0.9-0.6-0.8-1.1l0.5-3.3c0.1-0.5,0.6-0.9,1.1-0.8l2.9,0.4
	c0.5,0.1,0.9,0.6,0.8,1.1l-0.5,3.3C556.2,549,555.7,549.4,555.1,549.3z"/>
<path class="st0" d="M560.5,534l0.8-2.8c0.1-0.2-0.1-0.4-0.4-0.4l-2,0.4c-0.1,0-0.2,0.1-0.2,0.2l-0.6,2.1c-0.1,0.2,0.1,0.4,0.3,0.4
	l1.7,0.3C560.3,534.3,560.4,534.2,560.5,534z"/>
<path class="st0" d="M568.4,535.1l0.8-2.8c0.1-0.2-0.1-0.4-0.4-0.4l-2,0.4c-0.1,0-0.2,0.1-0.2,0.2l-0.6,2.1
	c-0.1,0.2,0.1,0.4,0.3,0.4l1.7,0.3C568.2,535.4,568.3,535.3,568.4,535.1z"/>
</svg>
