<svg width="1252" height="568" viewBox="0 0 1252 568" fill="none" xmlns="http://www.w3.org/2000/svg">
<rect width="1252" height="568" fill="white"/>
<path d="M482.609 116C482.609 102.745 493.355 92 506.609 92H746.609C759.864 92 770.609 102.745 770.609 116V143C770.609 156.255 759.864 167 746.609 167H506.609C493.355 167 482.609 156.255 482.609 143V116Z" fill="#F0F0F0"/>
<path d="M557.381 123.1L553.261 137H550.681L547.761 126.48L544.661 137L542.101 137.02L538.161 123.1H540.581L543.461 134.42L546.581 123.1H549.141L552.041 134.36L554.941 123.1H557.381ZM569.362 131.22C569.362 131.633 569.335 132.007 569.282 132.34H560.862C560.928 133.22 561.255 133.927 561.842 134.46C562.428 134.993 563.148 135.26 564.002 135.26C565.228 135.26 566.095 134.747 566.602 133.72H569.062C568.728 134.733 568.122 135.567 567.242 136.22C566.375 136.86 565.295 137.18 564.002 137.18C562.948 137.18 562.002 136.947 561.162 136.48C560.335 136 559.682 135.333 559.202 134.48C558.735 133.613 558.502 132.613 558.502 131.48C558.502 130.347 558.728 129.353 559.182 128.5C559.648 127.633 560.295 126.967 561.122 126.5C561.962 126.033 562.922 125.8 564.002 125.8C565.042 125.8 565.968 126.027 566.782 126.48C567.595 126.933 568.228 127.573 568.682 128.4C569.135 129.213 569.362 130.153 569.362 131.22ZM566.982 130.5C566.968 129.66 566.668 128.987 566.082 128.48C565.495 127.973 564.768 127.72 563.902 127.72C563.115 127.72 562.442 127.973 561.882 128.48C561.322 128.973 560.988 129.647 560.882 130.5H566.982ZM573.885 122.2V137H571.605V122.2H573.885ZM576.119 131.48C576.119 130.347 576.346 129.353 576.799 128.5C577.266 127.633 577.906 126.967 578.719 126.5C579.532 126.033 580.466 125.8 581.519 125.8C582.852 125.8 583.952 126.12 584.819 126.76C585.699 127.387 586.292 128.287 586.599 129.46H584.139C583.939 128.913 583.619 128.487 583.179 128.18C582.739 127.873 582.186 127.72 581.519 127.72C580.586 127.72 579.839 128.053 579.279 128.72C578.732 129.373 578.459 130.293 578.459 131.48C578.459 132.667 578.732 133.593 579.279 134.26C579.839 134.927 580.586 135.26 581.519 135.26C582.839 135.26 583.712 134.68 584.139 133.52H586.599C586.279 134.64 585.679 135.533 584.799 136.2C583.919 136.853 582.826 137.18 581.519 137.18C580.466 137.18 579.532 136.947 578.719 136.48C577.906 136 577.266 135.333 576.799 134.48C576.346 133.613 576.119 132.613 576.119 131.48ZM593.651 137.18C592.611 137.18 591.671 136.947 590.831 136.48C589.991 136 589.331 135.333 588.851 134.48C588.371 133.613 588.131 132.613 588.131 131.48C588.131 130.36 588.378 129.367 588.871 128.5C589.364 127.633 590.038 126.967 590.891 126.5C591.744 126.033 592.698 125.8 593.751 125.8C594.804 125.8 595.758 126.033 596.611 126.5C597.464 126.967 598.138 127.633 598.631 128.5C599.124 129.367 599.371 130.36 599.371 131.48C599.371 132.6 599.118 133.593 598.611 134.46C598.104 135.327 597.411 136 596.531 136.48C595.664 136.947 594.704 137.18 593.651 137.18ZM593.651 135.2C594.238 135.2 594.784 135.06 595.291 134.78C595.811 134.5 596.231 134.08 596.551 133.52C596.871 132.96 597.031 132.28 597.031 131.48C597.031 130.68 596.878 130.007 596.571 129.46C596.264 128.9 595.858 128.48 595.351 128.2C594.844 127.92 594.298 127.78 593.711 127.78C593.124 127.78 592.578 127.92 592.071 128.2C591.578 128.48 591.184 128.9 590.891 129.46C590.598 130.007 590.451 130.68 590.451 131.48C590.451 132.667 590.751 133.587 591.351 134.24C591.964 134.88 592.731 135.2 593.651 135.2ZM614.965 125.8C615.832 125.8 616.605 125.98 617.285 126.34C617.978 126.7 618.518 127.233 618.905 127.94C619.305 128.647 619.505 129.5 619.505 130.5V137H617.245V130.84C617.245 129.853 616.998 129.1 616.505 128.58C616.012 128.047 615.338 127.78 614.485 127.78C613.632 127.78 612.952 128.047 612.445 128.58C611.952 129.1 611.705 129.853 611.705 130.84V137H609.445V130.84C609.445 129.853 609.198 129.1 608.705 128.58C608.212 128.047 607.538 127.78 606.685 127.78C605.832 127.78 605.152 128.047 604.645 128.58C604.152 129.1 603.905 129.853 603.905 130.84V137H601.625V125.98H603.905V127.24C604.278 126.787 604.752 126.433 605.325 126.18C605.898 125.927 606.512 125.8 607.165 125.8C608.045 125.8 608.832 125.987 609.525 126.36C610.218 126.733 610.752 127.273 611.125 127.98C611.458 127.313 611.978 126.787 612.685 126.4C613.392 126 614.152 125.8 614.965 125.8ZM632.506 131.22C632.506 131.633 632.48 132.007 632.426 132.34H624.006C624.073 133.22 624.4 133.927 624.986 134.46C625.573 134.993 626.293 135.26 627.146 135.26C628.373 135.26 629.24 134.747 629.746 133.72H632.206C631.873 134.733 631.266 135.567 630.386 136.22C629.52 136.86 628.44 137.18 627.146 137.18C626.093 137.18 625.146 136.947 624.306 136.48C623.48 136 622.826 135.333 622.346 134.48C621.88 133.613 621.646 132.613 621.646 131.48C621.646 130.347 621.873 129.353 622.326 128.5C622.793 127.633 623.44 126.967 624.266 126.5C625.106 126.033 626.066 125.8 627.146 125.8C628.186 125.8 629.113 126.027 629.926 126.48C630.74 126.933 631.373 127.573 631.826 128.4C632.28 129.213 632.506 130.153 632.506 131.22ZM630.126 130.5C630.113 129.66 629.813 128.987 629.226 128.48C628.64 127.973 627.913 127.72 627.046 127.72C626.26 127.72 625.586 127.973 625.026 128.48C624.466 128.973 624.133 129.647 624.026 130.5H630.126ZM643.945 137.18C643.079 137.18 642.299 137.027 641.605 136.72C640.925 136.4 640.385 135.973 639.985 135.44C639.585 134.893 639.372 134.287 639.345 133.62H641.705C641.745 134.087 641.965 134.48 642.365 134.8C642.779 135.107 643.292 135.26 643.905 135.26C644.545 135.26 645.039 135.14 645.385 134.9C645.745 134.647 645.925 134.327 645.925 133.94C645.925 133.527 645.725 133.22 645.325 133.02C644.939 132.82 644.319 132.6 643.465 132.36C642.639 132.133 641.965 131.913 641.445 131.7C640.925 131.487 640.472 131.16 640.085 130.72C639.712 130.28 639.525 129.7 639.525 128.98C639.525 128.393 639.699 127.86 640.045 127.38C640.392 126.887 640.885 126.5 641.525 126.22C642.179 125.94 642.925 125.8 643.765 125.8C645.019 125.8 646.025 126.12 646.785 126.76C647.559 127.387 647.972 128.247 648.025 129.34H645.745C645.705 128.847 645.505 128.453 645.145 128.16C644.785 127.867 644.299 127.72 643.685 127.72C643.085 127.72 642.625 127.833 642.305 128.06C641.985 128.287 641.825 128.587 641.825 128.96C641.825 129.253 641.932 129.5 642.145 129.7C642.359 129.9 642.619 130.06 642.925 130.18C643.232 130.287 643.685 130.427 644.285 130.6C645.085 130.813 645.739 131.033 646.245 131.26C646.765 131.473 647.212 131.793 647.585 132.22C647.959 132.647 648.152 133.213 648.165 133.92C648.165 134.547 647.992 135.107 647.645 135.6C647.299 136.093 646.805 136.48 646.165 136.76C645.539 137.04 644.799 137.18 643.945 137.18ZM649.869 131.48C649.869 130.347 650.096 129.353 650.549 128.5C651.016 127.633 651.656 126.967 652.469 126.5C653.282 126.033 654.216 125.8 655.269 125.8C656.602 125.8 657.702 126.12 658.569 126.76C659.449 127.387 660.042 128.287 660.349 129.46H657.889C657.689 128.913 657.369 128.487 656.929 128.18C656.489 127.873 655.936 127.72 655.269 127.72C654.336 127.72 653.589 128.053 653.029 128.72C652.482 129.373 652.209 130.293 652.209 131.48C652.209 132.667 652.482 133.593 653.029 134.26C653.589 134.927 654.336 135.26 655.269 135.26C656.589 135.26 657.462 134.68 657.889 133.52H660.349C660.029 134.64 659.429 135.533 658.549 136.2C657.669 136.853 656.576 137.18 655.269 137.18C654.216 137.18 653.282 136.947 652.469 136.48C651.656 136 651.016 135.333 650.549 134.48C650.096 133.613 649.869 132.613 649.869 131.48ZM664.901 127.58C665.234 127.02 665.674 126.587 666.221 126.28C666.781 125.96 667.441 125.8 668.201 125.8V128.16H667.621C666.728 128.16 666.048 128.387 665.581 128.84C665.128 129.293 664.901 130.08 664.901 131.2V137H662.621V125.98H664.901V127.58ZM680.397 131.22C680.397 131.633 680.37 132.007 680.317 132.34H671.897C671.964 133.22 672.29 133.927 672.877 134.46C673.464 134.993 674.184 135.26 675.037 135.26C676.264 135.26 677.13 134.747 677.637 133.72H680.097C679.764 134.733 679.157 135.567 678.277 136.22C677.41 136.86 676.33 137.18 675.037 137.18C673.984 137.18 673.037 136.947 672.197 136.48C671.37 136 670.717 135.333 670.237 134.48C669.77 133.613 669.537 132.613 669.537 131.48C669.537 130.347 669.764 129.353 670.217 128.5C670.684 127.633 671.33 126.967 672.157 126.5C672.997 126.033 673.957 125.8 675.037 125.8C676.077 125.8 677.004 126.027 677.817 126.48C678.63 126.933 679.264 127.573 679.717 128.4C680.17 129.213 680.397 130.153 680.397 131.22ZM678.017 130.5C678.004 129.66 677.704 128.987 677.117 128.48C676.53 127.973 675.804 127.72 674.937 127.72C674.15 127.72 673.477 127.973 672.917 128.48C672.357 128.973 672.024 129.647 671.917 130.5H678.017ZM692.741 131.22C692.741 131.633 692.714 132.007 692.661 132.34H684.241C684.307 133.22 684.634 133.927 685.221 134.46C685.807 134.993 686.527 135.26 687.381 135.26C688.607 135.26 689.474 134.747 689.981 133.72H692.441C692.107 134.733 691.501 135.567 690.621 136.22C689.754 136.86 688.674 137.18 687.381 137.18C686.327 137.18 685.381 136.947 684.541 136.48C683.714 136 683.061 135.333 682.581 134.48C682.114 133.613 681.881 132.613 681.881 131.48C681.881 130.347 682.107 129.353 682.561 128.5C683.027 127.633 683.674 126.967 684.501 126.5C685.341 126.033 686.301 125.8 687.381 125.8C688.421 125.8 689.347 126.027 690.161 126.48C690.974 126.933 691.607 127.573 692.061 128.4C692.514 129.213 692.741 130.153 692.741 131.22ZM690.361 130.5C690.347 129.66 690.047 128.987 689.461 128.48C688.874 127.973 688.147 127.72 687.281 127.72C686.494 127.72 685.821 127.973 685.261 128.48C684.701 128.973 684.367 129.647 684.261 130.5H690.361ZM700.544 125.8C701.411 125.8 702.184 125.98 702.864 126.34C703.558 126.7 704.098 127.233 704.484 127.94C704.871 128.647 705.064 129.5 705.064 130.5V137H702.804V130.84C702.804 129.853 702.558 129.1 702.064 128.58C701.571 128.047 700.898 127.78 700.044 127.78C699.191 127.78 698.511 128.047 698.004 128.58C697.511 129.1 697.264 129.853 697.264 130.84V137H694.984V125.98H697.264V127.24C697.638 126.787 698.111 126.433 698.684 126.18C699.271 125.927 699.891 125.8 700.544 125.8Z" fill="#232323"/>
<path d="M482.609 396C482.609 382.745 493.355 372 506.609 372H746.609C759.864 372 770.609 382.745 770.609 396V478C770.609 491.255 759.864 502 746.609 502H506.609C493.355 502 482.609 491.255 482.609 478V396Z" fill="#F0F0F0"/>
<path d="M542.466 441.66H536.646L535.646 444.5H533.266L538.246 430.58H540.886L545.866 444.5H543.466L542.466 441.66ZM541.826 439.8L539.566 433.34L537.286 439.8H541.826ZM552.031 444.68C551.165 444.68 550.385 444.527 549.691 444.22C549.011 443.9 548.471 443.473 548.071 442.94C547.671 442.393 547.458 441.787 547.431 441.12H549.791C549.831 441.587 550.051 441.98 550.451 442.3C550.865 442.607 551.378 442.76 551.991 442.76C552.631 442.76 553.125 442.64 553.471 442.4C553.831 442.147 554.011 441.827 554.011 441.44C554.011 441.027 553.811 440.72 553.411 440.52C553.025 440.32 552.405 440.1 551.551 439.86C550.725 439.633 550.051 439.413 549.531 439.2C549.011 438.987 548.558 438.66 548.171 438.22C547.798 437.78 547.611 437.2 547.611 436.48C547.611 435.893 547.785 435.36 548.131 434.88C548.478 434.387 548.971 434 549.611 433.72C550.265 433.44 551.011 433.3 551.851 433.3C553.105 433.3 554.111 433.62 554.871 434.26C555.645 434.887 556.058 435.747 556.111 436.84H553.831C553.791 436.347 553.591 435.953 553.231 435.66C552.871 435.367 552.385 435.22 551.771 435.22C551.171 435.22 550.711 435.333 550.391 435.56C550.071 435.787 549.911 436.087 549.911 436.46C549.911 436.753 550.018 437 550.231 437.2C550.445 437.4 550.705 437.56 551.011 437.68C551.318 437.787 551.771 437.927 552.371 438.1C553.171 438.313 553.825 438.533 554.331 438.76C554.851 438.973 555.298 439.293 555.671 439.72C556.045 440.147 556.238 440.713 556.251 441.42C556.251 442.047 556.078 442.607 555.731 443.1C555.385 443.593 554.891 443.98 554.251 444.26C553.625 444.54 552.885 444.68 552.031 444.68ZM562.715 444.68C561.848 444.68 561.068 444.527 560.375 444.22C559.695 443.9 559.155 443.473 558.755 442.94C558.355 442.393 558.142 441.787 558.115 441.12H560.475C560.515 441.587 560.735 441.98 561.135 442.3C561.548 442.607 562.062 442.76 562.675 442.76C563.315 442.76 563.808 442.64 564.155 442.4C564.515 442.147 564.695 441.827 564.695 441.44C564.695 441.027 564.495 440.72 564.095 440.52C563.708 440.32 563.088 440.1 562.235 439.86C561.408 439.633 560.735 439.413 560.215 439.2C559.695 438.987 559.242 438.66 558.855 438.22C558.482 437.78 558.295 437.2 558.295 436.48C558.295 435.893 558.468 435.36 558.815 434.88C559.162 434.387 559.655 434 560.295 433.72C560.948 433.44 561.695 433.3 562.535 433.3C563.788 433.3 564.795 433.62 565.555 434.26C566.328 434.887 566.742 435.747 566.795 436.84H564.515C564.475 436.347 564.275 435.953 563.915 435.66C563.555 435.367 563.068 435.22 562.455 435.22C561.855 435.22 561.395 435.333 561.075 435.56C560.755 435.787 560.595 436.087 560.595 436.46C560.595 436.753 560.702 437 560.915 437.2C561.128 437.4 561.388 437.56 561.695 437.68C562.002 437.787 562.455 437.927 563.055 438.1C563.855 438.313 564.508 438.533 565.015 438.76C565.535 438.973 565.982 439.293 566.355 439.72C566.728 440.147 566.922 440.713 566.935 441.42C566.935 442.047 566.762 442.607 566.415 443.1C566.068 443.593 565.575 443.98 564.935 444.26C564.308 444.54 563.568 444.68 562.715 444.68ZM570.558 432.02C570.145 432.02 569.798 431.88 569.518 431.6C569.238 431.32 569.098 430.973 569.098 430.56C569.098 430.147 569.238 429.8 569.518 429.52C569.798 429.24 570.145 429.1 570.558 429.1C570.958 429.1 571.298 429.24 571.578 429.52C571.858 429.8 571.998 430.147 571.998 430.56C571.998 430.973 571.858 431.32 571.578 431.6C571.298 431.88 570.958 432.02 570.558 432.02ZM571.678 433.48V444.5H569.398V433.48H571.678ZM579.112 433.3C579.965 433.3 580.719 433.473 581.372 433.82C582.039 434.153 582.559 434.573 582.932 435.08V433.48H585.232V444.68C585.232 445.693 585.019 446.593 584.592 447.38C584.165 448.18 583.545 448.807 582.732 449.26C581.932 449.713 580.972 449.94 579.852 449.94C578.359 449.94 577.119 449.587 576.132 448.88C575.145 448.187 574.585 447.24 574.452 446.04H576.712C576.885 446.613 577.252 447.073 577.812 447.42C578.385 447.78 579.065 447.96 579.852 447.96C580.772 447.96 581.512 447.68 582.072 447.12C582.645 446.56 582.932 445.747 582.932 444.68V442.84C582.545 443.36 582.019 443.8 581.352 444.16C580.699 444.507 579.952 444.68 579.112 444.68C578.152 444.68 577.272 444.44 576.472 443.96C575.685 443.467 575.059 442.787 574.592 441.92C574.139 441.04 573.912 440.047 573.912 438.94C573.912 437.833 574.139 436.853 574.592 436C575.059 435.147 575.685 434.487 576.472 434.02C577.272 433.54 578.152 433.3 579.112 433.3ZM582.932 438.98C582.932 438.22 582.772 437.56 582.452 437C582.145 436.44 581.739 436.013 581.232 435.72C580.725 435.427 580.179 435.28 579.592 435.28C579.005 435.28 578.459 435.427 577.952 435.72C577.445 436 577.032 436.42 576.712 436.98C576.405 437.527 576.252 438.18 576.252 438.94C576.252 439.7 576.405 440.367 576.712 440.94C577.032 441.513 577.445 441.953 577.952 442.26C578.472 442.553 579.019 442.7 579.592 442.7C580.179 442.7 580.725 442.553 581.232 442.26C581.739 441.967 582.145 441.54 582.452 440.98C582.772 440.407 582.932 439.74 582.932 438.98ZM593.787 433.3C594.653 433.3 595.427 433.48 596.107 433.84C596.8 434.2 597.34 434.733 597.727 435.44C598.113 436.147 598.307 437 598.307 438V444.5H596.047V438.34C596.047 437.353 595.8 436.6 595.307 436.08C594.813 435.547 594.14 435.28 593.287 435.28C592.433 435.28 591.753 435.547 591.247 436.08C590.753 436.6 590.507 437.353 590.507 438.34V444.5H588.227V433.48H590.507V434.74C590.88 434.287 591.353 433.933 591.927 433.68C592.513 433.427 593.133 433.3 593.787 433.3ZM609.07 435.34V441.44C609.07 441.853 609.163 442.153 609.35 442.34C609.55 442.513 609.883 442.6 610.35 442.6H611.75V444.5H609.95C608.923 444.5 608.137 444.26 607.59 443.78C607.043 443.3 606.77 442.52 606.77 441.44V435.34H605.47V433.48H606.77V430.74H609.07V433.48H611.75V435.34H609.07ZM613.092 438.94C613.092 437.833 613.318 436.853 613.772 436C614.238 435.147 614.865 434.487 615.652 434.02C616.452 433.54 617.332 433.3 618.292 433.3C619.158 433.3 619.912 433.473 620.552 433.82C621.205 434.153 621.725 434.573 622.112 435.08V433.48H624.412V444.5H622.112V442.86C621.725 443.38 621.198 443.813 620.532 444.16C619.865 444.507 619.105 444.68 618.252 444.68C617.305 444.68 616.438 444.44 615.652 443.96C614.865 443.467 614.238 442.787 613.772 441.92C613.318 441.04 613.092 440.047 613.092 438.94ZM622.112 438.98C622.112 438.22 621.952 437.56 621.632 437C621.325 436.44 620.918 436.013 620.412 435.72C619.905 435.427 619.358 435.28 618.772 435.28C618.185 435.28 617.638 435.427 617.132 435.72C616.625 436 616.212 436.42 615.892 436.98C615.585 437.527 615.432 438.18 615.432 438.94C615.432 439.7 615.585 440.367 615.892 440.94C616.212 441.513 616.625 441.953 617.132 442.26C617.652 442.553 618.198 442.7 618.772 442.7C619.358 442.7 619.905 442.553 620.412 442.26C620.918 441.967 621.325 441.54 621.632 440.98C621.952 440.407 622.112 439.74 622.112 438.98ZM631.406 444.68C630.54 444.68 629.76 444.527 629.066 444.22C628.386 443.9 627.846 443.473 627.446 442.94C627.046 442.393 626.833 441.787 626.806 441.12H629.166C629.206 441.587 629.426 441.98 629.826 442.3C630.24 442.607 630.753 442.76 631.366 442.76C632.006 442.76 632.5 442.64 632.846 442.4C633.206 442.147 633.386 441.827 633.386 441.44C633.386 441.027 633.186 440.72 632.786 440.52C632.4 440.32 631.78 440.1 630.926 439.86C630.1 439.633 629.426 439.413 628.906 439.2C628.386 438.987 627.933 438.66 627.546 438.22C627.173 437.78 626.986 437.2 626.986 436.48C626.986 435.893 627.16 435.36 627.506 434.88C627.853 434.387 628.346 434 628.986 433.72C629.64 433.44 630.386 433.3 631.226 433.3C632.48 433.3 633.486 433.62 634.246 434.26C635.02 434.887 635.433 435.747 635.486 436.84H633.206C633.166 436.347 632.966 435.953 632.606 435.66C632.246 435.367 631.76 435.22 631.146 435.22C630.546 435.22 630.086 435.333 629.766 435.56C629.446 435.787 629.286 436.087 629.286 436.46C629.286 436.753 629.393 437 629.606 437.2C629.82 437.4 630.08 437.56 630.386 437.68C630.693 437.787 631.146 437.927 631.746 438.1C632.546 438.313 633.2 438.533 633.706 438.76C634.226 438.973 634.673 439.293 635.046 439.72C635.42 440.147 635.613 440.713 635.626 441.42C635.626 442.047 635.453 442.607 635.106 443.1C634.76 443.593 634.266 443.98 633.626 444.26C633 444.54 632.26 444.68 631.406 444.68ZM642.45 439L647.53 444.5H644.45L640.37 439.76V444.5H638.09V429.7H640.37V438.3L644.37 433.48H647.53L642.45 439ZM657.019 435.34V441.44C657.019 441.853 657.113 442.153 657.299 442.34C657.499 442.513 657.833 442.6 658.299 442.6H659.699V444.5H657.899C656.873 444.5 656.086 444.26 655.539 443.78C654.993 443.3 654.719 442.52 654.719 441.44V435.34H653.419V433.48H654.719V430.74H657.019V433.48H659.699V435.34H657.019ZM666.581 444.68C665.541 444.68 664.601 444.447 663.761 443.98C662.921 443.5 662.261 442.833 661.781 441.98C661.301 441.113 661.061 440.113 661.061 438.98C661.061 437.86 661.307 436.867 661.801 436C662.294 435.133 662.967 434.467 663.821 434C664.674 433.533 665.627 433.3 666.681 433.3C667.734 433.3 668.687 433.533 669.541 434C670.394 434.467 671.067 435.133 671.561 436C672.054 436.867 672.301 437.86 672.301 438.98C672.301 440.1 672.047 441.093 671.541 441.96C671.034 442.827 670.341 443.5 669.461 443.98C668.594 444.447 667.634 444.68 666.581 444.68ZM666.581 442.7C667.167 442.7 667.714 442.56 668.221 442.28C668.741 442 669.161 441.58 669.481 441.02C669.801 440.46 669.961 439.78 669.961 438.98C669.961 438.18 669.807 437.507 669.501 436.96C669.194 436.4 668.787 435.98 668.281 435.7C667.774 435.42 667.227 435.28 666.641 435.28C666.054 435.28 665.507 435.42 665.001 435.7C664.507 435.98 664.114 436.4 663.821 436.96C663.527 437.507 663.381 438.18 663.381 438.98C663.381 440.167 663.681 441.087 664.281 441.74C664.894 442.38 665.661 442.7 666.581 442.7ZM683.75 444.68C682.883 444.68 682.103 444.527 681.41 444.22C680.73 443.9 680.19 443.473 679.79 442.94C679.39 442.393 679.177 441.787 679.15 441.12H681.51C681.55 441.587 681.77 441.98 682.17 442.3C682.583 442.607 683.097 442.76 683.71 442.76C684.35 442.76 684.843 442.64 685.19 442.4C685.55 442.147 685.73 441.827 685.73 441.44C685.73 441.027 685.53 440.72 685.13 440.52C684.743 440.32 684.123 440.1 683.27 439.86C682.443 439.633 681.77 439.413 681.25 439.2C680.73 438.987 680.277 438.66 679.89 438.22C679.517 437.78 679.33 437.2 679.33 436.48C679.33 435.893 679.503 435.36 679.85 434.88C680.197 434.387 680.69 434 681.33 433.72C681.983 433.44 682.73 433.3 683.57 433.3C684.823 433.3 685.83 433.62 686.59 434.26C687.363 434.887 687.777 435.747 687.83 436.84H685.55C685.51 436.347 685.31 435.953 684.95 435.66C684.59 435.367 684.103 435.22 683.49 435.22C682.89 435.22 682.43 435.333 682.11 435.56C681.79 435.787 681.63 436.087 681.63 436.46C681.63 436.753 681.737 437 681.95 437.2C682.163 437.4 682.423 437.56 682.73 437.68C683.037 437.787 683.49 437.927 684.09 438.1C684.89 438.313 685.543 438.533 686.05 438.76C686.57 438.973 687.017 439.293 687.39 439.72C687.763 440.147 687.957 440.713 687.97 441.42C687.97 442.047 687.797 442.607 687.45 443.1C687.103 443.593 686.61 443.98 685.97 444.26C685.343 444.54 684.603 444.68 683.75 444.68ZM700.534 438.72C700.534 439.133 700.507 439.507 700.454 439.84H692.034C692.1 440.72 692.427 441.427 693.014 441.96C693.6 442.493 694.32 442.76 695.174 442.76C696.4 442.76 697.267 442.247 697.774 441.22H700.234C699.9 442.233 699.294 443.067 698.414 443.72C697.547 444.36 696.467 444.68 695.174 444.68C694.12 444.68 693.174 444.447 692.334 443.98C691.507 443.5 690.854 442.833 690.374 441.98C689.907 441.113 689.674 440.113 689.674 438.98C689.674 437.847 689.9 436.853 690.354 436C690.82 435.133 691.467 434.467 692.294 434C693.134 433.533 694.094 433.3 695.174 433.3C696.214 433.3 697.14 433.527 697.954 433.98C698.767 434.433 699.4 435.073 699.854 435.9C700.307 436.713 700.534 437.653 700.534 438.72ZM698.154 438C698.14 437.16 697.84 436.487 697.254 435.98C696.667 435.473 695.94 435.22 695.074 435.22C694.287 435.22 693.614 435.473 693.054 435.98C692.494 436.473 692.16 437.147 692.054 438H698.154ZM705.057 429.7V444.5H702.777V429.7H705.057ZM712.671 435.34H710.631V444.5H708.331V435.34H707.031V433.48H708.331V432.7C708.331 431.433 708.664 430.513 709.331 429.94C710.011 429.353 711.071 429.06 712.511 429.06V430.96C711.817 430.96 711.331 431.093 711.051 431.36C710.771 431.613 710.631 432.06 710.631 432.7V433.48H712.671V435.34Z" fill="#232323"/>
<path d="M87.6094 89C87.6094 75.7452 98.3545 65 111.609 65H351.609C364.864 65 375.609 75.7452 375.609 89V171C375.609 184.255 364.864 195 351.609 195H111.609C98.3545 195 87.6094 184.255 87.6094 171V89Z" fill="#F0F0F0"/>
<path d="M155.817 137.64C154.523 137.64 153.33 137.34 152.237 136.74C151.157 136.127 150.297 135.28 149.657 134.2C149.03 133.107 148.717 131.88 148.717 130.52C148.717 129.16 149.03 127.94 149.657 126.86C150.297 125.78 151.157 124.94 152.237 124.34C153.33 123.727 154.523 123.42 155.817 123.42C157.123 123.42 158.317 123.727 159.397 124.34C160.49 124.94 161.35 125.78 161.977 126.86C162.603 127.94 162.917 129.16 162.917 130.52C162.917 131.88 162.603 133.107 161.977 134.2C161.35 135.28 160.49 136.127 159.397 136.74C158.317 137.34 157.123 137.64 155.817 137.64ZM155.817 135.66C156.737 135.66 157.557 135.453 158.277 135.04C158.997 134.613 159.557 134.013 159.957 133.24C160.37 132.453 160.577 131.547 160.577 130.52C160.577 129.493 160.37 128.593 159.957 127.82C159.557 127.047 158.997 126.453 158.277 126.04C157.557 125.627 156.737 125.42 155.817 125.42C154.897 125.42 154.077 125.627 153.357 126.04C152.637 126.453 152.07 127.047 151.657 127.82C151.257 128.593 151.057 129.493 151.057 130.52C151.057 131.547 151.257 132.453 151.657 133.24C152.07 134.013 152.637 134.613 153.357 135.04C154.077 135.453 154.897 135.66 155.817 135.66ZM169.74 137.64C168.807 137.64 167.967 137.48 167.22 137.16C166.473 136.827 165.887 136.36 165.46 135.76C165.033 135.16 164.82 134.46 164.82 133.66H167.26C167.313 134.26 167.547 134.753 167.96 135.14C168.387 135.527 168.98 135.72 169.74 135.72C170.527 135.72 171.14 135.533 171.58 135.16C172.02 134.773 172.24 134.28 172.24 133.68C172.24 133.213 172.1 132.833 171.82 132.54C171.553 132.247 171.213 132.02 170.8 131.86C170.4 131.7 169.84 131.527 169.12 131.34C168.213 131.1 167.473 130.86 166.9 130.62C166.34 130.367 165.86 129.98 165.46 129.46C165.06 128.94 164.86 128.247 164.86 127.38C164.86 126.58 165.06 125.88 165.46 125.28C165.86 124.68 166.42 124.22 167.14 123.9C167.86 123.58 168.693 123.42 169.64 123.42C170.987 123.42 172.087 123.76 172.94 124.44C173.807 125.107 174.287 126.027 174.38 127.2H171.86C171.82 126.693 171.58 126.26 171.14 125.9C170.7 125.54 170.12 125.36 169.4 125.36C168.747 125.36 168.213 125.527 167.8 125.86C167.387 126.193 167.18 126.673 167.18 127.3C167.18 127.727 167.307 128.08 167.56 128.36C167.827 128.627 168.16 128.84 168.56 129C168.96 129.16 169.507 129.333 170.2 129.52C171.12 129.773 171.867 130.027 172.44 130.28C173.027 130.533 173.52 130.927 173.92 131.46C174.333 131.98 174.54 132.68 174.54 133.56C174.54 134.267 174.347 134.933 173.96 135.56C173.587 136.187 173.033 136.693 172.3 137.08C171.58 137.453 170.727 137.64 169.74 137.64ZM188.126 126.3C188.966 126.3 189.712 126.48 190.366 126.84C191.032 127.2 191.552 127.733 191.926 128.44C192.312 129.147 192.506 130 192.506 131V137.5H190.246V131.34C190.246 130.353 189.999 129.6 189.506 129.08C189.012 128.547 188.339 128.28 187.486 128.28C186.632 128.28 185.952 128.547 185.446 129.08C184.952 129.6 184.706 130.353 184.706 131.34V137.5H182.426V122.7H184.706V127.76C185.092 127.293 185.579 126.933 186.166 126.68C186.766 126.427 187.419 126.3 188.126 126.3ZM200.194 137.68C199.154 137.68 198.214 137.447 197.374 136.98C196.534 136.5 195.874 135.833 195.394 134.98C194.914 134.113 194.674 133.113 194.674 131.98C194.674 130.86 194.921 129.867 195.414 129C195.907 128.133 196.581 127.467 197.434 127C198.287 126.533 199.241 126.3 200.294 126.3C201.347 126.3 202.301 126.533 203.154 127C204.007 127.467 204.681 128.133 205.174 129C205.667 129.867 205.914 130.86 205.914 131.98C205.914 133.1 205.661 134.093 205.154 134.96C204.647 135.827 203.954 136.5 203.074 136.98C202.207 137.447 201.247 137.68 200.194 137.68ZM200.194 135.7C200.781 135.7 201.327 135.56 201.834 135.28C202.354 135 202.774 134.58 203.094 134.02C203.414 133.46 203.574 132.78 203.574 131.98C203.574 131.18 203.421 130.507 203.114 129.96C202.807 129.4 202.401 128.98 201.894 128.7C201.387 128.42 200.841 128.28 200.254 128.28C199.667 128.28 199.121 128.42 198.614 128.7C198.121 128.98 197.727 129.4 197.434 129.96C197.141 130.507 196.994 131.18 196.994 131.98C196.994 133.167 197.294 134.087 197.894 134.74C198.507 135.38 199.274 135.7 200.194 135.7ZM221.508 126.3C222.375 126.3 223.148 126.48 223.828 126.84C224.521 127.2 225.061 127.733 225.448 128.44C225.848 129.147 226.048 130 226.048 131V137.5H223.788V131.34C223.788 130.353 223.541 129.6 223.048 129.08C222.555 128.547 221.881 128.28 221.028 128.28C220.175 128.28 219.495 128.547 218.988 129.08C218.495 129.6 218.248 130.353 218.248 131.34V137.5H215.988V131.34C215.988 130.353 215.741 129.6 215.248 129.08C214.755 128.547 214.081 128.28 213.228 128.28C212.375 128.28 211.695 128.547 211.188 129.08C210.695 129.6 210.448 130.353 210.448 131.34V137.5H208.168V126.48H210.448V127.74C210.821 127.287 211.295 126.933 211.868 126.68C212.441 126.427 213.055 126.3 213.708 126.3C214.588 126.3 215.375 126.487 216.068 126.86C216.761 127.233 217.295 127.773 217.668 128.48C218.001 127.813 218.521 127.287 219.228 126.9C219.935 126.5 220.695 126.3 221.508 126.3ZM239.049 131.72C239.049 132.133 239.023 132.507 238.969 132.84H230.549C230.616 133.72 230.943 134.427 231.529 134.96C232.116 135.493 232.836 135.76 233.689 135.76C234.916 135.76 235.783 135.247 236.289 134.22H238.749C238.416 135.233 237.809 136.067 236.929 136.72C236.063 137.36 234.983 137.68 233.689 137.68C232.636 137.68 231.689 137.447 230.849 136.98C230.023 136.5 229.369 135.833 228.889 134.98C228.423 134.113 228.189 133.113 228.189 131.98C228.189 130.847 228.416 129.853 228.869 129C229.336 128.133 229.983 127.467 230.809 127C231.649 126.533 232.609 126.3 233.689 126.3C234.729 126.3 235.656 126.527 236.469 126.98C237.283 127.433 237.916 128.073 238.369 128.9C238.823 129.713 239.049 130.653 239.049 131.72ZM236.669 131C236.656 130.16 236.356 129.487 235.769 128.98C235.183 128.473 234.456 128.22 233.589 128.22C232.803 128.22 232.129 128.473 231.569 128.98C231.009 129.473 230.676 130.147 230.569 131H236.669ZM250.488 137.68C249.622 137.68 248.842 137.527 248.148 137.22C247.468 136.9 246.928 136.473 246.528 135.94C246.128 135.393 245.915 134.787 245.888 134.12H248.248C248.288 134.587 248.508 134.98 248.908 135.3C249.322 135.607 249.835 135.76 250.448 135.76C251.088 135.76 251.582 135.64 251.928 135.4C252.288 135.147 252.468 134.827 252.468 134.44C252.468 134.027 252.268 133.72 251.868 133.52C251.482 133.32 250.862 133.1 250.008 132.86C249.182 132.633 248.508 132.413 247.988 132.2C247.468 131.987 247.015 131.66 246.628 131.22C246.255 130.78 246.068 130.2 246.068 129.48C246.068 128.893 246.242 128.36 246.588 127.88C246.935 127.387 247.428 127 248.068 126.72C248.722 126.44 249.468 126.3 250.308 126.3C251.562 126.3 252.568 126.62 253.328 127.26C254.102 127.887 254.515 128.747 254.568 129.84H252.288C252.248 129.347 252.048 128.953 251.688 128.66C251.328 128.367 250.842 128.22 250.228 128.22C249.628 128.22 249.168 128.333 248.848 128.56C248.528 128.787 248.368 129.087 248.368 129.46C248.368 129.753 248.475 130 248.688 130.2C248.902 130.4 249.162 130.56 249.468 130.68C249.775 130.787 250.228 130.927 250.828 131.1C251.628 131.313 252.282 131.533 252.788 131.76C253.308 131.973 253.755 132.293 254.128 132.72C254.502 133.147 254.695 133.713 254.708 134.42C254.708 135.047 254.535 135.607 254.188 136.1C253.842 136.593 253.348 136.98 252.708 137.26C252.082 137.54 251.342 137.68 250.488 137.68ZM256.412 131.98C256.412 130.847 256.639 129.853 257.092 129C257.559 128.133 258.199 127.467 259.012 127C259.825 126.533 260.759 126.3 261.812 126.3C263.145 126.3 264.245 126.62 265.112 127.26C265.992 127.887 266.585 128.787 266.892 129.96H264.432C264.232 129.413 263.912 128.987 263.472 128.68C263.032 128.373 262.479 128.22 261.812 128.22C260.879 128.22 260.132 128.553 259.572 129.22C259.025 129.873 258.752 130.793 258.752 131.98C258.752 133.167 259.025 134.093 259.572 134.76C260.132 135.427 260.879 135.76 261.812 135.76C263.132 135.76 264.005 135.18 264.432 134.02H266.892C266.572 135.14 265.972 136.033 265.092 136.7C264.212 137.353 263.119 137.68 261.812 137.68C260.759 137.68 259.825 137.447 259.012 136.98C258.199 136.5 257.559 135.833 257.092 134.98C256.639 134.113 256.412 133.113 256.412 131.98ZM271.444 128.08C271.777 127.52 272.217 127.087 272.764 126.78C273.324 126.46 273.984 126.3 274.744 126.3V128.66H274.164C273.271 128.66 272.591 128.887 272.124 129.34C271.671 129.793 271.444 130.58 271.444 131.7V137.5H269.164V126.48H271.444V128.08ZM286.94 131.72C286.94 132.133 286.913 132.507 286.86 132.84H278.44C278.507 133.72 278.833 134.427 279.42 134.96C280.007 135.493 280.727 135.76 281.58 135.76C282.807 135.76 283.673 135.247 284.18 134.22H286.64C286.307 135.233 285.7 136.067 284.82 136.72C283.953 137.36 282.873 137.68 281.58 137.68C280.527 137.68 279.58 137.447 278.74 136.98C277.913 136.5 277.26 135.833 276.78 134.98C276.313 134.113 276.08 133.113 276.08 131.98C276.08 130.847 276.307 129.853 276.76 129C277.227 128.133 277.873 127.467 278.7 127C279.54 126.533 280.5 126.3 281.58 126.3C282.62 126.3 283.547 126.527 284.36 126.98C285.173 127.433 285.807 128.073 286.26 128.9C286.713 129.713 286.94 130.653 286.94 131.72ZM284.56 131C284.547 130.16 284.247 129.487 283.66 128.98C283.073 128.473 282.347 128.22 281.48 128.22C280.693 128.22 280.02 128.473 279.46 128.98C278.9 129.473 278.567 130.147 278.46 131H284.56ZM299.284 131.72C299.284 132.133 299.257 132.507 299.204 132.84H290.784C290.85 133.72 291.177 134.427 291.764 134.96C292.35 135.493 293.07 135.76 293.924 135.76C295.15 135.76 296.017 135.247 296.524 134.22H298.984C298.65 135.233 298.044 136.067 297.164 136.72C296.297 137.36 295.217 137.68 293.924 137.68C292.87 137.68 291.924 137.447 291.084 136.98C290.257 136.5 289.604 135.833 289.124 134.98C288.657 134.113 288.424 133.113 288.424 131.98C288.424 130.847 288.65 129.853 289.104 129C289.57 128.133 290.217 127.467 291.044 127C291.884 126.533 292.844 126.3 293.924 126.3C294.964 126.3 295.89 126.527 296.704 126.98C297.517 127.433 298.15 128.073 298.604 128.9C299.057 129.713 299.284 130.653 299.284 131.72ZM296.904 131C296.89 130.16 296.59 129.487 296.004 128.98C295.417 128.473 294.69 128.22 293.824 128.22C293.037 128.22 292.364 128.473 291.804 128.98C291.244 129.473 290.91 130.147 290.804 131H296.904ZM307.087 126.3C307.954 126.3 308.727 126.48 309.407 126.84C310.101 127.2 310.641 127.733 311.027 128.44C311.414 129.147 311.607 130 311.607 131V137.5H309.347V131.34C309.347 130.353 309.101 129.6 308.607 129.08C308.114 128.547 307.441 128.28 306.587 128.28C305.734 128.28 305.054 128.547 304.547 129.08C304.054 129.6 303.807 130.353 303.807 131.34V137.5H301.527V126.48H303.807V127.74C304.181 127.287 304.654 126.933 305.227 126.68C305.814 126.427 306.434 126.3 307.087 126.3Z" fill="#232323"/>
<path d="M877.609 116C877.609 102.745 888.355 92 901.609 92H1141.61C1154.86 92 1165.61 102.745 1165.61 116V143C1165.61 156.255 1154.86 167 1141.61 167H901.609C888.355 167 877.609 156.255 877.609 143V116Z" fill="#F0F0F0"/>
<path d="M932.271 134.16H926.451L925.451 137H923.071L928.051 123.08H930.691L935.671 137H933.271L932.271 134.16ZM931.631 132.3L929.371 125.84L927.091 132.3H931.631ZM937.076 131.44C937.076 130.333 937.303 129.353 937.756 128.5C938.223 127.647 938.849 126.987 939.636 126.52C940.436 126.04 941.323 125.8 942.296 125.8C943.016 125.8 943.723 125.96 944.416 126.28C945.123 126.587 945.683 127 946.096 127.52V122.2H948.396V137H946.096V135.34C945.723 135.873 945.203 136.313 944.536 136.66C943.883 137.007 943.129 137.18 942.276 137.18C941.316 137.18 940.436 136.94 939.636 136.46C938.849 135.967 938.223 135.287 937.756 134.42C937.303 133.54 937.076 132.547 937.076 131.44ZM946.096 131.48C946.096 130.72 945.936 130.06 945.616 129.5C945.309 128.94 944.903 128.513 944.396 128.22C943.889 127.927 943.343 127.78 942.756 127.78C942.169 127.78 941.623 127.927 941.116 128.22C940.609 128.5 940.196 128.92 939.876 129.48C939.569 130.027 939.416 130.68 939.416 131.44C939.416 132.2 939.569 132.867 939.876 133.44C940.196 134.013 940.609 134.453 941.116 134.76C941.636 135.053 942.183 135.2 942.756 135.2C943.343 135.2 943.889 135.053 944.396 134.76C944.903 134.467 945.309 134.04 945.616 133.48C945.936 132.907 946.096 132.24 946.096 131.48ZM950.631 131.44C950.631 130.333 950.857 129.353 951.311 128.5C951.777 127.647 952.404 126.987 953.191 126.52C953.991 126.04 954.877 125.8 955.851 125.8C956.571 125.8 957.277 125.96 957.971 126.28C958.677 126.587 959.237 127 959.651 127.52V122.2H961.951V137H959.651V135.34C959.277 135.873 958.757 136.313 958.091 136.66C957.437 137.007 956.684 137.18 955.831 137.18C954.871 137.18 953.991 136.94 953.191 136.46C952.404 135.967 951.777 135.287 951.311 134.42C950.857 133.54 950.631 132.547 950.631 131.44ZM959.651 131.48C959.651 130.72 959.491 130.06 959.171 129.5C958.864 128.94 958.457 128.513 957.951 128.22C957.444 127.927 956.897 127.78 956.311 127.78C955.724 127.78 955.177 127.927 954.671 128.22C954.164 128.5 953.751 128.92 953.431 129.48C953.124 130.027 952.971 130.68 952.971 131.44C952.971 132.2 953.124 132.867 953.431 133.44C953.751 134.013 954.164 134.453 954.671 134.76C955.191 135.053 955.737 135.2 956.311 135.2C956.897 135.2 957.444 135.053 957.951 134.76C958.457 134.467 958.864 134.04 959.171 133.48C959.491 132.907 959.651 132.24 959.651 131.48ZM972.421 127.6C972.807 127.093 973.334 126.667 974.001 126.32C974.667 125.973 975.421 125.8 976.261 125.8C977.221 125.8 978.094 126.04 978.881 126.52C979.681 126.987 980.307 127.647 980.761 128.5C981.214 129.353 981.441 130.333 981.441 131.44C981.441 132.547 981.214 133.54 980.761 134.42C980.307 135.287 979.681 135.967 978.881 136.46C978.094 136.94 977.221 137.18 976.261 137.18C975.421 137.18 974.674 137.013 974.021 136.68C973.367 136.333 972.834 135.907 972.421 135.4V142.24H970.141V125.98H972.421V127.6ZM979.121 131.44C979.121 130.68 978.961 130.027 978.641 129.48C978.334 128.92 977.921 128.5 977.401 128.22C976.894 127.927 976.347 127.78 975.761 127.78C975.187 127.78 974.641 127.927 974.121 128.22C973.614 128.513 973.201 128.94 972.881 129.5C972.574 130.06 972.421 130.72 972.421 131.48C972.421 132.24 972.574 132.907 972.881 133.48C973.201 134.04 973.614 134.467 974.121 134.76C974.641 135.053 975.187 135.2 975.761 135.2C976.347 135.2 976.894 135.053 977.401 134.76C977.921 134.453 978.334 134.013 978.641 133.44C978.961 132.867 979.121 132.2 979.121 131.44ZM985.975 122.2V137H983.695V122.2H985.975ZM988.209 131.44C988.209 130.333 988.435 129.353 988.889 128.5C989.355 127.647 989.982 126.987 990.769 126.52C991.569 126.04 992.449 125.8 993.409 125.8C994.275 125.8 995.029 125.973 995.669 126.32C996.322 126.653 996.842 127.073 997.229 127.58V125.98H999.529V137H997.229V135.36C996.842 135.88 996.315 136.313 995.649 136.66C994.982 137.007 994.222 137.18 993.369 137.18C992.422 137.18 991.555 136.94 990.769 136.46C989.982 135.967 989.355 135.287 988.889 134.42C988.435 133.54 988.209 132.547 988.209 131.44ZM997.229 131.48C997.229 130.72 997.069 130.06 996.749 129.5C996.442 128.94 996.035 128.513 995.529 128.22C995.022 127.927 994.475 127.78 993.889 127.78C993.302 127.78 992.755 127.927 992.249 128.22C991.742 128.5 991.329 128.92 991.009 129.48C990.702 130.027 990.549 130.68 990.549 131.44C990.549 132.2 990.702 132.867 991.009 133.44C991.329 134.013 991.742 134.453 992.249 134.76C992.769 135.053 993.315 135.2 993.889 135.2C994.475 135.2 995.022 135.053 995.529 134.76C996.035 134.467 996.442 134.04 996.749 133.48C997.069 132.907 997.229 132.24 997.229 131.48ZM1008.08 125.8C1008.95 125.8 1009.72 125.98 1010.4 126.34C1011.1 126.7 1011.64 127.233 1012.02 127.94C1012.41 128.647 1012.6 129.5 1012.6 130.5V137H1010.34V130.84C1010.34 129.853 1010.1 129.1 1009.6 128.58C1009.11 128.047 1008.44 127.78 1007.58 127.78C1006.73 127.78 1006.05 128.047 1005.54 128.58C1005.05 129.1 1004.8 129.853 1004.8 130.84V137H1002.52V125.98H1004.8V127.24C1005.18 126.787 1005.65 126.433 1006.22 126.18C1006.81 125.927 1007.43 125.8 1008.08 125.8ZM1018.17 127.84V133.94C1018.17 134.353 1018.27 134.653 1018.45 134.84C1018.65 135.013 1018.99 135.1 1019.45 135.1H1020.85V137H1019.05C1018.03 137 1017.24 136.76 1016.69 136.28C1016.15 135.8 1015.87 135.02 1015.87 133.94V127.84H1014.57V125.98H1015.87V123.24H1018.17V125.98H1020.85V127.84H1018.17ZM1022.19 131.48C1022.19 130.347 1022.42 129.353 1022.87 128.5C1023.34 127.633 1023.98 126.967 1024.79 126.5C1025.61 126.033 1026.54 125.8 1027.59 125.8C1028.93 125.8 1030.03 126.12 1030.89 126.76C1031.77 127.387 1032.37 128.287 1032.67 129.46H1030.21C1030.01 128.913 1029.69 128.487 1029.25 128.18C1028.81 127.873 1028.26 127.72 1027.59 127.72C1026.66 127.72 1025.91 128.053 1025.35 128.72C1024.81 129.373 1024.53 130.293 1024.53 131.48C1024.53 132.667 1024.81 133.593 1025.35 134.26C1025.91 134.927 1026.66 135.26 1027.59 135.26C1028.91 135.26 1029.79 134.68 1030.21 133.52H1032.67C1032.35 134.64 1031.75 135.533 1030.87 136.2C1029.99 136.853 1028.9 137.18 1027.59 137.18C1026.54 137.18 1025.61 136.947 1024.79 136.48C1023.98 136 1023.34 135.333 1022.87 134.48C1022.42 133.613 1022.19 132.613 1022.19 131.48ZM1034.19 131.44C1034.19 130.333 1034.41 129.353 1034.87 128.5C1035.33 127.647 1035.96 126.987 1036.75 126.52C1037.55 126.04 1038.43 125.8 1039.39 125.8C1040.25 125.8 1041.01 125.973 1041.65 126.32C1042.3 126.653 1042.82 127.073 1043.21 127.58V125.98H1045.51V137H1043.21V135.36C1042.82 135.88 1042.29 136.313 1041.63 136.66C1040.96 137.007 1040.2 137.18 1039.35 137.18C1038.4 137.18 1037.53 136.94 1036.75 136.46C1035.96 135.967 1035.33 135.287 1034.87 134.42C1034.41 133.54 1034.19 132.547 1034.19 131.44ZM1043.21 131.48C1043.21 130.72 1043.05 130.06 1042.73 129.5C1042.42 128.94 1042.01 128.513 1041.51 128.22C1041 127.927 1040.45 127.78 1039.87 127.78C1039.28 127.78 1038.73 127.927 1038.23 128.22C1037.72 128.5 1037.31 128.92 1036.99 129.48C1036.68 130.027 1036.53 130.68 1036.53 131.44C1036.53 132.2 1036.68 132.867 1036.99 133.44C1037.31 134.013 1037.72 134.453 1038.23 134.76C1038.75 135.053 1039.29 135.2 1039.87 135.2C1040.45 135.2 1041 135.053 1041.51 134.76C1042.01 134.467 1042.42 134.04 1042.73 133.48C1043.05 132.907 1043.21 132.24 1043.21 131.48ZM1050.78 127.58C1051.11 127.02 1051.55 126.587 1052.1 126.28C1052.66 125.96 1053.32 125.8 1054.08 125.8V128.16H1053.5C1052.61 128.16 1051.93 128.387 1051.46 128.84C1051.01 129.293 1050.78 130.08 1050.78 131.2V137H1048.5V125.98H1050.78V127.58ZM1066.28 131.22C1066.28 131.633 1066.25 132.007 1066.2 132.34H1057.78C1057.84 133.22 1058.17 133.927 1058.76 134.46C1059.34 134.993 1060.06 135.26 1060.92 135.26C1062.14 135.26 1063.01 134.747 1063.52 133.72H1065.98C1065.64 134.733 1065.04 135.567 1064.16 136.22C1063.29 136.86 1062.21 137.18 1060.92 137.18C1059.86 137.18 1058.92 136.947 1058.08 136.48C1057.25 136 1056.6 135.333 1056.12 134.48C1055.65 133.613 1055.42 132.613 1055.42 131.48C1055.42 130.347 1055.64 129.353 1056.1 128.5C1056.56 127.633 1057.21 126.967 1058.04 126.5C1058.88 126.033 1059.84 125.8 1060.92 125.8C1061.96 125.8 1062.88 126.027 1063.7 126.48C1064.51 126.933 1065.14 127.573 1065.6 128.4C1066.05 129.213 1066.28 130.153 1066.28 131.22ZM1063.9 130.5C1063.88 129.66 1063.58 128.987 1063 128.48C1062.41 127.973 1061.68 127.72 1060.82 127.72C1060.03 127.72 1059.36 127.973 1058.8 128.48C1058.24 128.973 1057.9 129.647 1057.8 130.5H1063.9ZM1075.99 127.6C1076.38 127.093 1076.91 126.667 1077.57 126.32C1078.24 125.973 1078.99 125.8 1079.83 125.8C1080.79 125.8 1081.67 126.04 1082.45 126.52C1083.25 126.987 1083.88 127.647 1084.33 128.5C1084.79 129.353 1085.01 130.333 1085.01 131.44C1085.01 132.547 1084.79 133.54 1084.33 134.42C1083.88 135.287 1083.25 135.967 1082.45 136.46C1081.67 136.94 1080.79 137.18 1079.83 137.18C1078.99 137.18 1078.25 137.013 1077.59 136.68C1076.94 136.333 1076.41 135.907 1075.99 135.4V142.24H1073.71V125.98H1075.99V127.6ZM1082.69 131.44C1082.69 130.68 1082.53 130.027 1082.21 129.48C1081.91 128.92 1081.49 128.5 1080.97 128.22C1080.47 127.927 1079.92 127.78 1079.33 127.78C1078.76 127.78 1078.21 127.927 1077.69 128.22C1077.19 128.513 1076.77 128.94 1076.45 129.5C1076.15 130.06 1075.99 130.72 1075.99 131.48C1075.99 132.24 1076.15 132.907 1076.45 133.48C1076.77 134.04 1077.19 134.467 1077.69 134.76C1078.21 135.053 1078.76 135.2 1079.33 135.2C1079.92 135.2 1080.47 135.053 1080.97 134.76C1081.49 134.453 1081.91 134.013 1082.21 133.44C1082.53 132.867 1082.69 132.2 1082.69 131.44ZM1092.05 137.18C1091.01 137.18 1090.07 136.947 1089.23 136.48C1088.39 136 1087.73 135.333 1087.25 134.48C1086.77 133.613 1086.53 132.613 1086.53 131.48C1086.53 130.36 1086.78 129.367 1087.27 128.5C1087.76 127.633 1088.44 126.967 1089.29 126.5C1090.14 126.033 1091.1 125.8 1092.15 125.8C1093.2 125.8 1094.16 126.033 1095.01 126.5C1095.86 126.967 1096.54 127.633 1097.03 128.5C1097.52 129.367 1097.77 130.36 1097.77 131.48C1097.77 132.6 1097.52 133.593 1097.01 134.46C1096.5 135.327 1095.81 136 1094.93 136.48C1094.06 136.947 1093.1 137.18 1092.05 137.18ZM1092.05 135.2C1092.64 135.2 1093.18 135.06 1093.69 134.78C1094.21 134.5 1094.63 134.08 1094.95 133.52C1095.27 132.96 1095.43 132.28 1095.43 131.48C1095.43 130.68 1095.28 130.007 1094.97 129.46C1094.66 128.9 1094.26 128.48 1093.75 128.2C1093.24 127.92 1092.7 127.78 1092.11 127.78C1091.52 127.78 1090.98 127.92 1090.47 128.2C1089.98 128.48 1089.58 128.9 1089.29 129.46C1089 130.007 1088.85 130.68 1088.85 131.48C1088.85 132.667 1089.15 133.587 1089.75 134.24C1090.36 134.88 1091.13 135.2 1092.05 135.2ZM1099.26 131.44C1099.26 130.333 1099.49 129.353 1099.94 128.5C1100.41 127.647 1101.04 126.987 1101.82 126.52C1102.62 126.04 1103.51 125.8 1104.48 125.8C1105.2 125.8 1105.91 125.96 1106.6 126.28C1107.31 126.587 1107.87 127 1108.28 127.52V122.2H1110.58V137H1108.28V135.34C1107.91 135.873 1107.39 136.313 1106.72 136.66C1106.07 137.007 1105.32 137.18 1104.46 137.18C1103.5 137.18 1102.62 136.94 1101.82 136.46C1101.04 135.967 1100.41 135.287 1099.94 134.42C1099.49 133.54 1099.26 132.547 1099.26 131.44ZM1108.28 131.48C1108.28 130.72 1108.12 130.06 1107.8 129.5C1107.5 128.94 1107.09 128.513 1106.58 128.22C1106.08 127.927 1105.53 127.78 1104.94 127.78C1104.36 127.78 1103.81 127.927 1103.3 128.22C1102.8 128.5 1102.38 128.92 1102.06 129.48C1101.76 130.027 1101.6 130.68 1101.6 131.44C1101.6 132.2 1101.76 132.867 1102.06 133.44C1102.38 134.013 1102.8 134.453 1103.3 134.76C1103.82 135.053 1104.37 135.2 1104.94 135.2C1105.53 135.2 1106.08 135.053 1106.58 134.76C1107.09 134.467 1107.5 134.04 1107.8 133.48C1108.12 132.907 1108.28 132.24 1108.28 131.48Z" fill="#232323"/>
<path d="M877.609 270C877.609 256.745 888.355 246 901.609 246H1141.61C1154.86 246 1165.61 256.745 1165.61 270V297C1165.61 310.255 1154.86 321 1141.61 321H901.609C888.355 321 877.609 310.255 877.609 297V270Z" fill="#F0F0F0"/>
<path d="M979.028 288.16H973.208L972.208 291H969.828L974.808 277.08H977.448L982.428 291H980.028L979.028 288.16ZM978.388 286.3L976.128 279.84L973.848 286.3H978.388ZM983.834 285.44C983.834 284.333 984.06 283.353 984.514 282.5C984.98 281.647 985.607 280.987 986.394 280.52C987.194 280.04 988.08 279.8 989.054 279.8C989.774 279.8 990.48 279.96 991.174 280.28C991.88 280.587 992.44 281 992.854 281.52V276.2H995.154V291H992.854V289.34C992.48 289.873 991.96 290.313 991.294 290.66C990.64 291.007 989.887 291.18 989.034 291.18C988.074 291.18 987.194 290.94 986.394 290.46C985.607 289.967 984.98 289.287 984.514 288.42C984.06 287.54 983.834 286.547 983.834 285.44ZM992.854 285.48C992.854 284.72 992.694 284.06 992.374 283.5C992.067 282.94 991.66 282.513 991.154 282.22C990.647 281.927 990.1 281.78 989.514 281.78C988.927 281.78 988.38 281.927 987.874 282.22C987.367 282.5 986.954 282.92 986.634 283.48C986.327 284.027 986.174 284.68 986.174 285.44C986.174 286.2 986.327 286.867 986.634 287.44C986.954 288.013 987.367 288.453 987.874 288.76C988.394 289.053 988.94 289.2 989.514 289.2C990.1 289.2 990.647 289.053 991.154 288.76C991.66 288.467 992.067 288.04 992.374 287.48C992.694 286.907 992.854 286.24 992.854 285.48ZM997.388 285.44C997.388 284.333 997.615 283.353 998.068 282.5C998.535 281.647 999.162 280.987 999.948 280.52C1000.75 280.04 1001.64 279.8 1002.61 279.8C1003.33 279.8 1004.04 279.96 1004.73 280.28C1005.44 280.587 1006 281 1006.41 281.52V276.2H1008.71V291H1006.41V289.34C1006.04 289.873 1005.52 290.313 1004.85 290.66C1004.2 291.007 1003.44 291.18 1002.59 291.18C1001.63 291.18 1000.75 290.94 999.948 290.46C999.162 289.967 998.535 289.287 998.068 288.42C997.615 287.54 997.388 286.547 997.388 285.44ZM1006.41 285.48C1006.41 284.72 1006.25 284.06 1005.93 283.5C1005.62 282.94 1005.22 282.513 1004.71 282.22C1004.2 281.927 1003.66 281.78 1003.07 281.78C1002.48 281.78 1001.94 281.927 1001.43 282.22C1000.92 282.5 1000.51 282.92 1000.19 283.48C999.882 284.027 999.728 284.68 999.728 285.44C999.728 286.2 999.882 286.867 1000.19 287.44C1000.51 288.013 1000.92 288.453 1001.43 288.76C1001.95 289.053 1002.5 289.2 1003.07 289.2C1003.66 289.2 1004.2 289.053 1004.71 288.76C1005.22 288.467 1005.62 288.04 1005.93 287.48C1006.25 286.907 1006.41 286.24 1006.41 285.48ZM1019.18 281.6C1019.57 281.093 1020.09 280.667 1020.76 280.32C1021.43 279.973 1022.18 279.8 1023.02 279.8C1023.98 279.8 1024.85 280.04 1025.64 280.52C1026.44 280.987 1027.07 281.647 1027.52 282.5C1027.97 283.353 1028.2 284.333 1028.2 285.44C1028.2 286.547 1027.97 287.54 1027.52 288.42C1027.07 289.287 1026.44 289.967 1025.64 290.46C1024.85 290.94 1023.98 291.18 1023.02 291.18C1022.18 291.18 1021.43 291.013 1020.78 290.68C1020.13 290.333 1019.59 289.907 1019.18 289.4V296.24H1016.9V279.98H1019.18V281.6ZM1025.88 285.44C1025.88 284.68 1025.72 284.027 1025.4 283.48C1025.09 282.92 1024.68 282.5 1024.16 282.22C1023.65 281.927 1023.11 281.78 1022.52 281.78C1021.95 281.78 1021.4 281.927 1020.88 282.22C1020.37 282.513 1019.96 282.94 1019.64 283.5C1019.33 284.06 1019.18 284.72 1019.18 285.48C1019.18 286.24 1019.33 286.907 1019.64 287.48C1019.96 288.04 1020.37 288.467 1020.88 288.76C1021.4 289.053 1021.95 289.2 1022.52 289.2C1023.11 289.2 1023.65 289.053 1024.16 288.76C1024.68 288.453 1025.09 288.013 1025.4 287.44C1025.72 286.867 1025.88 286.2 1025.88 285.44ZM1032.73 276.2V291H1030.45V276.2H1032.73ZM1034.97 285.44C1034.97 284.333 1035.19 283.353 1035.65 282.5C1036.11 281.647 1036.74 280.987 1037.53 280.52C1038.33 280.04 1039.21 279.8 1040.17 279.8C1041.03 279.8 1041.79 279.973 1042.43 280.32C1043.08 280.653 1043.6 281.073 1043.99 281.58V279.98H1046.29V291H1043.99V289.36C1043.6 289.88 1043.07 290.313 1042.41 290.66C1041.74 291.007 1040.98 291.18 1040.13 291.18C1039.18 291.18 1038.31 290.94 1037.53 290.46C1036.74 289.967 1036.11 289.287 1035.65 288.42C1035.19 287.54 1034.97 286.547 1034.97 285.44ZM1043.99 285.48C1043.99 284.72 1043.83 284.06 1043.51 283.5C1043.2 282.94 1042.79 282.513 1042.29 282.22C1041.78 281.927 1041.23 281.78 1040.65 281.78C1040.06 281.78 1039.51 281.927 1039.01 282.22C1038.5 282.5 1038.09 282.92 1037.77 283.48C1037.46 284.027 1037.31 284.68 1037.31 285.44C1037.31 286.2 1037.46 286.867 1037.77 287.44C1038.09 288.013 1038.5 288.453 1039.01 288.76C1039.53 289.053 1040.07 289.2 1040.65 289.2C1041.23 289.2 1041.78 289.053 1042.29 288.76C1042.79 288.467 1043.2 288.04 1043.51 287.48C1043.83 286.907 1043.99 286.24 1043.99 285.48ZM1054.84 279.8C1055.71 279.8 1056.48 279.98 1057.16 280.34C1057.85 280.7 1058.39 281.233 1058.78 281.94C1059.17 282.647 1059.36 283.5 1059.36 284.5V291H1057.1V284.84C1057.1 283.853 1056.85 283.1 1056.36 282.58C1055.87 282.047 1055.19 281.78 1054.34 281.78C1053.49 281.78 1052.81 282.047 1052.3 282.58C1051.81 283.1 1051.56 283.853 1051.56 284.84V291H1049.28V279.98H1051.56V281.24C1051.93 280.787 1052.41 280.433 1052.98 280.18C1053.57 279.927 1054.19 279.8 1054.84 279.8ZM1064.93 281.84V287.94C1064.93 288.353 1065.02 288.653 1065.21 288.84C1065.41 289.013 1065.74 289.1 1066.21 289.1H1067.61V291H1065.81C1064.78 291 1064 290.76 1063.45 290.28C1062.9 289.8 1062.63 289.02 1062.63 287.94V281.84H1061.33V279.98H1062.63V277.24H1064.93V279.98H1067.61V281.84H1064.93Z" fill="#232323"/>
<path d="M482.609 270C482.609 256.745 493.355 246 506.609 246H746.609C759.864 246 770.609 256.745 770.609 270V297C770.609 310.255 759.864 321 746.609 321H506.609C493.355 321 482.609 310.255 482.609 297V270Z" fill="#F0F0F0"/>
<path d="M583.358 277.1L579.238 291H576.658L573.738 280.48L570.638 291L568.078 291.02L564.138 277.1H566.558L569.438 288.42L572.558 277.1H575.118L578.018 288.36L580.918 277.1H583.358ZM584.478 285.44C584.478 284.333 584.705 283.353 585.158 282.5C585.625 281.647 586.252 280.987 587.038 280.52C587.838 280.04 588.718 279.8 589.678 279.8C590.545 279.8 591.298 279.973 591.938 280.32C592.592 280.653 593.112 281.073 593.498 281.58V279.98H595.798V291H593.498V289.36C593.112 289.88 592.585 290.313 591.918 290.66C591.252 291.007 590.492 291.18 589.638 291.18C588.692 291.18 587.825 290.94 587.038 290.46C586.252 289.967 585.625 289.287 585.158 288.42C584.705 287.54 584.478 286.547 584.478 285.44ZM593.498 285.48C593.498 284.72 593.338 284.06 593.018 283.5C592.712 282.94 592.305 282.513 591.798 282.22C591.292 281.927 590.745 281.78 590.158 281.78C589.572 281.78 589.025 281.927 588.518 282.22C588.012 282.5 587.598 282.92 587.278 283.48C586.972 284.027 586.818 284.68 586.818 285.44C586.818 286.2 586.972 286.867 587.278 287.44C587.598 288.013 588.012 288.453 588.518 288.76C589.038 289.053 589.585 289.2 590.158 289.2C590.745 289.2 591.292 289.053 591.798 288.76C592.305 288.467 592.712 288.04 593.018 287.48C593.338 286.907 593.498 286.24 593.498 285.48ZM601.453 281.84V287.94C601.453 288.353 601.546 288.653 601.733 288.84C601.933 289.013 602.266 289.1 602.733 289.1H604.133V291H602.333C601.306 291 600.52 290.76 599.973 290.28C599.426 289.8 599.153 289.02 599.153 287.94V281.84H597.853V279.98H599.153V277.24H601.453V279.98H604.133V281.84H601.453ZM616.334 285.22C616.334 285.633 616.308 286.007 616.254 286.34H607.834C607.901 287.22 608.228 287.927 608.814 288.46C609.401 288.993 610.121 289.26 610.974 289.26C612.201 289.26 613.068 288.747 613.574 287.72H616.034C615.701 288.733 615.094 289.567 614.214 290.22C613.348 290.86 612.268 291.18 610.974 291.18C609.921 291.18 608.974 290.947 608.134 290.48C607.308 290 606.654 289.333 606.174 288.48C605.708 287.613 605.474 286.613 605.474 285.48C605.474 284.347 605.701 283.353 606.154 282.5C606.621 281.633 607.268 280.967 608.094 280.5C608.934 280.033 609.894 279.8 610.974 279.8C612.014 279.8 612.941 280.027 613.754 280.48C614.568 280.933 615.201 281.573 615.654 282.4C616.108 283.213 616.334 284.153 616.334 285.22ZM613.954 284.5C613.941 283.66 613.641 282.987 613.054 282.48C612.468 281.973 611.741 281.72 610.874 281.72C610.088 281.72 609.414 281.973 608.854 282.48C608.294 282.973 607.961 283.647 607.854 284.5H613.954ZM620.858 281.58C621.191 281.02 621.631 280.587 622.178 280.28C622.738 279.96 623.398 279.8 624.158 279.8V282.16H623.578C622.685 282.16 622.005 282.387 621.538 282.84C621.085 283.293 620.858 284.08 620.858 285.2V291H618.578V279.98H620.858V281.58ZM633.729 281.6C634.116 281.093 634.643 280.667 635.309 280.32C635.976 279.973 636.729 279.8 637.569 279.8C638.529 279.8 639.403 280.04 640.189 280.52C640.989 280.987 641.616 281.647 642.069 282.5C642.523 283.353 642.749 284.333 642.749 285.44C642.749 286.547 642.523 287.54 642.069 288.42C641.616 289.287 640.989 289.967 640.189 290.46C639.403 290.94 638.529 291.18 637.569 291.18C636.729 291.18 635.983 291.013 635.329 290.68C634.676 290.333 634.143 289.907 633.729 289.4V296.24H631.449V279.98H633.729V281.6ZM640.429 285.44C640.429 284.68 640.269 284.027 639.949 283.48C639.643 282.92 639.229 282.5 638.709 282.22C638.203 281.927 637.656 281.78 637.069 281.78C636.496 281.78 635.949 281.927 635.429 282.22C634.923 282.513 634.509 282.94 634.189 283.5C633.883 284.06 633.729 284.72 633.729 285.48C633.729 286.24 633.883 286.907 634.189 287.48C634.509 288.04 634.923 288.467 635.429 288.76C635.949 289.053 636.496 289.2 637.069 289.2C637.656 289.2 638.203 289.053 638.709 288.76C639.229 288.453 639.643 288.013 639.949 287.44C640.269 286.867 640.429 286.2 640.429 285.44ZM647.284 276.2V291H645.004V276.2H647.284ZM649.517 285.44C649.517 284.333 649.744 283.353 650.197 282.5C650.664 281.647 651.291 280.987 652.077 280.52C652.877 280.04 653.757 279.8 654.717 279.8C655.584 279.8 656.337 279.973 656.977 280.32C657.631 280.653 658.151 281.073 658.537 281.58V279.98H660.837V291H658.537V289.36C658.151 289.88 657.624 290.313 656.957 290.66C656.291 291.007 655.531 291.18 654.677 291.18C653.731 291.18 652.864 290.94 652.077 290.46C651.291 289.967 650.664 289.287 650.197 288.42C649.744 287.54 649.517 286.547 649.517 285.44ZM658.537 285.48C658.537 284.72 658.377 284.06 658.057 283.5C657.751 282.94 657.344 282.513 656.837 282.22C656.331 281.927 655.784 281.78 655.197 281.78C654.611 281.78 654.064 281.927 653.557 282.22C653.051 282.5 652.637 282.92 652.317 283.48C652.011 284.027 651.857 284.68 651.857 285.44C651.857 286.2 652.011 286.867 652.317 287.44C652.637 288.013 653.051 288.453 653.557 288.76C654.077 289.053 654.624 289.2 655.197 289.2C655.784 289.2 656.331 289.053 656.837 288.76C657.344 288.467 657.751 288.04 658.057 287.48C658.377 286.907 658.537 286.24 658.537 285.48ZM669.392 279.8C670.259 279.8 671.032 279.98 671.712 280.34C672.405 280.7 672.945 281.233 673.332 281.94C673.719 282.647 673.912 283.5 673.912 284.5V291H671.652V284.84C671.652 283.853 671.405 283.1 670.912 282.58C670.419 282.047 669.745 281.78 668.892 281.78C668.039 281.78 667.359 282.047 666.852 282.58C666.359 283.1 666.112 283.853 666.112 284.84V291H663.832V279.98H666.112V281.24C666.485 280.787 666.959 280.433 667.532 280.18C668.119 279.927 668.739 279.8 669.392 279.8ZM679.48 281.84V287.94C679.48 288.353 679.574 288.653 679.76 288.84C679.96 289.013 680.294 289.1 680.76 289.1H682.16V291H680.36C679.334 291 678.547 290.76 678 290.28C677.454 289.8 677.18 289.02 677.18 287.94V281.84H675.88V279.98H677.18V277.24H679.48V279.98H682.16V281.84H679.48Z" fill="#232323"/>
<path d="M87.6094 424.5C87.6094 411.245 98.3545 400.5 111.609 400.5H351.609C364.864 400.5 375.609 411.245 375.609 424.5V451.5C375.609 464.755 364.864 475.5 351.609 475.5H111.609C98.3545 475.5 87.6094 464.755 87.6094 451.5V424.5Z" fill="#F0F0F0"/>
<path d="M152.661 442.66H146.841L145.841 445.5H143.461L148.441 431.58H151.081L156.061 445.5H153.661L152.661 442.66ZM152.021 440.8L149.761 434.34L147.481 440.8H152.021ZM157.467 439.94C157.467 438.833 157.693 437.853 158.147 437C158.613 436.147 159.24 435.487 160.027 435.02C160.827 434.54 161.713 434.3 162.687 434.3C163.407 434.3 164.113 434.46 164.807 434.78C165.513 435.087 166.073 435.5 166.487 436.02V430.7H168.787V445.5H166.487V443.84C166.113 444.373 165.593 444.813 164.927 445.16C164.273 445.507 163.52 445.68 162.667 445.68C161.707 445.68 160.827 445.44 160.027 444.96C159.24 444.467 158.613 443.787 158.147 442.92C157.693 442.04 157.467 441.047 157.467 439.94ZM166.487 439.98C166.487 439.22 166.327 438.56 166.007 438C165.7 437.44 165.293 437.013 164.787 436.72C164.28 436.427 163.733 436.28 163.147 436.28C162.56 436.28 162.013 436.427 161.507 436.72C161 437 160.587 437.42 160.267 437.98C159.96 438.527 159.807 439.18 159.807 439.94C159.807 440.7 159.96 441.367 160.267 441.94C160.587 442.513 161 442.953 161.507 443.26C162.027 443.553 162.573 443.7 163.147 443.7C163.733 443.7 164.28 443.553 164.787 443.26C165.293 442.967 165.7 442.54 166.007 441.98C166.327 441.407 166.487 440.74 166.487 439.98ZM171.021 439.94C171.021 438.833 171.248 437.853 171.701 437C172.168 436.147 172.795 435.487 173.581 435.02C174.381 434.54 175.268 434.3 176.241 434.3C176.961 434.3 177.668 434.46 178.361 434.78C179.068 435.087 179.628 435.5 180.041 436.02V430.7H182.341V445.5H180.041V443.84C179.668 444.373 179.148 444.813 178.481 445.16C177.828 445.507 177.075 445.68 176.221 445.68C175.261 445.68 174.381 445.44 173.581 444.96C172.795 444.467 172.168 443.787 171.701 442.92C171.248 442.04 171.021 441.047 171.021 439.94ZM180.041 439.98C180.041 439.22 179.881 438.56 179.561 438C179.255 437.44 178.848 437.013 178.341 436.72C177.835 436.427 177.288 436.28 176.701 436.28C176.115 436.28 175.568 436.427 175.061 436.72C174.555 437 174.141 437.42 173.821 437.98C173.515 438.527 173.361 439.18 173.361 439.94C173.361 440.7 173.515 441.367 173.821 441.94C174.141 442.513 174.555 442.953 175.061 443.26C175.581 443.553 176.128 443.7 176.701 443.7C177.288 443.7 177.835 443.553 178.341 443.26C178.848 442.967 179.255 442.54 179.561 441.98C179.881 441.407 180.041 440.74 180.041 439.98ZM195.151 436.34H193.111V445.5H190.811V436.34H189.511V434.48H190.811V433.7C190.811 432.433 191.145 431.513 191.811 430.94C192.491 430.353 193.551 430.06 194.991 430.06V431.96C194.298 431.96 193.811 432.093 193.531 432.36C193.251 432.613 193.111 433.06 193.111 433.7V434.48H195.151V436.34ZM199.452 436.08C199.785 435.52 200.225 435.087 200.772 434.78C201.332 434.46 201.992 434.3 202.752 434.3V436.66H202.172C201.279 436.66 200.599 436.887 200.132 437.34C199.679 437.793 199.452 438.58 199.452 439.7V445.5H197.172V434.48H199.452V436.08ZM206.008 433.02C205.594 433.02 205.248 432.88 204.968 432.6C204.688 432.32 204.548 431.973 204.548 431.56C204.548 431.147 204.688 430.8 204.968 430.52C205.248 430.24 205.594 430.1 206.008 430.1C206.408 430.1 206.748 430.24 207.028 430.52C207.308 430.8 207.448 431.147 207.448 431.56C207.448 431.973 207.308 432.32 207.028 432.6C206.748 432.88 206.408 433.02 206.008 433.02ZM207.128 434.48V445.5H204.848V434.48H207.128ZM220.221 439.72C220.221 440.133 220.194 440.507 220.141 440.84H211.721C211.788 441.72 212.114 442.427 212.701 442.96C213.288 443.493 214.008 443.76 214.861 443.76C216.088 443.76 216.954 443.247 217.461 442.22H219.921C219.588 443.233 218.981 444.067 218.101 444.72C217.234 445.36 216.154 445.68 214.861 445.68C213.808 445.68 212.861 445.447 212.021 444.98C211.194 444.5 210.541 443.833 210.061 442.98C209.594 442.113 209.361 441.113 209.361 439.98C209.361 438.847 209.588 437.853 210.041 437C210.508 436.133 211.154 435.467 211.981 435C212.821 434.533 213.781 434.3 214.861 434.3C215.901 434.3 216.828 434.527 217.641 434.98C218.454 435.433 219.088 436.073 219.541 436.9C219.994 437.713 220.221 438.653 220.221 439.72ZM217.841 439C217.828 438.16 217.528 437.487 216.941 436.98C216.354 436.473 215.628 436.22 214.761 436.22C213.974 436.22 213.301 436.473 212.741 436.98C212.181 437.473 211.848 438.147 211.741 439H217.841ZM228.025 434.3C228.892 434.3 229.665 434.48 230.345 434.84C231.038 435.2 231.578 435.733 231.965 436.44C232.352 437.147 232.545 438 232.545 439V445.5H230.285V439.34C230.285 438.353 230.038 437.6 229.545 437.08C229.052 436.547 228.378 436.28 227.525 436.28C226.672 436.28 225.992 436.547 225.485 437.08C224.992 437.6 224.745 438.353 224.745 439.34V445.5H222.465V434.48H224.745V435.74C225.118 435.287 225.592 434.933 226.165 434.68C226.752 434.427 227.372 434.3 228.025 434.3ZM234.693 439.94C234.693 438.833 234.92 437.853 235.373 437C235.84 436.147 236.466 435.487 237.253 435.02C238.053 434.54 238.94 434.3 239.913 434.3C240.633 434.3 241.34 434.46 242.033 434.78C242.74 435.087 243.3 435.5 243.713 436.02V430.7H246.013V445.5H243.713V443.84C243.34 444.373 242.82 444.813 242.153 445.16C241.5 445.507 240.746 445.68 239.893 445.68C238.933 445.68 238.053 445.44 237.253 444.96C236.466 444.467 235.84 443.787 235.373 442.92C234.92 442.04 234.693 441.047 234.693 439.94ZM243.713 439.98C243.713 439.22 243.553 438.56 243.233 438C242.926 437.44 242.52 437.013 242.013 436.72C241.506 436.427 240.96 436.28 240.373 436.28C239.786 436.28 239.24 436.427 238.733 436.72C238.226 437 237.813 437.42 237.493 437.98C237.186 438.527 237.033 439.18 237.033 439.94C237.033 440.7 237.186 441.367 237.493 441.94C237.813 442.513 238.226 442.953 238.733 443.26C239.253 443.553 239.8 443.7 240.373 443.7C240.96 443.7 241.506 443.553 242.013 443.26C242.52 442.967 242.926 442.54 243.233 441.98C243.553 441.407 243.713 440.74 243.713 439.98ZM256.863 436.34V442.44C256.863 442.853 256.956 443.153 257.143 443.34C257.343 443.513 257.676 443.6 258.143 443.6H259.543V445.5H257.743C256.716 445.5 255.93 445.26 255.383 444.78C254.836 444.3 254.563 443.52 254.563 442.44V436.34H253.263V434.48H254.563V431.74H256.863V434.48H259.543V436.34H256.863ZM266.425 445.68C265.385 445.68 264.445 445.447 263.605 444.98C262.765 444.5 262.105 443.833 261.625 442.98C261.145 442.113 260.905 441.113 260.905 439.98C260.905 438.86 261.151 437.867 261.645 437C262.138 436.133 262.811 435.467 263.665 435C264.518 434.533 265.471 434.3 266.525 434.3C267.578 434.3 268.531 434.533 269.385 435C270.238 435.467 270.911 436.133 271.405 437C271.898 437.867 272.145 438.86 272.145 439.98C272.145 441.1 271.891 442.093 271.385 442.96C270.878 443.827 270.185 444.5 269.305 444.98C268.438 445.447 267.478 445.68 266.425 445.68ZM266.425 443.7C267.011 443.7 267.558 443.56 268.065 443.28C268.585 443 269.005 442.58 269.325 442.02C269.645 441.46 269.805 440.78 269.805 439.98C269.805 439.18 269.651 438.507 269.345 437.96C269.038 437.4 268.631 436.98 268.125 436.7C267.618 436.42 267.071 436.28 266.485 436.28C265.898 436.28 265.351 436.42 264.845 436.7C264.351 436.98 263.958 437.4 263.665 437.96C263.371 438.507 263.225 439.18 263.225 439.98C263.225 441.167 263.525 442.087 264.125 442.74C264.738 443.38 265.505 443.7 266.425 443.7ZM281.874 436.1C282.26 435.593 282.787 435.167 283.454 434.82C284.12 434.473 284.874 434.3 285.714 434.3C286.674 434.3 287.547 434.54 288.334 435.02C289.134 435.487 289.76 436.147 290.214 437C290.667 437.853 290.894 438.833 290.894 439.94C290.894 441.047 290.667 442.04 290.214 442.92C289.76 443.787 289.134 444.467 288.334 444.96C287.547 445.44 286.674 445.68 285.714 445.68C284.874 445.68 284.127 445.513 283.474 445.18C282.82 444.833 282.287 444.407 281.874 443.9V450.74H279.594V434.48H281.874V436.1ZM288.574 439.94C288.574 439.18 288.414 438.527 288.094 437.98C287.787 437.42 287.374 437 286.854 436.72C286.347 436.427 285.8 436.28 285.214 436.28C284.64 436.28 284.094 436.427 283.574 436.72C283.067 437.013 282.654 437.44 282.334 438C282.027 438.56 281.874 439.22 281.874 439.98C281.874 440.74 282.027 441.407 282.334 441.98C282.654 442.54 283.067 442.967 283.574 443.26C284.094 443.553 284.64 443.7 285.214 443.7C285.8 443.7 286.347 443.553 286.854 443.26C287.374 442.953 287.787 442.513 288.094 441.94C288.414 441.367 288.574 440.7 288.574 439.94ZM297.928 445.68C296.888 445.68 295.948 445.447 295.108 444.98C294.268 444.5 293.608 443.833 293.128 442.98C292.648 442.113 292.408 441.113 292.408 439.98C292.408 438.86 292.655 437.867 293.148 437C293.642 436.133 294.315 435.467 295.168 435C296.022 434.533 296.975 434.3 298.028 434.3C299.082 434.3 300.035 434.533 300.888 435C301.742 435.467 302.415 436.133 302.908 437C303.402 437.867 303.648 438.86 303.648 439.98C303.648 441.1 303.395 442.093 302.888 442.96C302.382 443.827 301.688 444.5 300.808 444.98C299.942 445.447 298.982 445.68 297.928 445.68ZM297.928 443.7C298.515 443.7 299.062 443.56 299.568 443.28C300.088 443 300.508 442.58 300.828 442.02C301.148 441.46 301.308 440.78 301.308 439.98C301.308 439.18 301.155 438.507 300.848 437.96C300.542 437.4 300.135 436.98 299.628 436.7C299.122 436.42 298.575 436.28 297.988 436.28C297.402 436.28 296.855 436.42 296.348 436.7C295.855 436.98 295.462 437.4 295.168 437.96C294.875 438.507 294.728 439.18 294.728 439.98C294.728 441.167 295.028 442.087 295.628 442.74C296.242 443.38 297.008 443.7 297.928 443.7ZM305.142 439.94C305.142 438.833 305.369 437.853 305.822 437C306.289 436.147 306.916 435.487 307.702 435.02C308.502 434.54 309.389 434.3 310.362 434.3C311.082 434.3 311.789 434.46 312.482 434.78C313.189 435.087 313.749 435.5 314.162 436.02V430.7H316.462V445.5H314.162V443.84C313.789 444.373 313.269 444.813 312.602 445.16C311.949 445.507 311.196 445.68 310.342 445.68C309.382 445.68 308.502 445.44 307.702 444.96C306.916 444.467 306.289 443.787 305.822 442.92C305.369 442.04 305.142 441.047 305.142 439.94ZM314.162 439.98C314.162 439.22 314.002 438.56 313.682 438C313.376 437.44 312.969 437.013 312.462 436.72C311.956 436.427 311.409 436.28 310.822 436.28C310.236 436.28 309.689 436.427 309.182 436.72C308.676 437 308.262 437.42 307.942 437.98C307.636 438.527 307.482 439.18 307.482 439.94C307.482 440.7 307.636 441.367 307.942 441.94C308.262 442.513 308.676 442.953 309.182 443.26C309.702 443.553 310.249 443.7 310.822 443.7C311.409 443.7 311.956 443.553 312.462 443.26C312.969 442.967 313.376 442.54 313.682 441.98C314.002 441.407 314.162 440.74 314.162 439.98Z" fill="#232323"/>
<path d="M87.6094 270C87.6094 256.745 98.3545 246 111.609 246H351.609C364.864 246 375.609 256.745 375.609 270V297C375.609 310.255 364.864 321 351.609 321H111.609C98.3545 321 87.6094 310.255 87.6094 297V270Z" fill="#F0F0F0"/>
<path d="M151.066 277.1L145.846 291H143.206L137.966 277.1H140.406L144.526 288.66L148.666 277.1H151.066ZM154.133 278.52C153.719 278.52 153.373 278.38 153.093 278.1C152.813 277.82 152.673 277.473 152.673 277.06C152.673 276.647 152.813 276.3 153.093 276.02C153.373 275.74 153.719 275.6 154.133 275.6C154.533 275.6 154.873 275.74 155.153 276.02C155.433 276.3 155.573 276.647 155.573 277.06C155.573 277.473 155.433 277.82 155.153 278.1C154.873 278.38 154.533 278.52 154.133 278.52ZM155.253 279.98V291H152.973V279.98H155.253ZM168.346 285.22C168.346 285.633 168.319 286.007 168.266 286.34H159.846C159.913 287.22 160.239 287.927 160.826 288.46C161.413 288.993 162.133 289.26 162.986 289.26C164.213 289.26 165.079 288.747 165.586 287.72H168.046C167.713 288.733 167.106 289.567 166.226 290.22C165.359 290.86 164.279 291.18 162.986 291.18C161.933 291.18 160.986 290.947 160.146 290.48C159.319 290 158.666 289.333 158.186 288.48C157.719 287.613 157.486 286.613 157.486 285.48C157.486 284.347 157.713 283.353 158.166 282.5C158.633 281.633 159.279 280.967 160.106 280.5C160.946 280.033 161.906 279.8 162.986 279.8C164.026 279.8 164.953 280.027 165.766 280.48C166.579 280.933 167.213 281.573 167.666 282.4C168.119 283.213 168.346 284.153 168.346 285.22ZM165.966 284.5C165.953 283.66 165.653 282.987 165.066 282.48C164.479 281.973 163.753 281.72 162.886 281.72C162.099 281.72 161.426 281.973 160.866 282.48C160.306 282.973 159.973 283.647 159.866 284.5H165.966ZM185.39 279.98L181.97 291H179.57L177.35 282.86L175.13 291H172.73L169.29 279.98H171.61L173.91 288.84L176.25 279.98H178.63L180.87 288.8L183.15 279.98H185.39ZM194.569 281.6C194.956 281.093 195.482 280.667 196.149 280.32C196.816 279.973 197.569 279.8 198.409 279.8C199.369 279.8 200.242 280.04 201.029 280.52C201.829 280.987 202.456 281.647 202.909 282.5C203.362 283.353 203.589 284.333 203.589 285.44C203.589 286.547 203.362 287.54 202.909 288.42C202.456 289.287 201.829 289.967 201.029 290.46C200.242 290.94 199.369 291.18 198.409 291.18C197.569 291.18 196.822 291.013 196.169 290.68C195.516 290.333 194.982 289.907 194.569 289.4V296.24H192.289V279.98H194.569V281.6ZM201.269 285.44C201.269 284.68 201.109 284.027 200.789 283.48C200.482 282.92 200.069 282.5 199.549 282.22C199.042 281.927 198.496 281.78 197.909 281.78C197.336 281.78 196.789 281.927 196.269 282.22C195.762 282.513 195.349 282.94 195.029 283.5C194.722 284.06 194.569 284.72 194.569 285.48C194.569 286.24 194.722 286.907 195.029 287.48C195.349 288.04 195.762 288.467 196.269 288.76C196.789 289.053 197.336 289.2 197.909 289.2C198.496 289.2 199.042 289.053 199.549 288.76C200.069 288.453 200.482 288.013 200.789 287.44C201.109 286.867 201.269 286.2 201.269 285.44ZM208.124 276.2V291H205.844V276.2H208.124ZM210.357 285.44C210.357 284.333 210.584 283.353 211.037 282.5C211.504 281.647 212.131 280.987 212.917 280.52C213.717 280.04 214.597 279.8 215.557 279.8C216.424 279.8 217.177 279.973 217.817 280.32C218.471 280.653 218.991 281.073 219.377 281.58V279.98H221.677V291H219.377V289.36C218.991 289.88 218.464 290.313 217.797 290.66C217.131 291.007 216.371 291.18 215.517 291.18C214.571 291.18 213.704 290.94 212.917 290.46C212.131 289.967 211.504 289.287 211.037 288.42C210.584 287.54 210.357 286.547 210.357 285.44ZM219.377 285.48C219.377 284.72 219.217 284.06 218.897 283.5C218.591 282.94 218.184 282.513 217.677 282.22C217.171 281.927 216.624 281.78 216.037 281.78C215.451 281.78 214.904 281.927 214.397 282.22C213.891 282.5 213.477 282.92 213.157 283.48C212.851 284.027 212.697 284.68 212.697 285.44C212.697 286.2 212.851 286.867 213.157 287.44C213.477 288.013 213.891 288.453 214.397 288.76C214.917 289.053 215.464 289.2 216.037 289.2C216.624 289.2 217.171 289.053 217.677 288.76C218.184 288.467 218.591 288.04 218.897 287.48C219.217 286.907 219.377 286.24 219.377 285.48ZM230.232 279.8C231.099 279.8 231.872 279.98 232.552 280.34C233.245 280.7 233.785 281.233 234.172 281.94C234.559 282.647 234.752 283.5 234.752 284.5V291H232.492V284.84C232.492 283.853 232.245 283.1 231.752 282.58C231.259 282.047 230.585 281.78 229.732 281.78C228.879 281.78 228.199 282.047 227.692 282.58C227.199 283.1 226.952 283.853 226.952 284.84V291H224.672V279.98H226.952V281.24C227.325 280.787 227.799 280.433 228.372 280.18C228.959 279.927 229.579 279.8 230.232 279.8ZM240.32 281.84V287.94C240.32 288.353 240.413 288.653 240.6 288.84C240.8 289.013 241.133 289.1 241.6 289.1H243V291H241.2C240.173 291 239.387 290.76 238.84 290.28C238.293 289.8 238.02 289.02 238.02 287.94V281.84H236.72V279.98H238.02V277.24H240.32V279.98H243V281.84H240.32ZM249.537 285.44C249.537 284.333 249.764 283.353 250.217 282.5C250.684 281.647 251.31 280.987 252.097 280.52C252.897 280.04 253.784 279.8 254.757 279.8C255.477 279.8 256.184 279.96 256.877 280.28C257.584 280.587 258.144 281 258.557 281.52V276.2H260.857V291H258.557V289.34C258.184 289.873 257.664 290.313 256.997 290.66C256.344 291.007 255.59 291.18 254.737 291.18C253.777 291.18 252.897 290.94 252.097 290.46C251.31 289.967 250.684 289.287 250.217 288.42C249.764 287.54 249.537 286.547 249.537 285.44ZM258.557 285.48C258.557 284.72 258.397 284.06 258.077 283.5C257.77 282.94 257.364 282.513 256.857 282.22C256.35 281.927 255.804 281.78 255.217 281.78C254.63 281.78 254.084 281.927 253.577 282.22C253.07 282.5 252.657 282.92 252.337 283.48C252.03 284.027 251.877 284.68 251.877 285.44C251.877 286.2 252.03 286.867 252.337 287.44C252.657 288.013 253.07 288.453 253.577 288.76C254.097 289.053 254.644 289.2 255.217 289.2C255.804 289.2 256.35 289.053 256.857 288.76C257.364 288.467 257.77 288.04 258.077 287.48C258.397 286.907 258.557 286.24 258.557 285.48ZM273.952 285.22C273.952 285.633 273.925 286.007 273.872 286.34H265.452C265.518 287.22 265.845 287.927 266.432 288.46C267.018 288.993 267.738 289.26 268.592 289.26C269.818 289.26 270.685 288.747 271.192 287.72H273.652C273.318 288.733 272.712 289.567 271.832 290.22C270.965 290.86 269.885 291.18 268.592 291.18C267.538 291.18 266.592 290.947 265.752 290.48C264.925 290 264.272 289.333 263.792 288.48C263.325 287.613 263.092 286.613 263.092 285.48C263.092 284.347 263.318 283.353 263.772 282.5C264.238 281.633 264.885 280.967 265.712 280.5C266.552 280.033 267.512 279.8 268.592 279.8C269.632 279.8 270.558 280.027 271.372 280.48C272.185 280.933 272.818 281.573 273.272 282.4C273.725 283.213 273.952 284.153 273.952 285.22ZM271.572 284.5C271.558 283.66 271.258 282.987 270.672 282.48C270.085 281.973 269.358 281.72 268.492 281.72C267.705 281.72 267.032 281.973 266.472 282.48C265.912 282.973 265.578 283.647 265.472 284.5H271.572ZM278.855 281.84V287.94C278.855 288.353 278.949 288.653 279.135 288.84C279.335 289.013 279.669 289.1 280.135 289.1H281.535V291H279.735C278.709 291 277.922 290.76 277.375 290.28C276.829 289.8 276.555 289.02 276.555 287.94V281.84H275.255V279.98H276.555V277.24H278.855V279.98H281.535V281.84H278.855ZM282.877 285.44C282.877 284.333 283.103 283.353 283.557 282.5C284.023 281.647 284.65 280.987 285.437 280.52C286.237 280.04 287.117 279.8 288.077 279.8C288.943 279.8 289.697 279.973 290.337 280.32C290.99 280.653 291.51 281.073 291.897 281.58V279.98H294.197V291H291.897V289.36C291.51 289.88 290.983 290.313 290.317 290.66C289.65 291.007 288.89 291.18 288.037 291.18C287.09 291.18 286.223 290.94 285.437 290.46C284.65 289.967 284.023 289.287 283.557 288.42C283.103 287.54 282.877 286.547 282.877 285.44ZM291.897 285.48C291.897 284.72 291.737 284.06 291.417 283.5C291.11 282.94 290.703 282.513 290.197 282.22C289.69 281.927 289.143 281.78 288.557 281.78C287.97 281.78 287.423 281.927 286.917 282.22C286.41 282.5 285.997 282.92 285.677 283.48C285.37 284.027 285.217 284.68 285.217 285.44C285.217 286.2 285.37 286.867 285.677 287.44C285.997 288.013 286.41 288.453 286.917 288.76C287.437 289.053 287.983 289.2 288.557 289.2C289.143 289.2 289.69 289.053 290.197 288.76C290.703 288.467 291.11 288.04 291.417 287.48C291.737 286.907 291.897 286.24 291.897 285.48ZM298.351 278.52C297.938 278.52 297.591 278.38 297.311 278.1C297.031 277.82 296.891 277.473 296.891 277.06C296.891 276.647 297.031 276.3 297.311 276.02C297.591 275.74 297.938 275.6 298.351 275.6C298.751 275.6 299.091 275.74 299.371 276.02C299.651 276.3 299.791 276.647 299.791 277.06C299.791 277.473 299.651 277.82 299.371 278.1C299.091 278.38 298.751 278.52 298.351 278.52ZM299.471 279.98V291H297.191V279.98H299.471ZM304.745 276.2V291H302.465V276.2H304.745ZM311.738 291.18C310.872 291.18 310.092 291.027 309.398 290.72C308.718 290.4 308.178 289.973 307.778 289.44C307.378 288.893 307.165 288.287 307.138 287.62H309.498C309.538 288.087 309.758 288.48 310.158 288.8C310.572 289.107 311.085 289.26 311.698 289.26C312.338 289.26 312.832 289.14 313.178 288.9C313.538 288.647 313.718 288.327 313.718 287.94C313.718 287.527 313.518 287.22 313.118 287.02C312.732 286.82 312.112 286.6 311.258 286.36C310.432 286.133 309.758 285.913 309.238 285.7C308.718 285.487 308.265 285.16 307.878 284.72C307.505 284.28 307.318 283.7 307.318 282.98C307.318 282.393 307.492 281.86 307.838 281.38C308.185 280.887 308.678 280.5 309.318 280.22C309.972 279.94 310.718 279.8 311.558 279.8C312.812 279.8 313.818 280.12 314.578 280.76C315.352 281.387 315.765 282.247 315.818 283.34H313.538C313.498 282.847 313.298 282.453 312.938 282.16C312.578 281.867 312.092 281.72 311.478 281.72C310.878 281.72 310.418 281.833 310.098 282.06C309.778 282.287 309.618 282.587 309.618 282.96C309.618 283.253 309.725 283.5 309.938 283.7C310.152 283.9 310.412 284.06 310.718 284.18C311.025 284.287 311.478 284.427 312.078 284.6C312.878 284.813 313.532 285.033 314.038 285.26C314.558 285.473 315.005 285.793 315.378 286.22C315.752 286.647 315.945 287.213 315.958 287.92C315.958 288.547 315.785 289.107 315.438 289.6C315.092 290.093 314.598 290.48 313.958 290.76C313.332 291.04 312.592 291.18 311.738 291.18Z" fill="#232323"/>
<path d="M774.609 128C773.781 128 773.109 128.672 773.109 129.5C773.109 130.328 773.781 131 774.609 131V128ZM877.439 129.5L862.439 120.84V138.16L877.439 129.5ZM774.609 131H863.939V128H774.609V131Z" fill="#CECCCC"/>
<path d="M379.602 128.481C378.774 128.485 378.106 129.16 378.109 129.988C378.113 130.817 378.788 131.485 379.616 131.481L379.602 128.481ZM478.609 129.519L463.569 120.928L463.65 138.249L478.609 129.519ZM379.616 131.481L465.117 131.082L465.103 128.082L379.602 128.481L379.616 131.481Z" fill="#CECCCC"/>
<path d="M379.595 436.463C378.767 436.471 378.102 437.148 378.109 437.977C378.117 438.805 378.795 439.471 379.623 439.463L379.595 436.463ZM478.61 437.038L463.529 428.518L463.691 445.838L478.61 437.038ZM379.623 439.463L465.124 438.664L465.096 435.664L379.595 436.463L379.623 439.463Z" fill="#CECCCC"/>
<path d="M1023.11 171C1023.11 170.172 1022.44 169.5 1021.61 169.5C1020.78 169.5 1020.11 170.172 1020.11 171H1023.11ZM1021.61 242L1030.27 227H1012.95L1021.61 242ZM1020.11 171V228.5H1023.11V171H1020.11Z" fill="#CECCCC"/>
<path d="M873.609 285C874.438 285 875.109 284.328 875.109 283.5C875.109 282.672 874.438 282 873.609 282V285ZM774.609 283.5L789.609 292.16V274.84L774.609 283.5ZM873.609 282H788.109V285H873.609V282Z" fill="#CECCCC"/>
<path d="M233.109 325C233.109 324.172 232.438 323.5 231.609 323.5C230.781 323.5 230.109 324.172 230.109 325H233.109ZM231.609 396.5L240.27 381.5H222.949L231.609 396.5ZM230.109 325V383H233.109V325H230.109Z" fill="#CECCCC"/>
<path d="M478.609 285C479.438 285 480.109 284.328 480.109 283.5C480.109 282.672 479.438 282 478.609 282V285ZM379.609 283.5L394.609 292.16V274.84L379.609 283.5ZM478.609 282H393.109V285H478.609V282Z" fill="#CECCCC"/>
</svg>
